<svg xmlns="http://www.w3.org/2000/svg" xmlns:xlink="http://www.w3.org/1999/xlink" viewBox="0 0 895.63 136.74"><defs><style>.cls-1{fill:#2e53a3;}.cls-2{fill:#221d53;}.cls-3{fill:#5875b5;}.cls-4{fill:#f7ba44;}.cls-5{fill:#fff;opacity:0.7;}.cls-6,.cls-7{opacity:0.5;}.cls-6{fill:url(#linear-gradient);}.cls-7{fill:url(#linear-gradient-2);}</style><linearGradient id="linear-gradient" x1="604.5" y1="92.51" x2="633.76" y2="92.51" gradientUnits="userSpaceOnUse"><stop offset="0" stop-color="#fff" stop-opacity="0"/><stop offset="0.16" stop-color="#fff" stop-opacity="0.13"/><stop offset="0.44" stop-color="#fff" stop-opacity="0.33"/><stop offset="0.68" stop-color="#fff" stop-opacity="0.48"/><stop offset="0.88" stop-color="#fff" stop-opacity="0.57"/><stop offset="1" stop-color="#fff" stop-opacity="0.6"/></linearGradient><linearGradient id="linear-gradient-2" x1="577.77" y1="98.61" x2="597.54" y2="98.61" xlink:href="#linear-gradient"/></defs><g id="Layer_2" data-name="Layer 2"><g id="Layer_1-2" data-name="Layer 1"><path class="cls-1" d="M661.64,84.52C626.34,90.79,519.71,102,426.39,63.2c-79.51-33-97.61-21.15-232.23,19.16C149.13,95.85,0,136.74,0,136.74H505.69c96.62-4.91,186.36-13.19,196.27-15.32A101.39,101.39,0,0,0,714.33,118c3.49-1.24,7.14-2.32,9.68-5.18a3.29,3.29,0,0,0,1-2.53c-.49-3-9.16-6.54-11.52-7.87-1.92-1.09-3.66-2.13-5.46-3.38a4.09,4.09,0,0,1-1.68-1.84c-1.74-4.79,19.77-4.65,21-8.87,1.11-3.71-29.6-10.06-33.31-10.81l-2.55-.35A245.81,245.81,0,0,1,661.64,84.52Z"/><path class="cls-1" d="M827.79,0C791.29,22.82,750,59,691.64,77.12l2.18.27.37.08c9.69,1.36,41.12,6.19,40.74,11.31-.37,4.92-21.73,5.77-7.92,9,4.24,1,32.92,6.42,43.92,13.38,9.56,6,5.9,14-2.33,21.56l127-.54V0Z"/><path class="cls-2" d="M895.58,136.74V10.18S811.68,81.44,747.67,82.3a303.19,303.19,0,0,1-34.4-1.65c10.94,2.17,21.83,5.2,21.6,8.23-.36,4.92-21.73,5.77-7.92,9,4.25,1,32.92,6.42,43.93,13.38,11.5,7.27,3.87,16.73-7.85,25.52C842.66,136.42,895.58,136.74,895.58,136.74Z"/><path class="cls-2" d="M702,121.43a99.62,99.62,0,0,0,12.37-3.38c3.49-1.23,7.14-2.31,9.68-5.17a3.29,3.29,0,0,0,1-2.53c-.49-3.06-9.16-6.54-11.52-7.88-1.92-1.08-3.66-2.13-5.46-3.37a4.14,4.14,0,0,1-1.68-1.84c-1.74-4.79,19.77-4.65,21-8.87.76-2.55-13.44-6.33-23.64-8.71C641.89,71.62,596.34,47.79,569.48,47.2c-38.52-.85-66,35.05-126.61,51.41-46.23,12.49-61.38,5.79-94.79-7.59C296.58,70.4,282.5,71.29,242.59,83.3,195,97.6,91.24,126.4,28.55,136.74H507.27C675,131.05,689.88,124,702,121.43Z"/><rect class="cls-3" x="758.86" y="70.85" width="2.13" height="27.37"/><rect class="cls-3" x="679.16" y="83.96" width="2.13" height="27.37"/><rect class="cls-3" x="746.52" y="67.85" width="2.13" height="27.37"/><rect class="cls-3" x="562.97" y="83.99" width="2.13" height="27.37"/><path class="cls-3" d="M581.21,102.11h0a9.44,9.44,0,0,1-9.44-9.44c0-3.75,4.72-25.36,9.44-25.41s9.44,21.48,9.44,25.41A9.44,9.44,0,0,1,581.21,102.11Z"/><path class="cls-3" d="M759.93,87.05h0a9.45,9.45,0,0,0,9.45-9.45c0-3.75-4.73-25.39-9.45-25.44s-9.46,21.51-9.46,25.44A9.45,9.45,0,0,0,759.93,87.05Z"/><rect class="cls-3" x="844.54" y="83.96" width="2.13" height="27.37"/><path class="cls-3" d="M845.6,100.16h0a9.46,9.46,0,0,0,9.46-9.45c0-3.75-4.73-25.39-9.46-25.44s-9.45,21.51-9.45,25.44A9.45,9.45,0,0,0,845.6,100.16Z"/><path class="cls-3" d="M747.59,85.87h0a7.54,7.54,0,0,0,7.53-7.54c0-3-3.76-20.25-7.53-20.28s-7.54,17.14-7.54,20.28A7.54,7.54,0,0,0,747.59,85.87Z"/><polygon class="cls-1" points="801.84 82.5 829.16 82.5 840.76 94.01 813.43 94.01 801.84 82.5"/><polygon class="cls-2" points="812.04 95.22 839.36 95.22 840.76 94.01 813.43 94.01 812.04 95.22"/><polygon class="cls-2" points="801.84 82.5 790.25 94.01 791.64 95.22 801.84 85.1 812.04 95.22 813.43 94.01 801.84 82.5"/><polygon class="cls-4" points="791.64 95.22 791.64 111.32 812.04 111.32 812.04 95.22 801.84 85.1 791.64 95.22"/><rect class="cls-4" x="812.04" y="95.22" width="27.33" height="16.1"/><rect class="cls-5" x="812.04" y="95.22" width="27.33" height="16.1"/><rect class="cls-5" x="795.14" y="100.95" width="4.64" height="4.64" transform="translate(1594.92 206.55) rotate(180)"/><rect class="cls-4" x="803.9" y="100.95" width="4.64" height="10.37" transform="translate(1612.44 212.28) rotate(180)"/><rect class="cls-5" x="803.18" y="100.95" width="4.64" height="10.37" transform="translate(1611 212.28) rotate(180)"/><rect class="cls-2" x="804.16" y="100.95" width="3.66" height="10.37" transform="translate(1611.97 212.28) rotate(180)"/><rect class="cls-2" x="796.12" y="100.95" width="3.66" height="4.64" transform="translate(1595.9 206.55) rotate(180)"/><rect class="cls-2" x="818.58" y="100.95" width="4.64" height="4.64"/><rect class="cls-1" x="818.58" y="100.95" width="3.66" height="4.64"/><rect class="cls-2" x="828.66" y="100.95" width="4.64" height="4.64"/><rect class="cls-1" x="828.66" y="100.95" width="3.66" height="4.64"/><path class="cls-3" d="M680.22,99.76h0a11.84,11.84,0,0,1-11.84-11.84c0-4.7,5.92-31.81,11.84-31.87S692.07,83,692.07,87.92A11.85,11.85,0,0,1,680.22,99.76Z"/><path class="cls-3" d="M564,99.76h0a11.85,11.85,0,0,1-11.85-11.84c0-4.7,5.92-31.81,11.85-31.87S575.88,83,575.88,87.92A11.84,11.84,0,0,1,564,99.76Z"/><polygon class="cls-1" points="619.13 69.96 658.35 69.96 674.98 86.48 635.77 86.48 619.13 69.96"/><polygon class="cls-2" points="633.76 88.22 672.98 88.22 674.98 86.48 635.77 86.48 633.76 88.22"/><polygon class="cls-2" points="619.13 69.96 602.5 86.48 604.5 88.22 619.13 73.69 633.76 88.22 635.77 86.48 619.13 69.96"/><polygon class="cls-4" points="604.5 88.22 604.5 111.32 633.76 111.32 633.76 88.22 619.13 73.69 604.5 88.22"/><polygon class="cls-6" points="604.5 88.22 604.5 111.32 633.76 111.32 633.76 88.22 619.13 73.69 604.5 88.22"/><rect class="cls-4" x="633.76" y="88.22" width="39.21" height="23.11"/><rect class="cls-5" x="633.76" y="88.22" width="39.21" height="23.11"/><rect class="cls-2" x="650.94" y="96.44" width="6.66" height="14.88" transform="translate(1308.54 207.76) rotate(180)"/><rect class="cls-1" x="649.65" y="96.44" width="6.52" height="14.88" transform="translate(1305.81 207.76) rotate(180)"/><rect class="cls-2" x="661.16" y="96.44" width="6.66" height="6.66"/><rect class="cls-1" x="661.16" y="96.44" width="5.26" height="6.66"/><rect class="cls-2" x="639.42" y="96.44" width="6.66" height="6.66"/><rect class="cls-1" x="639.42" y="96.44" width="5.26" height="6.66"/><polygon class="cls-1" points="587.65 83.38 614.15 83.38 625.39 94.54 598.89 94.54 587.65 83.38"/><polygon class="cls-2" points="597.54 95.71 624.04 95.71 625.39 94.54 598.89 94.54 597.54 95.71"/><polygon class="cls-2" points="587.65 83.38 576.42 94.54 577.77 95.71 587.65 85.9 597.54 95.71 598.89 94.54 587.65 83.38"/><polygon class="cls-4" points="577.77 95.71 577.77 111.32 597.54 111.32 597.54 95.71 587.65 85.9 577.77 95.71"/><polygon class="cls-7" points="577.77 95.71 577.77 111.32 597.54 111.32 597.54 95.71 587.65 85.9 577.77 95.71"/><rect class="cls-4" x="597.54" y="95.71" width="26.49" height="15.61"/><rect class="cls-5" x="597.54" y="95.71" width="26.49" height="15.61"/><rect class="cls-5" x="585.05" y="101.27" width="4.5" height="10.06" transform="translate(1174.61 212.59) rotate(180)"/><rect class="cls-2" x="586" y="101.27" width="4.25" height="10.06" transform="translate(1176.26 212.59) rotate(180)"/><rect class="cls-2" x="603.89" y="101.27" width="4.5" height="4.5"/><rect class="cls-2" x="614.15" y="101.27" width="4.5" height="4.5"/><rect class="cls-1" x="614.15" y="101.27" width="3.55" height="4.5"/><rect class="cls-1" x="603.89" y="101.27" width="3.55" height="4.5"/><path class="cls-3" d="M787.31,108.08c0,2.16-1.75,3.24-3.9,3.24s-3.9-1.08-3.9-3.24,3.09-4.55,3.9-4.55S787.31,105.93,787.31,108.08Z"/></g></g></svg>