<svg xmlns="http://www.w3.org/2000/svg" xmlns:xlink="http://www.w3.org/1999/xlink" viewBox="0 0 490.37 444.75"><defs><style>.cls-1{opacity:0.4;}.cls-2{fill:#f7ba44;}.cls-3{fill:url(#linear-gradient);}.cls-10,.cls-4{opacity:0.4;}.cls-10,.cls-4,.cls-6{isolation:isolate;}.cls-4{fill:url(#linear-gradient-2);}.cls-5{fill:url(#linear-gradient-3);}.cls-16,.cls-6{fill:#fff;}.cls-6{opacity:0.3;}.cls-7{fill:url(#linear-gradient-4);}.cls-8{fill:url(#linear-gradient-5);}.cls-9{fill:url(#linear-gradient-6);}.cls-10{fill:url(#linear-gradient-7);}.cls-11{fill:url(#linear-gradient-8);}.cls-12{fill:url(#linear-gradient-9);}.cls-13{fill:url(#linear-gradient-10);}.cls-14{fill:#221d53;}.cls-15{fill:#ef5050;}.cls-17{fill:#f27373;}.cls-18{fill:#c5d9f1;}.cls-19{fill:#2e53a3;}.cls-20{fill:url(#linear-gradient-11);}.cls-21{fill:#e59e1e;}</style><linearGradient id="linear-gradient" x1="-159.49" y1="586.71" x2="-157.99" y2="586.77" gradientTransform="translate(9707.05 -67302.7) scale(59.64 115.36)" gradientUnits="userSpaceOnUse"><stop offset="0" stop-color="#fff" stop-opacity="0.27"/><stop offset="0.04" stop-color="#fff" stop-opacity="0.23"/><stop offset="0.21" stop-color="#fff" stop-opacity="0.11"/><stop offset="0.35" stop-color="#fff" stop-opacity="0.03"/><stop offset="0.44" stop-color="#fff" stop-opacity="0"/></linearGradient><linearGradient id="linear-gradient-2" x1="-153.59" y1="586.78" x2="-154.78" y2="586.7" gradientTransform="translate(16952.3 -67301.41) scale(108.46 115.36)" gradientUnits="userSpaceOnUse"><stop offset="0" stop-color="#fff"/><stop offset="0.16" stop-color="#fadb9f"/><stop offset="0.28" stop-color="#f8c35d"/><stop offset="0.33" stop-color="#f7ba44"/></linearGradient><linearGradient id="linear-gradient-3" x1="-177.75" y1="639.71" x2="-173.55" y2="639.82" gradientTransform="translate(3977.21 -38160.69) scale(21.29 60.3)" xlink:href="#linear-gradient"/><linearGradient id="linear-gradient-4" x1="-158.51" y1="600" x2="-157.01" y2="600.07" gradientTransform="translate(9647.77 -55943.56) scale(59.65 93.9)" xlink:href="#linear-gradient"/><linearGradient id="linear-gradient-5" x1="-158.19" y1="599.75" x2="-158.32" y2="600.44" gradientTransform="translate(9647.77 -55943.56) scale(59.65 93.9)" xlink:href="#linear-gradient"/><linearGradient id="linear-gradient-6" x1="-159.49" y1="529.56" x2="-157.99" y2="529.61" gradientTransform="matrix(59.64, 0, 0, -115.36, 9707.05, 61154.26)" xlink:href="#linear-gradient"/><linearGradient id="linear-gradient-7" x1="-153.59" y1="529.62" x2="-154.78" y2="529.54" gradientTransform="matrix(108.46, 0, 0, -115.36, 16952.3, 61152.97)" xlink:href="#linear-gradient-2"/><linearGradient id="linear-gradient-8" x1="-177.75" y1="530.36" x2="-173.55" y2="530.47" gradientTransform="matrix(21.29, 0, 0, -60.3, 3977.21, 32012.25)" xlink:href="#linear-gradient"/><linearGradient id="linear-gradient-9" x1="-158.51" y1="529.78" x2="-157.01" y2="529.85" gradientTransform="matrix(59.65, 0, 0, -93.9, 9647.77, 49795.12)" xlink:href="#linear-gradient"/><linearGradient id="linear-gradient-10" x1="-158.19" y1="529.54" x2="-158.32" y2="530.22" gradientTransform="matrix(59.65, 0, 0, -93.9, 9647.77, 49795.12)" xlink:href="#linear-gradient"/><linearGradient id="linear-gradient-11" x1="-150.05" y1="528.71" x2="-150.05" y2="529.53" gradientTransform="matrix(490.37, 0, 0, -308.09, 73824.28, 163335.94)" gradientUnits="userSpaceOnUse"><stop offset="0.13" stop-color="#fff" stop-opacity="0"/><stop offset="0.2" stop-color="#fff" stop-opacity="0.04"/><stop offset="0.32" stop-color="#fff" stop-opacity="0.14"/><stop offset="0.47" stop-color="#fff" stop-opacity="0.3"/><stop offset="0.65" stop-color="#fff" stop-opacity="0.52"/><stop offset="0.85" stop-color="#fff" stop-opacity="0.81"/><stop offset="0.97" stop-color="#fff"/></linearGradient></defs><g id="Layer_2" data-name="Layer 2"><g id="Layer_1-2" data-name="Layer 1"><g class="cls-1"><circle id="Ellipse_24" data-name="Ellipse 24" class="cls-2" cx="237.11" cy="385.11" r="59.64"/><path id="Path_5988" data-name="Path 5988" class="cls-3" d="M296.75,385.11a59.64,59.64,0,0,1-38.35,55.72l-21.29-56.37v-59A59.64,59.64,0,0,1,296.75,385.11Z"/><path id="Path_5989" data-name="Path 5989" class="cls-4" d="M258.4,440.83l-21.29-56.37-48.82-33.6a59.64,59.64,0,1,1,70.11,90Z"/><path id="Path_5990" data-name="Path 5990" class="cls-5" d="M237.11,384.46l21.29,56.36a59.12,59.12,0,0,1-21.29,3.93Z"/><path id="Path_5991" data-name="Path 5991" class="cls-6" d="M237.11,384.46l21.29,56.36a59.12,59.12,0,0,1-21.29,3.93Z"/><path id="Path_5992" data-name="Path 5992" class="cls-7" d="M237.11,444.75a59.62,59.62,0,0,1-48.81-93.9l48.81,33.6Z"/><path id="Path_5993" data-name="Path 5993" class="cls-8" d="M237.11,444.75a59.62,59.62,0,0,1-48.81-93.9l48.81,33.6Z"/></g><circle id="Ellipse_24-2" data-name="Ellipse 24" class="cls-2" cx="237.11" cy="59.64" r="59.64"/><path id="Path_5988-2" data-name="Path 5988" class="cls-9" d="M296.75,59.64A59.64,59.64,0,0,0,258.4,3.93L237.11,60.3v59A59.65,59.65,0,0,0,296.75,59.64Z"/><path id="Path_5989-2" data-name="Path 5989" class="cls-10" d="M258.4,3.93,237.11,60.3,188.29,93.9a59.64,59.64,0,1,0,70.11-90Z"/><path id="Path_5990-2" data-name="Path 5990" class="cls-11" d="M237.11,60.3,258.4,3.93A59.55,59.55,0,0,0,237.11,0Z"/><path id="Path_5991-2" data-name="Path 5991" class="cls-6" d="M237.11,60.3,258.4,3.93A59.55,59.55,0,0,0,237.11,0Z"/><path id="Path_5992-2" data-name="Path 5992" class="cls-12" d="M237.11,0A59.62,59.62,0,0,0,188.3,93.9l48.81-33.6Z"/><path id="Path_5993-2" data-name="Path 5993" class="cls-13" d="M237.11,0A59.62,59.62,0,0,0,188.3,93.9l48.81-33.6Z"/><g id="Group_64" data-name="Group 64"><path id="Path_107" data-name="Path 107" class="cls-14" d="M125.11,71.49A20.71,20.71,0,0,0,104.4,92.2h0c0,22.27,20.7,36.74,20.71,36.75h0s21-14.7,20.71-37.26a20.64,20.64,0,0,0-20.71-20.2Z"/><path id="Path_5952" data-name="Path 5952" class="cls-15" d="M128.4,66.62c-11.05.85-19.51,11.09-19.05,22.16C110.25,110.19,130,124,130,124h0s20.71-14.48,20.71-36.75A20.71,20.71,0,0,0,130,66.56C129.49,66.56,128.94,66.58,128.4,66.62Z"/><path id="Path_5956" data-name="Path 5956" class="cls-16" d="M139.83,91.22h-7.35v7.35h-4.89V91.22h-7.34v-4.9h7.34V79h4.89v7.34h7.35Z"/></g><g id="Group_65" data-name="Group 65"><path id="Path_107-2" data-name="Path 107-2" class="cls-14" d="M357.45,90.3A20.71,20.71,0,0,0,336.74,111h0c0,22.26,20.7,36.74,20.71,36.74h0s21-14.7,20.71-37.25a20.63,20.63,0,0,0-20.71-20.2Z"/><path id="Path_5954" data-name="Path 5954" class="cls-17" d="M360.74,85.43c-11.05.84-19.52,11.08-19.05,22.16.9,21.41,20.67,35.23,20.68,35.23h0s20.71-14.48,20.71-36.74a20.72,20.72,0,0,0-20.71-20.72C361.82,85.36,361.28,85.39,360.74,85.43Z"/><path id="Path_5957" data-name="Path 5957" class="cls-16" d="M362.38,97.05l-11.49,6.27,11.49,6.27,9.4-5.13v7.22h2.09v-8.36Zm-7.32,10.64v4.17l7.32,4,7.31-4v-4.17l-7.31,4Z"/></g><path id="Path_5943" data-name="Path 5943" class="cls-18" d="M411.1,306.54c-19.67,11.86-36.87-17.4-52.07-17.4-34.3,0-43.1,55.24-88.2,53-24.17-1.18-32.94-22.13-48.3-33.19-19-13.69-28.39,0-51.19,1.52s-32.78-23.57-63.1-17c-16.65,3.62-22.27,4.74-28.68,1.52-11.4-5.73-29.48-24.83-37.05-35.11C20.07,229.47,0,222.44,0,222.44H490.37C465.68,245.08,434.36,292.52,411.1,306.54Z"/><path id="Path_5944" data-name="Path 5944" class="cls-19" d="M358.66,283.18c-32-1.83-50.24,50.39-85,44.56s-56-74-81.34-56-41.56-5.07-53.22-13.94S113,248.75,97.2,264.11C76,284.73,57.36,259.88,47.55,249.18c-5.49-6-22.44-26.73-22.44-26.73H467.47S430.29,276.77,411.1,295C391,314.11,379.27,284.36,358.66,283.18Z"/><path id="Path_5945" data-name="Path 5945" class="cls-14" d="M167.27,265.15c-22.55.76-27.88-38.86-59.81-23.06-19.35,9.57-30.82,8.56-38.5,7.1-14-2.68-39.91-26.74-39.91-26.74s168.67-14.34,175.14,0c2.13,4.76-5.85,9.32-13.83,20.63C183.8,252.41,177.45,264.8,167.27,265.15Z"/><path id="Path_5946" data-name="Path 5946" class="cls-14" d="M247.63,220.41c-7.2.52-28.23-2.86-28.23-2.86s1,5.92.17,8.2a7.35,7.35,0,0,0-.16,1.55c.2,2,9.45,4.84,18.25,23.56s14.93,41.4,26.35,43.68c24.64,4.92,37-56.42,102.48-20.52,19.6,10.74,28.63,22.48,44.61,4.68,13.76-15.33,43-56.26,43-56.26S298.39,216.69,247.63,220.41Z"/><path id="Path_5947" data-name="Path 5947" class="cls-18" d="M411.1,138.21c-19.67-11.86-36.87,17.41-52.07,17.41-34.3,0-43.1-55.25-88.2-53-24.17,1.17-32.94,22.12-48.3,33.19-19,13.68-28.39,0-51.19-1.52s-32.78,23.57-63.1,17c-16.65-3.62-22.27-4.75-28.68-1.52-11.4,5.72-29.48,24.83-37.05,35.1C20.07,215.28,0,222.31,0,222.31H490.37C465.68,199.68,434.36,152.24,411.1,138.21Z"/><path id="Path_5948" data-name="Path 5948" class="cls-19" d="M358.66,161.58c-32,1.83-50.24-50.39-85-44.56s-56,74-81.34,56S150.8,178.09,139.14,187,113,196,97.2,180.65C76,160,57.36,184.88,47.55,195.57c-5.49,6-22.44,26.74-22.44,26.74H467.47S430.29,168,411.1,149.74C391,130.65,379.27,160.39,358.66,161.58Z"/><path id="Path_5949" data-name="Path 5949" class="cls-14" d="M167.27,179.61c-22.55-.76-27.88,38.86-59.81,23.06-19.35-9.57-30.82-8.56-38.5-7.1-14,2.68-39.91,26.74-39.91,26.74s168.67,14.34,175.14,0c2.13-4.76-5.85-9.32-13.83-20.63C183.8,192.35,177.45,180,167.27,179.61Z"/><path id="Path_5950" data-name="Path 5950" class="cls-14" d="M411.1,166.05c-16-17.8-25-6.06-44.61,4.69C301,206.64,288.65,145.29,264,150.21c-11.42,2.28-17.5,24.87-26.35,43.69-11.4,24.24-23.57,21.9-15.82,25.45a118.61,118.61,0,0,0,25.79,5c50.76,3.72,206.46-2,206.46-2S424.86,181.38,411.1,166.05Z"/><path id="Path_5951" data-name="Path 5951" class="cls-20" d="M294.37,222.31c-12.89-.15-64,.63-73.88-3.43a123.09,123.09,0,0,1-15.87-8.65c-9.44-5.81,17.7-7.1,16.34-12.3-1.64-6.24-31.72-6-31.72-6s21.76,1,24.21,5.05-18.45,4.8-20.18,7.7,13.21,12.31,10.2,15.71c-.92,1-4.65,1.63-9.36,1.94H0V444.75H490.37V222.31Z"/><g id="Group_67" data-name="Group 67"><path id="Path_107-3" data-name="Path 107-3" class="cls-14" d="M187.6,129.3A20.71,20.71,0,0,0,166.89,150h0c0,22.26,20.71,36.74,20.71,36.74s20.71-14.48,20.71-36.74A20.71,20.71,0,0,0,187.6,129.3Z"/><path id="Path_5953" data-name="Path 5953" class="cls-21" d="M192.52,124.38a20.71,20.71,0,0,0-20.71,20.71c0,22.27,20.71,36.74,20.71,36.74s20.71-14.47,20.71-36.74A20.71,20.71,0,0,0,192.52,124.38Z"/><g id="Group_27" data-name="Group 27"><rect id="Rectangle_313" data-name="Rectangle 313" class="cls-16" x="185.02" y="143.77" width="3.13" height="7.31"/><rect id="Rectangle_314" data-name="Rectangle 314" class="cls-16" x="182.93" y="152.93" width="19.85" height="3.13"/><path id="Path_5955" data-name="Path 5955" class="cls-16" d="M192.85,134.61l-9.92,5.22v2.09h19.85v-2.09Z"/><rect id="Rectangle_315" data-name="Rectangle 315" class="cls-16" x="197.55" y="143.77" width="3.13" height="7.31"/><rect id="Rectangle_316" data-name="Rectangle 316" class="cls-16" x="191.29" y="143.77" width="3.13" height="7.31"/></g></g></g></g></svg>