<svg xmlns="http://www.w3.org/2000/svg" xmlns:xlink="http://www.w3.org/1999/xlink" width="490.371" height="500.001" viewBox="0 0 490.371 500.001"><defs><style>.a{fill:#f7ba44;}.b{fill:url(#a);}.c{opacity:0.4;fill:url(#b);}.d{fill:url(#c);}.e,.j{fill:#fff;}.e{opacity:0.3;}.f{fill:url(#d);}.g{fill:url(#e);}.h{fill:#221d53;}.i{fill:#ef5050;}.k{fill:#f27373;}.l{fill:#c5d9f1;}.m{fill:#2e53a3;}.n{fill:url(#f);}.o{fill:#e59e1e;}</style><linearGradient id="a" x1="-0.715" y1="0.533" x2="0.786" y2="0.478" gradientUnits="objectBoundingBox"><stop offset="0" stop-color="#fff" stop-opacity="0.267"/><stop offset="0.037" stop-color="#fff" stop-opacity="0.235"/><stop offset="0.206" stop-color="#fff" stop-opacity="0.106"/><stop offset="0.348" stop-color="#fff" stop-opacity="0.027"/><stop offset="0.443" stop-color="#fff" stop-opacity="0"/></linearGradient><linearGradient id="b" x1="0.972" y1="0.472" x2="-0.224" y2="0.552" gradientUnits="objectBoundingBox"><stop offset="0" stop-color="#fff"/><stop offset="0.157" stop-color="#fadb9f"/><stop offset="0.276" stop-color="#f8c35d"/><stop offset="0.331" stop-color="#f7ba44"/></linearGradient><linearGradient id="c" x1="-2.111" y1="0.553" x2="2.095" y2="0.448" xlink:href="#a"/><linearGradient id="d" x1="0.264" y1="0.514" x2="1.766" y2="0.446" xlink:href="#a"/><linearGradient id="e" x1="0.58" y1="0.759" x2="0.451" y2="0.078" xlink:href="#a"/><linearGradient id="f" x1="0.5" y1="1" x2="0.5" gradientUnits="objectBoundingBox"><stop offset="0.264" stop-color="#fff" stop-opacity="0"/><stop offset="1" stop-color="#fff"/></linearGradient></defs><g transform="translate(-984 -452)"><circle class="a" cx="59.643" cy="59.643" r="59.643" transform="translate(1161.48 452)"/><path class="b" d="M2184.153,3580.968a59.655,59.655,0,0,0-38.35-55.714l-21.294,56.367v58.991A59.645,59.645,0,0,0,2184.153,3580.968Z" transform="translate(-903.386 -3069.324)"/><path class="c" d="M2145.8,3525.254l-21.294,56.367-48.813,33.6a59.639,59.639,0,1,0,70.107-89.966Z" transform="translate(-903.386 -3069.324)"/><path class="d" d="M2124.509,3581.621l21.294-56.367a59.478,59.478,0,0,0-21.294-3.929Z" transform="translate(-903.386 -3069.324)"/><path class="e" d="M2124.509,3581.621l21.294-56.367a59.478,59.478,0,0,0-21.294-3.929Z" transform="translate(-903.386 -3069.324)"/><path class="f" d="M2124.509,3521.325a59.628,59.628,0,0,0-48.813,93.9l48.813-33.6Z" transform="translate(-903.386 -3069.324)"/><path class="g" d="M2124.509,3521.325a59.628,59.628,0,0,0-48.813,93.9l48.813-33.6Z" transform="translate(-903.386 -3069.324)"/><g transform="translate(269 -4212)"><path class="h" d="M2012.511,3592.818a20.71,20.71,0,0,0-20.71,20.711h0c0,22.265,20.7,36.739,20.71,36.744h0c.008,0,21.029-14.7,20.707-37.257a20.635,20.635,0,0,0-20.707-20.2Z" transform="translate(-1172.386 1142.675)"/><path class="i" d="M2015.8,3587.949c-11.051.845-19.516,11.085-19.05,22.159.9,21.408,20.672,35.23,20.68,35.235h0c.007-.005,20.711-14.479,20.711-36.745A20.714,20.714,0,0,0,2015.8,3587.949Z" transform="translate(-1172.386 1142.675)"/><path class="j" d="M2027.224,3612.549h-7.342v7.342h-4.895v-7.342h-7.342v-4.9h7.342v-7.342h4.895v7.342h7.342Z" transform="translate(-1172.386 1142.675)"/></g><g transform="translate(269 -4212)"><path class="h" d="M2244.852,3611.623a20.711,20.711,0,0,0-20.711,20.711h0c0,22.265,20.7,36.739,20.711,36.744h0c.008,0,21.029-14.7,20.707-37.257a20.635,20.635,0,0,0-20.707-20.2Z" transform="translate(-1172.386 1142.675)"/><path class="k" d="M2248.139,3606.754c-11.051.845-19.516,11.084-19.05,22.159.9,21.408,20.672,35.23,20.68,35.235h0c.007,0,20.711-14.479,20.711-36.745A20.714,20.714,0,0,0,2248.139,3606.754Z" transform="translate(-1172.386 1142.675)"/><path class="j" d="M2249.775,3618.376l-11.49,6.267,11.49,6.268,9.4-5.129V3633h2.089v-8.357Zm-7.312,10.634v4.178l7.312,3.99,7.312-3.99v-4.178l-7.312,3.99Z" transform="translate(-1172.386 1142.675)"/></g><g transform="translate(-903.386 -3069.324)"><path class="l" d="M2298.5,3827.868c-19.67,11.86-36.871-17.406-52.076-17.407-34.3,0-43.1,55.245-88.2,53.045-24.167-1.179-32.935-22.128-48.3-33.193-19.006-13.685-28.382,0-51.19,1.52s-32.775-23.568-63.1-16.979c-16.649,3.617-22.262,4.743-28.678,1.52-11.4-5.727-29.479-24.832-37.046-35.106-22.445-30.471-42.512-37.5-42.512-37.5h490.371C2353.083,3766.4,2321.757,3813.843,2298.5,3827.868Z"/><path class="m" d="M2246.054,3804.507c-32-1.837-50.233,50.387-84.951,44.559s-56.005-74-81.346-56.006-41.56-5.068-53.218-13.938-26.185-9.05-41.941,6.308c-21.16,20.627-39.838-4.229-49.646-14.924-5.495-5.991-22.445-26.736-22.445-26.736h442.359s-37.182,54.325-56.369,72.563C2278.4,3835.433,2266.665,3805.689,2246.054,3804.507Z"/><path class="h" d="M2054.669,3786.471c-22.555.761-27.877-38.857-59.807-23.06-19.355,9.575-30.82,8.564-38.506,7.1-14.031-2.681-39.91-26.736-39.91-26.736s168.672-14.341,175.138.041c2.138,4.755-5.841,9.316-13.824,20.624C2071.2,3773.73,2064.844,3786.128,2054.669,3786.471Z"/><path class="h" d="M2135.024,3741.73c-7.195.526-28.23-2.855-28.23-2.855s1.058,5.915.174,8.194a7.226,7.226,0,0,0-.161,1.556c.2,1.969,9.452,4.843,18.253,23.555,8.852,18.821,14.926,41.407,26.35,43.688,24.634,4.918,37.013-56.428,102.479-20.527,19.6,10.748,28.628,22.488,44.608,4.688,13.763-15.33,42.992-56.26,42.992-56.26S2185.786,3738.014,2135.024,3741.73Z"/><path class="l" d="M2298.5,3659.537c-19.67-11.86-36.871,17.406-52.076,17.406-34.3,0-43.1-55.245-88.2-53.044-24.167,1.179-32.935,22.128-48.3,33.193-19.006,13.685-28.382,0-51.19-1.52s-32.775,23.568-63.1,16.979c-16.649-3.617-22.262-4.744-28.678-1.521-11.4,5.728-29.479,24.833-37.046,35.106-22.445,30.472-42.512,37.5-42.512,37.5h490.371C2353.083,3721,2321.757,3673.562,2298.5,3659.537Z"/><path class="m" d="M2246.054,3682.9c-32,1.837-50.233-50.387-84.951-44.559s-56.005,74-81.346,56-41.56,5.069-53.218,13.938-26.185,9.05-41.941-6.308c-21.16-20.626-39.838,4.23-49.646,14.925-5.495,5.991-22.445,26.736-22.445,26.736h442.359s-37.182-54.325-56.369-72.563C2278.4,3651.972,2266.665,3681.716,2246.054,3682.9Z"/><path class="h" d="M2054.669,3700.933c-22.555-.76-27.877,38.857-59.807,23.061-19.355-9.575-30.82-8.564-38.506-7.1-14.031,2.682-39.91,26.737-39.91,26.737s168.672,14.34,175.138-.041c2.138-4.755-5.841-9.316-13.824-20.624C2071.2,3713.675,2064.844,3701.276,2054.669,3700.933Z"/><path class="h" d="M2298.5,3687.376c-15.98-17.8-25.009-6.06-44.608,4.688-65.466,35.9-77.845-25.445-102.479-20.527-11.424,2.281-17.5,24.867-26.35,43.688-11.4,24.244-23.573,21.9-15.822,25.449a118.451,118.451,0,0,0,25.786,5c50.762,3.716,206.465-2.04,206.465-2.04S2312.26,3702.706,2298.5,3687.376Z"/><path class="n" d="M2181.754,3743.635c-12.885-.148-63.976.626-73.874-3.436a123.1,123.1,0,0,1-15.875-8.645c-9.439-5.811,17.7-7.1,16.338-12.3-1.635-6.243-31.721-6.022-31.721-6.022s21.762.987,24.215,5.056-18.451,4.793-20.178,7.692,13.21,12.319,10.2,15.719c-.922,1.042-4.648,1.626-9.367,1.936H1887.386v277.69h490.371v-277.69Z"/></g><g transform="translate(269 -4212)"><path class="h" d="M2075,3650.622a20.71,20.71,0,0,0-20.709,20.71h0c0,22.267,20.709,36.741,20.709,36.741s20.709-14.474,20.709-36.741a20.709,20.709,0,0,0-20.709-20.71Z" transform="translate(-1172.386 1142.675)"/><path class="o" d="M2079.917,3645.706a20.709,20.709,0,0,0-20.709,20.709c0,22.268,20.709,36.743,20.709,36.743s20.709-14.475,20.709-36.743A20.709,20.709,0,0,0,2079.917,3645.706Z" transform="translate(-1172.386 1142.675)"/><g transform="translate(-1172.386 1142.675)"><rect class="j" width="3.134" height="7.312" transform="translate(2072.417 3665.094)"/><rect class="j" width="19.846" height="3.134" transform="translate(2070.328 3674.255)"/><path class="j" d="M2080.251,3655.932l-9.923,5.223v2.089h19.846v-2.089Z"/><rect class="j" width="3.134" height="7.312" transform="translate(2084.952 3665.094)"/><rect class="j" width="3.134" height="7.312" transform="translate(2078.684 3665.094)"/></g></g></g></svg>