<svg xmlns="http://www.w3.org/2000/svg" xmlns:xlink="http://www.w3.org/1999/xlink" viewBox="0 0 328.55 180"><defs><style>.cls-1{fill:#221d53;}.cls-2{fill:#0ea55d;}.cls-3{fill:#fff;}.cls-4{fill:#2e53a3;}.cls-5{fill:url(#linear-gradient);}.cls-6,.cls-7,.cls-8{opacity:0.5;}.cls-6{fill:url(#linear-gradient-2);}.cls-7{fill:url(#linear-gradient-3);}.cls-8{fill:url(#linear-gradient-4);}.cls-9{fill:url(#linear-gradient-5);}.cls-10{fill:#3e7cf4;}</style><linearGradient id="linear-gradient" x1="114.15" y1="103.83" x2="228.55" y2="103.83" gradientUnits="userSpaceOnUse"><stop offset="0" stop-color="#fff" stop-opacity="0.2"/><stop offset="0.2" stop-color="#fff" stop-opacity="0.11"/><stop offset="0.42" stop-color="#fff" stop-opacity="0.05"/><stop offset="0.67" stop-color="#fff" stop-opacity="0.01"/><stop offset="1" stop-color="#fff" stop-opacity="0"/></linearGradient><linearGradient id="linear-gradient-2" x1="153.76" y1="128.63" x2="199.27" y2="0.22" gradientUnits="userSpaceOnUse"><stop offset="0.05" stop-color="#fdf1da" stop-opacity="0"/><stop offset="0.99" stop-color="#fdf1da"/></linearGradient><linearGradient id="linear-gradient-3" x1="190.59" y1="125.8" x2="233.97" y2="3.39" xlink:href="#linear-gradient-2"/><linearGradient id="linear-gradient-4" x1="203.92" y1="125.29" x2="246.91" y2="3.98" xlink:href="#linear-gradient-2"/><linearGradient id="linear-gradient-5" x1="181.9" y1="81.29" x2="288.12" y2="163.66" gradientUnits="userSpaceOnUse"><stop offset="0.52" stop-color="#fff" stop-opacity="0"/><stop offset="0.96" stop-color="#fff" stop-opacity="0.2"/></linearGradient></defs><g id="Layer_2" data-name="Layer 2"><g id="Layer_1-2" data-name="Layer 1"><path id="Path_107" data-name="Path 107" class="cls-1" d="M95.11,46.9A17.7,17.7,0,0,0,77.4,64.6h0C77.4,83.64,95.1,96,95.11,96h0s18-12.57,17.7-31.85A17.64,17.64,0,0,0,95.11,46.9Z"/><path id="Path_107-2" data-name="Path 107" class="cls-2" d="M100.21,41.79A17.71,17.71,0,0,0,82.5,59.5h0c0,19,17.7,31.41,17.71,31.42h0s18-12.57,17.7-31.86a17.64,17.64,0,0,0-17.7-17.27Z"/><path class="cls-3" d="M103.08,58.79a9.71,9.71,0,0,0-2.82-6.27,10,10,0,0,0-2.92,6.27A11.1,11.1,0,0,1,100.21,61a11.57,11.57,0,0,1,2.87-2.16m-2.87,4.77A9.82,9.82,0,0,0,92,59.09c0,8.21,7.65,9.76,8.21,9.85.56-.1,8.21-1.64,8.21-9.85A9.82,9.82,0,0,0,100.21,63.56Z"/><path class="cls-4" d="M268.06,91c10.56,7.22,23,15,30.93,16.72C309.53,93.9,319.15,82,328.55,75.13v-24C301.47,73.7,282.32,85.43,268.06,91Z"/><path class="cls-4" d="M189,68.55C169,83.73,161.16,98,148.82,88c-10.33-8.39-12.8-7.17-23.67,4.23-2.1,2.2-4.51,4.77-7.35,7.74-17.57,18.32,34,41.87,34,41.87l2.2.25-.34-.15a82.05,82.05,0,0,1-13.38-6.37c-2.33-1.54-3.37-2.87-2.61-3.86,5.24-6.88,38.42-12.44,66.15-16a25,25,0,0,0,4.51-2.19c3.61-2.36,5.2-3.61,13.64-14.75,2.18-2.87,4.35-5.81,6.57-8.53C215.41,82.22,204.24,57,189,68.55Z"/><path class="cls-5" d="M189,68.55C169,83.73,161.16,98,148.82,88c-10.33-8.39-12.8-7.17-23.67,4.23-2.1,2.2-4.51,4.77-7.35,7.74-17.57,18.32,34,41.87,34,41.87l2.2.25-.34-.15a82.05,82.05,0,0,1-13.38-6.37c-2.33-1.54-3.37-2.87-2.61-3.86,5.24-6.88,38.42-12.44,66.15-16a25,25,0,0,0,4.51-2.19c3.61-2.36,5.2-3.61,13.64-14.75,2.18-2.87,4.35-5.81,6.57-8.53C215.41,82.22,204.24,57,189,68.55Z"/><polygon class="cls-6" points="135.41 136.23 185.4 0 215.01 0 165.02 136.23 135.41 136.23"/><polygon class="cls-7" points="182.07 136.23 232.06 0 240 0 190.01 136.23 182.07 136.23"/><polygon class="cls-8" points="197.2 136.23 247.19 0 251.16 0 201.18 136.23 197.2 136.23"/><path class="cls-1" d="M268.06,91c-4.86-3.32-9.31-6.52-12.74-9-11-7.74-19.16-1.07-26.77,8.23-2.22,2.72-4.39,5.66-6.57,8.53-8.44,11.14-10,12.39-13.64,14.75a25,25,0,0,1-4.51,2.19l1.13-.15-29.55,9-.71.21c-4.95,1.68-8.51,3.3-9.7,5s0,3.5,4.44,5.57a56.19,56.19,0,0,0,7,2.59c29.21,8.87,87.2,14.56,73.83,27.92,18.56-17.56,34-38.84,47.83-57l.91-1.19C291.07,106,278.62,98.19,268.06,91Z"/><path class="cls-9" d="M268.06,91c-4.86-3.32-9.31-6.52-12.74-9-11-7.74-19.16-1.07-26.77,8.23-2.22,2.72-4.39,5.66-6.57,8.53-8.44,11.14-10,12.39-13.64,14.75a25,25,0,0,1-4.51,2.19l1.13-.15-29.55,9-.71.21c-4.95,1.68-8.51,3.3-9.7,5s0,3.5,4.44,5.57a56.19,56.19,0,0,0,7,2.59c29.21,8.87,87.2,14.56,73.83,27.92,18.56-17.56,34-38.84,47.83-57l.91-1.19C291.07,106,278.62,98.19,268.06,91Z"/><path id="Path_107-3" data-name="Path 107" class="cls-1" d="M233.15,111a17.71,17.71,0,0,0-17.71,17.71h0c0,19,17.7,31.41,17.71,31.42h0s18-12.57,17.7-31.86A17.65,17.65,0,0,0,233.15,111Z"/><path id="Path_107-4" data-name="Path 107" class="cls-10" d="M238.25,105.91a17.71,17.71,0,0,0-17.71,17.71h0c0,19,17.7,31.41,17.71,31.41h0s18-12.57,17.7-31.85a17.63,17.63,0,0,0-17.7-17.27Z"/><path class="cls-3" d="M244.82,124.63h1.64v1.64h-1.64a7.09,7.09,0,0,1-3.29-.82,7.1,7.1,0,0,1-6.56,0,7.12,7.12,0,0,1-3.29.82H230v-1.64h1.64a5.73,5.73,0,0,0,3.29-1.09,5.65,5.65,0,0,0,6.56,0,5.71,5.71,0,0,0,3.29,1.09m0-4.92h1.64v1.64h-1.64a7.22,7.22,0,0,1-3.29-.82,7.16,7.16,0,0,1-6.56,0,7.25,7.25,0,0,1-3.29.82H230v-1.64h1.64a5.74,5.74,0,0,0,3.29-1.1,5.62,5.62,0,0,0,6.56,0,5.72,5.72,0,0,0,3.29,1.1m0,9.85h1.64v1.64h-1.64a7.22,7.22,0,0,1-3.29-.82,7.1,7.1,0,0,1-6.56,0,7.25,7.25,0,0,1-3.29.82H230v-1.64h1.64a5.81,5.81,0,0,0,3.29-1.09,5.65,5.65,0,0,0,6.56,0A5.78,5.78,0,0,0,244.82,129.56Z"/><path class="cls-4" d="M162.36,175.56c19.08-6.82,25.85-18.58,3.36-28.57-2.53-1.13-6.95-2.89-11.71-4.92l-2.2-.25s-51.58-23.55-34-41.87c2.84-3,5.25-5.54,7.35-7.74h0C106.92,108.83,41.21,170,0,180H143.91A107.62,107.62,0,0,0,162.36,175.56Z"/><path class="cls-1" d="M328.55,105.72V75.13c-9.4,6.89-19,18.77-29.56,32.56l-.91,1.19c-13.84,18.17-29.27,39.45-47.83,57-5.59,5.59-12.39,10.3-17.25,14.11h95.55Z"/></g></g></svg>