<svg xmlns="http://www.w3.org/2000/svg" xmlns:xlink="http://www.w3.org/1999/xlink" viewBox="0 0 347.82 202.45"><defs><style>.cls-1{fill:#fff;}.cls-2{fill:#d8e5fd;}.cls-3{fill:#221d53;}.cls-4,.cls-6{fill:none;stroke-miterlimit:10;}.cls-4{stroke:#3e7cf4;stroke-width:2.83px;}.cls-5{fill:#3e7cf4;}.cls-6{stroke:#221d53;stroke-width:2.11px;}.cls-7{fill:#073366;}.cls-8{fill:#f7ba44;}.cls-9{opacity:0.48;}.cls-10{fill:url(#linear-gradient);}.cls-11{opacity:0.63;}.cls-12{opacity:0.49;}.cls-13{fill:url(#linear-gradient-2);}</style><linearGradient id="linear-gradient" x1="139.45" y1="166.18" x2="195.86" y2="166.18" gradientUnits="userSpaceOnUse"><stop offset="0" stop-color="#fff" stop-opacity="0"/><stop offset="0.16" stop-color="#fff" stop-opacity="0.13"/><stop offset="0.44" stop-color="#fff" stop-opacity="0.33"/><stop offset="0.68" stop-color="#fff" stop-opacity="0.48"/><stop offset="0.88" stop-color="#fff" stop-opacity="0.57"/><stop offset="1" stop-color="#fff" stop-opacity="0.6"/></linearGradient><linearGradient id="linear-gradient-2" x1="88.68" y1="177.43" x2="127.59" y2="177.43" xlink:href="#linear-gradient"/></defs><g id="Layer_2" data-name="Layer 2"><g id="Layer_1-2" data-name="Layer 1"><path class="cls-1" d="M10.5,0H337.17a10,10,0,0,1,10,10V202.45a0,0,0,0,1,0,0H.5a0,0,0,0,1,0,0V10A10,10,0,0,1,10.5,0Z"/><path class="cls-2" d="M217.46,164.7c-29.57,0-50.72-49.11-86.69-41.1-33.93,7.55-41.44,56.75-72.25,71.11-18.44,8.58-40.12,4.54-58-2.22v10H347.17V58.34C293.86,86.06,263.19,164.7,217.46,164.7Z"/><path class="cls-3" d="M270.89,181.54h0a22.31,22.31,0,0,1-22.31-22.31c0-8.84,11.15-59.91,22.31-60s22.3,50.75,22.3,60A22.3,22.3,0,0,1,270.89,181.54Z"/><path class="cls-4" d="M347.17,58.34c-53.31,27.72-84,106.36-129.71,106.36-29.57,0-50.72-49.11-86.69-41.1-33.93,7.55-41.44,56.76-72.25,71.11-18.44,8.58-40.12,4.54-58-2.22"/><path id="Path_107" data-name="Path 107" class="cls-3" d="M169.63,33.42a21.47,21.47,0,0,0-21.47,21.47h0C148.16,78,169.62,93,169.63,93h0s21.8-15.24,21.46-38.62a21.38,21.38,0,0,0-21.46-20.94Z"/><path class="cls-5" d="M174.55,27.72C162.92,28.61,154,39.38,154.5,51c.95,22.53,21.75,37.07,21.76,37.08h0s21.79-15.24,21.79-38.66A21.79,21.79,0,0,0,174.55,27.72Z"/><circle class="cls-5" cx="176.27" cy="50.69" r="21.64"/><g id="Group_29" data-name="Group 29"><path id="Path_5959" data-name="Path 5959" class="cls-1" d="M189.46,54.15s0-3-5.31-3a9.94,9.94,0,0,0-1.8.15,5.15,5.15,0,0,1,2.3,3.95v.45h4.81Z"/><path id="Path_5960" data-name="Path 5960" class="cls-1" d="M184.15,49.6a2.66,2.66,0,0,0,2.65-2.66h0a2.66,2.66,0,0,0-2.65-2.66h0a2.66,2.66,0,0,0-2.66,2.66h0a2.66,2.66,0,0,0,2.66,2.66Z"/><path id="Path_5961" data-name="Path 5961" class="cls-1" d="M170.18,51.27a9.76,9.76,0,0,0-1.79-.15c-5.31,0-5.31,3-5.31,3v1.52h4.8v-.45A5.15,5.15,0,0,1,170.18,51.27Z"/><path id="Path_5962" data-name="Path 5962" class="cls-1" d="M168.39,49.6A2.66,2.66,0,0,0,171,46.94h0a2.66,2.66,0,1,0-5.31,0h0a2.66,2.66,0,0,0,2.66,2.66Z"/><path id="Path_5963" data-name="Path 5963" class="cls-1" d="M180.17,52.05a12.61,12.61,0,0,0-7.81,0c-2.73,1.08-2.73,3.17-2.73,3.17v1.9h13.28v-1.9S182.9,53.13,180.17,52.05Z"/><circle id="Ellipse_6" data-name="Ellipse 6" class="cls-1" cx="176.27" cy="46.21" r="3.32"/></g><rect class="cls-3" x="269.56" y="150.9" width="2.65" height="51.55"/><path class="cls-3" d="M76.78,180.6h0a22.31,22.31,0,0,1-22.31-22.31c0-8.84,11.16-59.91,22.31-60s22.31,50.75,22.31,60A22.31,22.31,0,0,1,76.78,180.6Z"/><rect class="cls-3" x="75.46" y="150.9" width="2.65" height="51.55"/><path class="cls-3" d="M109.14,185h0a17.79,17.79,0,0,1-17.79-17.79c0-7.05,8.89-47.76,17.79-47.85s17.78,40.46,17.78,47.85A17.79,17.79,0,0,1,109.14,185Z"/><line class="cls-6" x1="109.14" y1="161.35" x2="109.14" y2="202.45"/><polygon class="cls-7" points="169.11 119.39 235.48 119.39 267.02 152.34 201.13 152.34 169.11 119.39"/><polygon class="cls-3" points="168.97 119.25 169.11 119.39 201.13 152.34 195.53 157.94 166.45 130.17 138.75 157.94 133.99 153.18 168.97 119.25"/><polygon class="cls-3" points="267.02 152.34 267.72 152.34 262.82 157.94 195.53 157.94 201.13 152.34 267.02 152.34"/><polygon class="cls-8" points="166.73 129.91 195.53 157.24 195.86 157.91 195.86 202.45 139.45 202.45 139.45 157.59 139.45 157.24 166.73 129.91"/><g class="cls-9"><polygon class="cls-10" points="166.73 129.91 195.53 157.24 195.86 157.91 195.86 202.45 139.45 202.45 139.45 157.59 139.45 157.24 166.73 129.91"/></g><rect class="cls-8" x="195.88" y="157.59" width="66.59" height="44.86"/><g class="cls-11"><rect class="cls-1" x="195.88" y="157.59" width="66.59" height="44.86"/></g><polygon class="cls-7" points="109.14 145.16 154.91 145.16 176.67 167.88 131.22 167.88 109.14 145.16"/><polygon class="cls-3" points="109.04 145.06 109.14 145.16 131.22 167.88 127.36 171.75 107.3 152.6 88.2 171.75 84.91 168.46 109.04 145.06"/><polygon class="cls-3" points="176.67 167.88 177.15 167.88 173.77 171.75 127.36 171.75 131.22 167.88 176.67 167.88"/><polygon class="cls-8" points="107.49 152.41 127.36 171.27 127.59 171.73 127.59 202.45 88.68 202.45 88.68 171.51 88.68 171.27 107.49 152.41"/><g class="cls-12"><polygon class="cls-13" points="107.49 152.41 127.36 171.27 127.59 171.73 127.59 202.45 88.68 202.45 88.68 171.51 88.68 171.27 107.49 152.41"/></g><rect class="cls-8" x="127.6" y="171.51" width="45.93" height="30.94"/><g class="cls-11"><rect class="cls-1" x="127.6" y="171.51" width="45.93" height="30.94"/></g><rect class="cls-3" x="102.9" y="180.6" width="10.33" height="21.83"/><rect class="cls-3" x="142.04" y="180.6" width="7.45" height="10.92"/><rect class="cls-3" x="155.02" y="180.6" width="7.45" height="10.92"/><rect class="cls-3" x="204.31" y="170.77" width="10.81" height="15.83"/><rect class="cls-3" x="245.26" y="170.77" width="10.81" height="15.83"/><rect class="cls-3" x="222.7" y="170.77" width="14.98" height="31.66"/></g></g></svg>