<svg xmlns="http://www.w3.org/2000/svg" xmlns:xlink="http://www.w3.org/1999/xlink" viewBox="0 0 347.82 202.45"><defs><style>.cls-1,.cls-13,.cls-8{fill:#fff;}.cls-17,.cls-2,.cls-4{fill:none;}.cls-2{stroke:#6ec99e;stroke-width:2.83px;}.cls-17,.cls-2{stroke-miterlimit:10;}.cls-3{fill:#041f3d;}.cls-5{fill:#010a14;}.cls-6{fill:#cdd6e0;}.cls-7{fill:#073366;}.cls-8{opacity:0.5;}.cls-9{fill:#9cadc2;}.cls-10,.cls-13{opacity:0.7;}.cls-10{fill:url(#linear-gradient);}.cls-11{fill:url(#linear-gradient-2);}.cls-12{fill:#b8c8d8;}.cls-14{fill:#395c85;}.cls-15{fill:#221d53;}.cls-16{fill:#0ea55d;}.cls-17{stroke:#0ea55d;stroke-width:2.83px;}</style><linearGradient id="linear-gradient" x1="157.23" y1="185.01" x2="261.25" y2="185.01" gradientUnits="userSpaceOnUse"><stop offset="0" stop-color="#fff"/><stop offset="1" stop-color="#fff" stop-opacity="0.2"/></linearGradient><linearGradient id="linear-gradient-2" x1="216.39" y1="189.15" x2="240.08" y2="189.15" gradientUnits="userSpaceOnUse"><stop offset="0.06" stop-color="#9cadc2"/><stop offset="0.84" stop-color="#9cadc2" stop-opacity="0"/></linearGradient></defs><g id="Layer_2" data-name="Layer 2"><g id="Layer_1-2" data-name="Layer 1"><path class="cls-1" d="M10.5,0H337.17a10,10,0,0,1,10,10V202.45a0,0,0,0,1,0,0H.5a0,0,0,0,1,0,0V10A10,10,0,0,1,10.5,0Z"/><path class="cls-2" d="M347.17,58.32c-39.51,20.55-66.58,69.06-96.57,92.8-10.47,8.3-21.3,13.57-33.14,13.57-18.48,0-33.67-19.19-51.25-31.62-10.54-7.46-22-12.49-35.44-9.49-33.93,7.56-41.44,56.76-72.25,71.11-18.44,8.59-40.12,4.55-58-2.22"/><path class="cls-3" d="M105.3,184.37h0a17.46,17.46,0,0,0,17.46-17.46c0-6.92-8.73-46.89-17.46-47s-17.46,39.71-17.46,47A17.46,17.46,0,0,0,105.3,184.37Z"/><path class="cls-2" d="M166.21,133.07c-10.54-7.46-22-12.49-35.44-9.49-33.93,7.56-41.44,56.76-72.25,71.11-18.44,8.59-40.12,4.55-58-2.22"/><rect class="cls-3" x="104.27" y="161.13" width="2.08" height="40.35"/><path class="cls-3" d="M88.89,187.84h0a13.92,13.92,0,0,0,13.92-13.92c0-5.52-7-37.39-13.92-37.45S75,168.13,75,173.92A13.92,13.92,0,0,0,88.89,187.84Z"/><rect class="cls-3" x="88.07" y="169.31" width="1.65" height="32.17"/><path class="cls-3" d="M243.07,112.56l-25.5-14.72-5.48,9-21,4-1.55-2.7,25.49-14.72L210,84.21,217,64h3.12V93.46l10.54.25,14,16.15Z"/><polygon class="cls-4" points="215.34 101.52 217.57 97.84 218.21 98.21 218.45 97.81 219.23 98.27 219.27 98.82 243.07 112.56 244.62 109.86 230.65 93.71 220.11 93.46 220.11 64.02 216.99 64.02 209.99 84.21 215.05 93.46 189.56 108.18 191.11 110.88 212.09 106.84 214.77 102.45 214.82 101.62 215.34 101.52"/><polygon class="cls-3" points="214.82 101.62 214.77 102.45 215.34 101.52 214.82 101.62"/><polygon class="cls-3" points="218.45 97.81 218.21 98.21 219.27 98.82 219.23 98.27 218.45 97.81"/><polygon class="cls-3" points="214.43 107.73 210.34 171.35 223.62 171.35 219.44 101.76 218.42 101.17 214.43 107.73"/><polygon class="cls-1" points="215.34 101.52 216.31 101.33 218.21 98.21 217.57 97.84 215.34 101.52"/><path class="cls-3" d="M271.46,127.07l-20.38-11.76-4.38,7.2-16.76,3.22-1.24-2.16,20.37-11.76-4-7.39,5.59-16.13h2.49v23.52l8.42.2,11.17,12.9Z"/><polygon class="cls-4" points="249.3 118.25 251.09 115.31 251.59 115.61 251.78 115.29 252.41 115.65 252.44 116.09 271.46 127.07 272.7 124.91 261.53 112.01 253.11 111.81 253.11 88.29 250.62 88.29 245.03 104.42 249.07 111.81 228.7 123.57 229.94 125.73 246.7 122.51 248.84 118.99 248.89 118.33 249.3 118.25"/><polygon class="cls-3" points="248.89 118.33 248.84 118.99 249.3 118.25 248.89 118.33"/><polygon class="cls-3" points="251.78 115.29 251.59 115.61 252.44 116.09 252.41 115.65 251.78 115.29"/><polygon class="cls-3" points="248.57 123.21 245.31 174.05 255.92 174.05 252.58 118.44 251.76 117.97 248.57 123.21"/><polygon class="cls-5" points="199.56 154.88 244.65 154.88 263.78 173.87 218.69 173.87 199.56 154.88"/><ellipse class="cls-6" cx="206.8" cy="151.54" rx="1.2" ry="1.81" transform="translate(-7.65 292.05) rotate(-69.47)"/><polygon class="cls-7" points="221.75 166.39 206.8 151.54 246.81 151.54 261.76 166.39 221.75 166.39"/><polygon class="cls-8" points="231.68 167.4 238.6 150.62 247.47 150.52 263.71 167.16 244.44 167.4 231.68 167.4"/><path class="cls-6" d="M266.73,167.82,248,149.23a.67.67,0,0,0-.44-.18H202.26a.62.62,0,0,0-.43,1.07l18.71,18.58a.62.62,0,0,0,.44.18H266.3A.62.62,0,0,0,266.73,167.82ZM249.84,166a2.38,2.38,0,0,0-1-.69,2.55,2.55,0,0,0-1.13-.15l-5.21-5.17a1,1,0,0,0,.13-.23.79.79,0,0,0,.05-.3h10.18a2.43,2.43,0,0,0,1,.68,2.36,2.36,0,0,0,1.09.15l5.28,5.25a.71.71,0,0,0-.16.26.45.45,0,0,0,0,.2Zm-13.34,0a2.38,2.38,0,0,0-1-.69,2.47,2.47,0,0,0-1.18-.14L229.14,160a.71.71,0,0,0,.16-.26.79.79,0,0,0,0-.3h10.1a2.33,2.33,0,0,0,1.08.79,2.28,2.28,0,0,0,1.13.14l5.21,5.17a1.16,1.16,0,0,0-.14.24,1.18,1.18,0,0,0,0,.2Zm-13.33,0a2.5,2.5,0,0,0-2.08-.84l-5.24-5.2a.82.82,0,0,0,.12-.2,1,1,0,0,0,0-.3h10.1a2.38,2.38,0,0,0,1.08.79,2.48,2.48,0,0,0,1.08.15l5.24,5.2a.82.82,0,0,0-.12.2,1.18,1.18,0,0,0,0,.2Zm8.89-14a2.53,2.53,0,0,0,1,.68,2.43,2.43,0,0,0,1,.15l5.36,5.33a.81.81,0,0,0-.19.29.31.31,0,0,0,0,.08H228.93a2.53,2.53,0,0,0-.9-.57,2.32,2.32,0,0,0-1.08-.15l-5.34-5.31a1,1,0,0,0,.22-.31,1.62,1.62,0,0,0,0-.19Zm13.34,0a2.49,2.49,0,0,0,2.07.83l5.29,5.25a.9.9,0,0,0-.17.26,1.62,1.62,0,0,0,0,.19H242.27a2.62,2.62,0,0,0-.9-.57,2.55,2.55,0,0,0-1-.16L235,152.46a1.07,1.07,0,0,0,.19-.28,1.62,1.62,0,0,0,0-.19Zm-25.68.68a2.63,2.63,0,0,0,1,.16l5.4,5.35a.9.9,0,0,0-.17.26s0,.06,0,.08H215.6a2.62,2.62,0,0,0-.9-.57,2.36,2.36,0,0,0-1-.16l-5.84-5.8h10.86A2.45,2.45,0,0,0,219.72,152.67Z"/><polygon class="cls-5" points="216.38 175.87 261.47 175.87 263.78 173.87 218.69 173.87 216.38 175.87"/><polygon class="cls-5" points="199.56 154.88 180.44 173.87 182.74 175.87 199.56 159.16 216.38 175.87 218.69 173.87 199.56 154.88"/><rect class="cls-9" x="216.38" y="175.87" width="45.09" height="26.57"/><rect class="cls-9" x="157.23" y="167.57" width="59.16" height="34.86"/><polygon class="cls-10" points="216.39 175.87 216.39 167.57 157.23 167.57 157.23 202.44 216.16 202.44 216.39 202.44 261.25 202.44 261.25 175.87 216.39 175.87"/><rect class="cls-11" x="216.39" y="175.87" width="23.69" height="26.57"/><polygon class="cls-3" points="135.15 140.04 194.31 140.04 219.41 164.95 160.25 164.95 135.15 140.04"/><polygon class="cls-5" points="157.23 167.57 216.39 167.57 219.41 164.95 160.25 164.95 157.23 167.57"/><polygon class="cls-3" points="135.15 140.04 110.06 164.95 113.08 167.57 135.15 145.66 157.23 167.57 160.25 164.95 135.15 140.04"/><polygon class="cls-12" points="113.08 167.57 113.08 202.44 157.23 202.44 157.23 167.57 135.15 145.66 113.08 167.57"/><rect class="cls-13" x="120.64" y="179.98" width="10.05" height="10.05" transform="translate(251.34 370.01) rotate(180)"/><rect class="cls-13" x="138.05" y="179.98" width="10.05" height="22.46" transform="translate(286.15 382.42) rotate(180)"/><rect class="cls-3" x="140.17" y="179.98" width="9.55" height="22.46" transform="translate(289.89 382.42) rotate(180)"/><rect class="cls-3" x="122.76" y="179.98" width="7.93" height="10.05" transform="translate(253.46 370.01) rotate(180)"/><rect class="cls-3" x="227.19" y="185.32" width="7.66" height="7.66"/><rect class="cls-3" x="244.65" y="185.32" width="7.66" height="7.66"/><rect class="cls-14" x="244.65" y="185.32" width="6.04" height="7.66"/><rect class="cls-14" x="227.19" y="185.32" width="6.04" height="7.66"/><rect class="cls-3" x="171.41" y="179.98" width="10.05" height="10.05"/><rect class="cls-3" x="194.32" y="179.98" width="10.05" height="10.05"/><rect class="cls-14" x="194.32" y="179.98" width="7.93" height="10.05"/><rect class="cls-14" x="171.41" y="179.98" width="7.93" height="10.05"/><ellipse class="cls-6" cx="144.1" cy="137.13" rx="1.51" ry="2.27" transform="translate(-34.86 223.97) rotate(-69.47)"/><polygon class="cls-7" points="162.89 155.78 144.1 137.13 194.37 137.13 213.16 155.78 162.89 155.78"/><polygon class="cls-8" points="175.36 157.06 184.06 135.97 195.2 135.85 198.81 139.1 191.4 157.06 175.36 157.06"/><polygon class="cls-8" points="169.32 157.06 178.02 135.97 181.39 135.97 172.69 157.06 169.32 157.06"/><path class="cls-6" d="M219.41,157.58l-23.52-23.35a.76.76,0,0,0-.55-.23H138.4a.78.78,0,0,0-.55,1.34l23.52,23.35a.78.78,0,0,0,.55.22h56.94A.78.78,0,0,0,219.41,157.58Zm-21.23-2.35a3.17,3.17,0,0,0-2.66-1L189,147.67a1,1,0,0,0,.17-.28,1.2,1.2,0,0,0,.05-.38H202a3.14,3.14,0,0,0,2.61,1.05l6.64,6.6a1,1,0,0,0-.21.32,1,1,0,0,0-.05.25Zm-16.76,0a3.15,3.15,0,0,0-2.73-1l-6.52-6.48a1,1,0,0,0,.21-.32,1,1,0,0,0,.05-.38h12.69a2.91,2.91,0,0,0,1.36,1,3.05,3.05,0,0,0,1.43.19l6.54,6.49a1.11,1.11,0,0,0-.17.3,1,1,0,0,0-.06.25Zm-16.76,0a3,3,0,0,0-1.24-.86,3.09,3.09,0,0,0-1.37-.2l-6.57-6.53a1,1,0,0,0,.14-.25,1.21,1.21,0,0,0,.06-.38h12.68a2.91,2.91,0,0,0,1.36,1,3,3,0,0,0,1.36.2l6.58,6.53a.89.89,0,0,0-.14.25.7.7,0,0,0-.05.25Zm11.18-17.54a3.14,3.14,0,0,0,1.25.85,3.06,3.06,0,0,0,1.3.2l6.74,6.69a.9.9,0,0,0-.25.36s0,.08,0,.11h-13a3.14,3.14,0,0,0-1.13-.72,3,3,0,0,0-1.36-.19l-6.71-6.67a.92.92,0,0,0,.27-.4.86.86,0,0,0,.05-.23Zm16.76,0a3.11,3.11,0,0,0,1.24.85,3,3,0,0,0,1.36.19l6.65,6.6a1.15,1.15,0,0,0-.21.33,1,1,0,0,0,0,.24H188.67a3.14,3.14,0,0,0-1.13-.72,3,3,0,0,0-1.29-.2l-6.75-6.7a1.08,1.08,0,0,0,.24-.36.86.86,0,0,0,0-.23Zm-32.27.85a3,3,0,0,0,1.23.2l6.77,6.73a1.36,1.36,0,0,0-.21.32s0,.08,0,.11H155.15a3.21,3.21,0,0,0-2.36-.92l-7.35-7.29h13.65A3,3,0,0,0,160.33,138.54Z"/><path id="Path_107" data-name="Path 107" class="cls-15" d="M122.45,35.22a21.21,21.21,0,0,0-21.21,21.21h0c0,22.81,21.2,37.64,21.21,37.64h0S144,79,143.66,55.91a21.13,21.13,0,0,0-21.21-20.69Z"/><path id="Path_107-2" data-name="Path 107" class="cls-16" d="M128.56,29.1a21.22,21.22,0,0,0-21.21,21.22h0c0,22.81,21.21,37.63,21.21,37.64h0S150.11,72.9,149.78,49.8a21.15,21.15,0,0,0-21.22-20.7Z"/><path class="cls-1" d="M129.3,58.17l1.87-3.36V55.9h3.93l-2.46-4.27,3.93-2.28,1.72,3h0a2.24,2.24,0,0,1,.08,2.4l-2.63,4.56a2.23,2.23,0,0,1-2,1.14h-2.62v1.09Zm-6,2.28a2.31,2.31,0,0,1-2-1.14l-2.63-4.54a2.28,2.28,0,0,1,.09-2.41h0l1.24-2.14-.95-.54,3.84,0,2,3.3-.94-.54-2,3.41H127v4.54h-3.62Zm-1.68-13.88,1.72-3h0a2.27,2.27,0,0,1,2-1.28h5.25a2.26,2.26,0,0,1,2,1.26v0L134,45.72l.94-.55-2,3.29-3.85.07L130,48l-2-3.42-2.45,4.27Z"/><path class="cls-17" d="M347.17,58.32c-39.51,20.55-66.58,69.06-96.57,92.8"/></g></g></svg>