<svg xmlns="http://www.w3.org/2000/svg" xmlns:xlink="http://www.w3.org/1999/xlink" viewBox="0 0 346.67 202.45"><defs><style>.cls-1{fill:#fff;}.cls-2{fill:#f6af9d;}.cls-3{opacity:0.67;fill:url(#linear-gradient);}.cls-4{fill:#052244;}.cls-5{fill:url(#linear-gradient-2);}.cls-6{fill:url(#linear-gradient-3);}.cls-7{fill:url(#linear-gradient-4);}.cls-8{fill:url(#linear-gradient-5);}.cls-9{fill:url(#linear-gradient-6);}.cls-10{fill:url(#linear-gradient-7);}.cls-11,.cls-15{fill:#fcba19;}.cls-12{fill:#fad68f;}.cls-13{fill:#031429;}.cls-14{fill:#fdf1da;}.cls-15{opacity:0.5;}</style><linearGradient id="linear-gradient" x1="174.47" y1="117.16" x2="161.56" y2="103.34" gradientUnits="userSpaceOnUse"><stop offset="0.5" stop-color="#f3957c"/><stop offset="0.84" stop-color="#f3957c" stop-opacity="0"/></linearGradient><linearGradient id="linear-gradient-2" x1="225.37" y1="97.85" x2="158.01" y2="112.92" gradientUnits="userSpaceOnUse"><stop offset="0.38" stop-color="#fff" stop-opacity="0"/><stop offset="0.7" stop-color="#fff" stop-opacity="0.5"/></linearGradient><linearGradient id="linear-gradient-3" x1="826.26" y1="143.74" x2="854.25" y2="167" gradientTransform="matrix(-1, 0, 0, 1, 966.67, 0)" gradientUnits="userSpaceOnUse"><stop offset="0.38" stop-color="#fff" stop-opacity="0"/><stop offset="0.7" stop-color="#fff" stop-opacity="0.6"/></linearGradient><linearGradient id="linear-gradient-4" x1="840.58" y1="171.93" x2="810.54" y2="141.71" gradientTransform="matrix(-1, 0, 0, 1, 966.67, 0)" gradientUnits="userSpaceOnUse"><stop offset="0.3" stop-color="#fff" stop-opacity="0.6"/><stop offset="0.62" stop-color="#fff" stop-opacity="0"/></linearGradient><linearGradient id="linear-gradient-5" x1="207.48" y1="143.74" x2="235.47" y2="167" gradientTransform="matrix(1, 0, 0, 1, 0, 0)" xlink:href="#linear-gradient-3"/><linearGradient id="linear-gradient-6" x1="221.8" y1="171.93" x2="191.76" y2="141.71" gradientTransform="matrix(1, 0, 0, 1, 0, 0)" xlink:href="#linear-gradient-4"/><linearGradient id="linear-gradient-7" x1="149.24" y1="155.74" x2="198.65" y2="106.33" gradientUnits="userSpaceOnUse"><stop offset="0.31" stop-color="#ef5050"/><stop offset="1" stop-color="#f27373"/></linearGradient></defs><g id="Layer_2" data-name="Layer 2"><g id="Layer_1-2" data-name="Layer 1"><path class="cls-1" d="M10,0H336.67a10,10,0,0,1,10,10V202.45a0,0,0,0,1,0,0H0a0,0,0,0,1,0,0V10A10,10,0,0,1,10,0Z"/><path class="cls-2" d="M112.81,100.47c-12,12.42-11.27,33.87-5.2,48.43A72,72,0,0,0,127,174.77s7.72-2.71,1.11-13.87c-1.45-2.44-10.66-3.68-14.38-20.72-.46-2.11,20.16,1.11,28.17-5.5,5.59-4.62-1.82-19.17,2.16-22,7.41-5.23,22.57-.6,22.66-.56,9.64,4.47,15.12-.47,15.12-.47S137.14,75.25,112.81,100.47Z"/><polygon class="cls-3" points="157.18 110.13 167.73 102.22 176.1 107.42 166.05 111.67 157.18 110.13"/><path class="cls-2" d="M112.43,133.17l14.66-2.45s1.47,7.9,1.91,10.36c1.23,6.9,5.37,14.66,14.65,24.51s3,15,3,15C133.88,173,113.67,160.54,112.43,133.17Z"/><path class="cls-2" d="M121.92,131.3c7.23,36.36,38.07,46.54,41.12,48.25,0,0,8.17-6.49-6-16.55-17.57-12.48-16.54-35.62-16.54-35.62Z"/><path class="cls-4" d="M293.69,96.71a20.87,20.87,0,0,1-13.48-4.95L255.68,71.1a16.05,16.05,0,0,1,2.8-26.46l1,1.88a13.92,13.92,0,0,0-2.43,23l24.53,20.66a18.83,18.83,0,0,0,30.85-16.43L309,41.82A13.93,13.93,0,0,0,288.59,31l-1-1.88A16.06,16.06,0,0,1,311.11,41.6l3.44,31.88a21,21,0,0,1-20.86,23.23Z"/><rect class="cls-4" x="257.72" y="41.7" width="4.25" height="6.82" transform="translate(9.28 127.41) rotate(-28.03)"/><rect class="cls-4" x="285.09" y="27.13" width="4.25" height="6.82" transform="translate(19.33 138.53) rotate(-28.03)"/><path class="cls-4" d="M50.59,189.08l-.11-2.83a46.43,46.43,0,0,0,27.46-10.5c9.43-7.78,15.11-19.16,17.86-35.81.28-1.67.54-3.36.8-5.06,1.88-12.21,3.83-24.83,12.3-34.48,10.56-12,28.48-14.65,47.94-7,15.9,6.26,28.78,18,40.33,29.65l2.71,2.75C217.76,144,238,164.61,265.44,164.31c19.94-.21,37.09-11.64,42.68-28.45,4.1-12.35,2.31-27.09-5-41.52l2.52-1.28c7.69,15.11,9.53,30.62,5.19,43.69-6,18-24.19,30.18-45.34,30.4h-.6c-28.31,0-48.86-20.89-67-39.34l-2.71-2.75c-11.33-11.48-23.94-22.93-39.35-29-6.85-2.7-30.35-10.24-44.77,6.21-7.93,9-9.81,21.24-11.63,33.05-.26,1.71-.52,3.41-.8,5.08-1.81,10.93-5.73,26.71-18.86,37.54A49.23,49.23,0,0,1,50.59,189.08Z"/><path class="cls-2" d="M235.08,100.47c12,12.42,11.27,33.87,5.2,48.43a72,72,0,0,1-19.4,25.87s-7.71-2.71-1.11-13.87c1.45-2.44,10.67-3.68,14.38-20.72.46-2.11-20.16,1.11-28.16-5.5-5.6-4.62,1.81-19.17-2.16-22-7.41-5.23-22.58-.6-22.66-.56-9.64,4.47-15.12-.47-15.12-.47S210.74,75.25,235.08,100.47Z"/><path class="cls-5" d="M203.83,112.7c-7.41-5.23-22.44-.37-22.52-.33-9.64,4.46-15.26-.7-15.26-.7s44.7-36.42,69-11.2"/><path class="cls-2" d="M235.46,133.17l-14.66-2.45s-1.47,7.9-1.91,10.36c-1.23,6.9-5.37,14.66-14.65,24.51s-3,15-3,15C214,173,234.22,160.54,235.46,133.17Z"/><path class="cls-2" d="M226,131.3c-7.23,36.36-38.07,46.54-41.12,48.25,0,0-8.17-6.49,6-16.55,17.57-12.48,16.54-35.62,16.54-35.62Z"/><path class="cls-6" d="M111.56,125.62l15.53,5.1s1.47,7.9,1.91,10.36c1.23,6.9,5.37,14.66,14.65,24.51s3,15,3,15C133.88,173,112.81,161.57,111.56,125.62Z"/><path class="cls-7" d="M121.92,131.3c7.23,36.36,38.07,46.54,41.12,48.25,0,0,8.17-6.49-6-16.55-17.57-12.48-16.54-35.62-16.54-35.62Z"/><path class="cls-8" d="M236.33,125.62l-15.53,5.1s-1.47,7.9-1.91,10.36c-1.23,6.9-5.37,14.66-14.65,24.51s-3,15-3,15C214,173,235.08,161.57,236.33,125.62Z"/><path class="cls-9" d="M226,131.3c-7.23,36.36-38.07,46.54-41.12,48.25,0,0-8.17-6.49,6-16.55,17.57-12.48,16.54-35.62,16.54-35.62Z"/><path class="cls-10" d="M137.06,125.46c1.68-22.67,31.15-21,36.89-4,5.73-17,35.2-18.7,36.88,4,1.07,14.58-7.65,26-12.1,30.18-10.45,9.8-24.78,14.07-24.78,14.07s-14.34-4.27-24.79-14.07C144.72,151.48,136,140,137.06,125.46Z"/><circle class="cls-11" cx="41.26" cy="187.02" r="12.99"/><circle class="cls-4" cx="41.26" cy="188.43" r="7.18"/><circle class="cls-12" cx="41.26" cy="185.6" r="7.18"/><polygon class="cls-1" points="200.19 125.3 194.72 125.3 194.72 119.83 190.56 119.83 190.56 125.3 185.09 125.3 185.09 129.46 190.56 129.46 190.56 134.93 194.72 134.93 194.72 129.46 200.19 129.46 200.19 125.3"/><path class="cls-11" d="M315.6,73.37l-4.22.45a17.78,17.78,0,0,1-29.12,15.5l-2.74,3.26A21.94,21.94,0,0,0,303,95.71a63.46,63.46,0,0,1,6.37,21.92l4.24-.39a68,68,0,0,0-6.94-23.69A21.89,21.89,0,0,0,315.6,73.37Z"/><polygon class="cls-13" points="278.12 90 279.56 88.44 281.58 90.14 280.21 91.76 278.12 90"/><rect class="cls-13" x="312.31" y="71.46" width="2.13" height="2.14" transform="translate(-5.97 34.03) rotate(-6.16)"/><path class="cls-14" d="M192.64,26.53l2.85,7.75a22.42,22.42,0,0,0,13.26,13.26l7.76,2.86-7.76,2.86a22.42,22.42,0,0,0-13.26,13.26l-2.85,7.75-2.86-7.75a22.39,22.39,0,0,0-13.26-13.26l-7.75-2.86,7.75-2.86a22.39,22.39,0,0,0,13.26-13.26Z"/><path class="cls-15" d="M192.64,39.58l1.29,3.51a10.14,10.14,0,0,0,6,6l3.52,1.3-3.52,1.29a10.19,10.19,0,0,0-6,6l-1.29,3.52-1.3-3.52a10.14,10.14,0,0,0-6-6l-3.51-1.29,3.51-1.3a10.09,10.09,0,0,0,6-6Z"/><path class="cls-14" d="M62.73,84.45l2.23,6A17.51,17.51,0,0,0,75.3,100.85l6,2.23-6,2.23A17.49,17.49,0,0,0,65,115.65l-2.23,6-2.23-6a17.48,17.48,0,0,0-10.35-10.34l-6-2.23,6-2.23A17.5,17.5,0,0,0,60.5,90.5Z"/><path class="cls-15" d="M62.73,94.63l1,2.75a7.93,7.93,0,0,0,4.69,4.69l2.74,1-2.74,1a7.88,7.88,0,0,0-4.69,4.69l-1,2.74-1-2.74A7.93,7.93,0,0,0,57,104.09l-2.75-1,2.75-1a8,8,0,0,0,4.69-4.69Z"/></g></g></svg>