<svg xmlns="http://www.w3.org/2000/svg" xmlns:xlink="http://www.w3.org/1999/xlink" viewBox="0 0 346.67 202.45"><defs><style>.cls-1{fill:#fff;}.cls-2{fill:#221d53;}.cls-3{fill:#0ea55d;}.cls-4{fill:#2e53a3;}.cls-5{fill:url(#linear-gradient);}.cls-6{fill:url(#linear-gradient-2);}.cls-7{fill:#3e7cf4;}.cls-8{fill:url(#linear-gradient-3);}.cls-9{fill:url(#linear-gradient-4);}.cls-10{fill:url(#linear-gradient-5);}</style><linearGradient id="linear-gradient" x1="89.79" y1="96.58" x2="226.86" y2="96.58" gradientUnits="userSpaceOnUse"><stop offset="0" stop-color="#fff" stop-opacity="0.2"/><stop offset="0.2" stop-color="#fff" stop-opacity="0.11"/><stop offset="0.42" stop-color="#fff" stop-opacity="0.05"/><stop offset="0.67" stop-color="#fff" stop-opacity="0.01"/><stop offset="1" stop-color="#fff" stop-opacity="0"/></linearGradient><linearGradient id="linear-gradient-2" x1="170.96" y1="69.58" x2="298.22" y2="168.27" gradientUnits="userSpaceOnUse"><stop offset="0.52" stop-color="#fff" stop-opacity="0"/><stop offset="0.96" stop-color="#fff" stop-opacity="0.2"/></linearGradient><linearGradient id="linear-gradient-3" x1="131.88" y1="122.61" x2="177.38" y2="-5.8" gradientUnits="userSpaceOnUse"><stop offset="0.05" stop-color="#fdf1da" stop-opacity="0"/><stop offset="0.99" stop-color="#fdf1da"/></linearGradient><linearGradient id="linear-gradient-4" x1="168.84" y1="119.83" x2="212.23" y2="-2.58" xlink:href="#linear-gradient-3"/><linearGradient id="linear-gradient-5" x1="182.15" y1="119.3" x2="225.14" y2="-2" xlink:href="#linear-gradient-3"/></defs><g id="Layer_2" data-name="Layer 2"><g id="Layer_1-2" data-name="Layer 1"><path class="cls-1" d="M10,0H336.67a10,10,0,0,1,10,10V202.45a0,0,0,0,1,0,0H0a0,0,0,0,1,0,0V10A10,10,0,0,1,10,0Z"/><path id="Path_107" data-name="Path 107" class="cls-2" d="M67,28.37A21.22,21.22,0,0,0,45.76,49.59h0C45.76,72.4,67,87.22,67,87.23h0S88.52,72.17,88.19,49.06A21.14,21.14,0,0,0,67,28.37Z"/><path id="Path_107-2" data-name="Path 107" class="cls-3" d="M73.09,22.26A21.22,21.22,0,0,0,51.87,43.47h0c0,22.81,21.21,37.64,21.22,37.64h0S94.63,66.05,94.3,43A21.13,21.13,0,0,0,73.09,22.26Z"/><path class="cls-1" d="M76.53,42.62a11.73,11.73,0,0,0-3.38-7.51,12,12,0,0,0-3.5,7.51,13.47,13.47,0,0,1,3.44,2.59,13.76,13.76,0,0,1,3.44-2.59m-3.44,5.72A11.78,11.78,0,0,0,63.25,43c0,9.84,9.17,11.7,9.84,11.81.67-.12,9.83-2,9.83-11.81A11.75,11.75,0,0,0,73.09,48.34Z"/><path class="cls-4" d="M94.16,91.94c3.41-3.56,6.3-6.64,8.81-9.28h0C80.23,103.4,48.74,149,0,155.92v31.53s96.63,13.29,147.55-4.92c22.85-8.17,31-22.27,4-34.23-3-1.35-8.33-3.46-14-5.9l-2.63-.3S73.12,113.88,94.16,91.94Z"/><path class="cls-4" d="M274.19,81.18c12.66,8.65,27.57,18,37.06,20,12.63-16.52,24.16-30.76,35.42-39V33.38C314.23,60.49,291.27,74.54,274.19,81.18Z"/><path class="cls-4" d="M179.51,54.32c-24,18.18-33.4,35.28-48.18,23.28C119,67.55,116,69,103,82.66c-2.51,2.64-5.4,5.72-8.81,9.28-21,21.94,40.75,50.16,40.75,50.16l2.63.3-.4-.17c-6.93-2.77-12.63-5.39-16-7.64-2.8-1.84-4-3.43-3.13-4.63,6.28-8.23,46-14.9,79.26-19.13a28.94,28.94,0,0,0,5.4-2.63c4.33-2.82,6.23-4.32,16.35-17.67,2.6-3.44,5.21-7,7.87-10.22C211.12,70.7,197.73,40.51,179.51,54.32Z"/><path class="cls-5" d="M179.51,54.32c-24,18.18-33.4,35.28-48.18,23.28C119,67.55,116,69,103,82.66c-2.51,2.64-5.4,5.72-8.81,9.28-21,21.94,40.75,50.16,40.75,50.16l2.63.3-.4-.17c-6.93-2.77-12.63-5.39-16-7.64-2.8-1.84-4-3.43-3.13-4.63,6.28-8.23,46-14.9,79.26-19.13a28.94,28.94,0,0,0,5.4-2.63c4.33-2.82,6.23-4.32,16.35-17.67,2.6-3.44,5.21-7,7.87-10.22C211.12,70.7,197.73,40.51,179.51,54.32Z"/><path class="cls-2" d="M274.19,81.18c-5.82-4-11.16-7.81-15.27-10.72-13.12-9.28-23-1.28-32.06,9.85-2.66,3.26-5.27,6.78-7.87,10.22-10.12,13.35-12,14.85-16.35,17.67a28.94,28.94,0,0,1-5.4,2.63l1.35-.17-35.4,10.78-.86.24c-5.93,2-10.19,4-11.61,6s0,4.2,5.31,6.67a64.16,64.16,0,0,0,8.37,3.11c35,10.63,104.47,17.44,88.46,33.46,22.24-21,40.72-46.55,57.3-68.31l1.09-1.43C301.76,99.16,286.85,89.83,274.19,81.18Z"/><path class="cls-6" d="M274.19,81.18c-5.82-4-11.16-7.81-15.27-10.72-13.12-9.28-23-1.28-32.06,9.85-2.66,3.26-5.27,6.78-7.87,10.22-10.12,13.35-12,14.85-16.35,17.67a28.94,28.94,0,0,1-5.4,2.63l1.35-.17-35.4,10.78-.86.24c-5.93,2-10.19,4-11.61,6s0,4.2,5.31,6.67a64.16,64.16,0,0,0,8.37,3.11c35,10.63,104.47,17.44,88.46,33.46,22.24-21,40.72-46.55,57.3-68.31l1.09-1.43C301.76,99.16,286.85,89.83,274.19,81.18Z"/><path class="cls-2" d="M311.25,101.21l-1.09,1.43c-16.58,21.76-35.06,47.27-57.3,68.31-21,21-56.15,31.5,10.51,31.5h83.3V62.21C335.41,70.45,323.88,84.69,311.25,101.21Z"/><path id="Path_107-3" data-name="Path 107" class="cls-2" d="M221.58,119.63a21.22,21.22,0,0,0-21.22,21.22h0c0,22.8,21.21,37.63,21.22,37.63h0s21.54-15.06,21.21-38.16a21.13,21.13,0,0,0-21.21-20.69Z"/><path id="Path_107-4" data-name="Path 107" class="cls-7" d="M227.69,113.52a21.21,21.21,0,0,0-21.21,21.21h0c0,22.81,21.21,37.63,21.21,37.64h0s21.54-15.06,21.21-38.16a21.13,21.13,0,0,0-21.21-20.69Z"/><path class="cls-1" d="M235.56,136h2v2h-2a8.53,8.53,0,0,1-3.93-1,8.54,8.54,0,0,1-7.87,0,8.61,8.61,0,0,1-3.94,1h-2v-2h2a6.91,6.91,0,0,0,3.94-1.31,6.77,6.77,0,0,0,7.87,0,6.88,6.88,0,0,0,3.93,1.31m0-5.91h2v2h-2a8.53,8.53,0,0,1-3.93-1,8.54,8.54,0,0,1-7.87,0,8.61,8.61,0,0,1-3.94,1h-2v-2h2a6.9,6.9,0,0,0,3.94-1.3,6.77,6.77,0,0,0,7.87,0,6.87,6.87,0,0,0,3.93,1.3m0,11.81h2v2h-2a8.55,8.55,0,0,1-3.93-1,8.54,8.54,0,0,1-7.87,0,8.62,8.62,0,0,1-3.94,1h-2v-2h2a6.84,6.84,0,0,0,3.94-1.31,6.77,6.77,0,0,0,7.87,0A6.81,6.81,0,0,0,235.56,141.85Z"/><path class="cls-8" d="M132.86,78.71l-19,51.63h3.86a1.23,1.23,0,0,1,.21-.41c3.15-4.14,14.78-7.88,29.77-11.12L168,63.75C152.67,77.05,144.21,86.58,132.86,78.71Z"/><path class="cls-9" d="M189.77,50.76l-23.7,64.58c2.79-.47,5.61-.93,8.45-1.36L196.88,53A16.56,16.56,0,0,0,189.77,50.76Z"/><path class="cls-10" d="M202.57,57.12l-20.45,55.72,4.19-.59,19.23-52.39C204.55,58.9,203.56,58,202.57,57.12Z"/></g></g></svg>