<svg xmlns="http://www.w3.org/2000/svg" xmlns:xlink="http://www.w3.org/1999/xlink" viewBox="0 0 346.67 208.31"><defs><style>.cls-1{fill:#221d53;}.cls-2{fill:#0ea55d;}.cls-3{fill:#fff;}.cls-4{fill:#2e53a3;}.cls-5{fill:url(#linear-gradient);}.cls-6{fill:url(#linear-gradient-2);}.cls-7{fill:#3e7cf4;}.cls-10,.cls-8,.cls-9{opacity:0.5;}.cls-8{fill:url(#linear-gradient-3);}.cls-9{fill:url(#linear-gradient-4);}.cls-10{fill:url(#linear-gradient-5);}</style><linearGradient id="linear-gradient" x1="89.79" y1="102.44" x2="226.86" y2="102.44" gradientUnits="userSpaceOnUse"><stop offset="0" stop-color="#fff" stop-opacity="0.2"/><stop offset="0.2" stop-color="#fff" stop-opacity="0.11"/><stop offset="0.42" stop-color="#fff" stop-opacity="0.05"/><stop offset="0.67" stop-color="#fff" stop-opacity="0.01"/><stop offset="1" stop-color="#fff" stop-opacity="0"/></linearGradient><linearGradient id="linear-gradient-2" x1="170.96" y1="75.43" x2="298.22" y2="174.12" gradientUnits="userSpaceOnUse"><stop offset="0.52" stop-color="#fff" stop-opacity="0"/><stop offset="0.96" stop-color="#fff" stop-opacity="0.2"/></linearGradient><linearGradient id="linear-gradient-3" x1="132.26" y1="128.63" x2="177.77" y2="0.22" gradientUnits="userSpaceOnUse"><stop offset="0.05" stop-color="#fdf1da" stop-opacity="0"/><stop offset="0.99" stop-color="#fdf1da"/></linearGradient><linearGradient id="linear-gradient-4" x1="169.09" y1="125.8" x2="212.47" y2="3.39" xlink:href="#linear-gradient-3"/><linearGradient id="linear-gradient-5" x1="182.42" y1="125.29" x2="225.41" y2="3.98" xlink:href="#linear-gradient-3"/></defs><g id="Layer_2" data-name="Layer 2"><g id="Layer_1-2" data-name="Layer 1"><path id="Path_107" data-name="Path 107" class="cls-1" d="M67,34.23A21.22,21.22,0,0,0,45.75,55.44h0C45.75,78.25,67,93.08,67,93.08h0S88.51,78,88.18,54.92A21.13,21.13,0,0,0,67,34.23Z"/><path id="Path_107-2" data-name="Path 107" class="cls-2" d="M73.08,28.11A21.22,21.22,0,0,0,51.87,49.33h0C51.87,72.14,73.08,87,73.08,87h0S94.62,71.91,94.29,48.8A21.13,21.13,0,0,0,73.08,28.11Z"/><path class="cls-3" d="M76.53,48.47A11.65,11.65,0,0,0,73.14,41a12.08,12.08,0,0,0-3.5,7.5,13.52,13.52,0,0,1,3.44,2.59,14.25,14.25,0,0,1,3.45-2.59M73.08,54.2a11.73,11.73,0,0,0-9.83-5.36c0,9.83,9.16,11.69,9.83,11.8.67-.12,9.84-2,9.84-11.8A11.76,11.76,0,0,0,73.08,54.2Z"/><path class="cls-4" d="M94.16,97.79c3.41-3.55,6.29-6.64,8.81-9.27h0c-22.74,20.74-54.23,25.4-103,32.36V193.3s96.63,13.29,147.55-4.92c22.85-8.17,31-22.26,4-34.23-3-1.35-8.33-3.46-14-5.89l-2.63-.31S73.11,119.74,94.16,97.79Z"/><path class="cls-4" d="M274.19,87c12.66,8.65,27.57,18,37.06,20,12.63-16.53,24.16-30.76,35.42-39V39.24C314.23,66.34,291.27,80.4,274.19,87Z"/><path class="cls-4" d="M179.5,60.17c-24,18.19-33.39,35.28-48.17,23.29C118.94,73.4,116,74.86,103,88.52c-2.52,2.63-5.4,5.72-8.81,9.27-21,21.95,40.75,50.16,40.75,50.16l2.63.31-.4-.18c-6.93-2.76-12.63-5.39-16-7.63-2.8-1.85-4-3.44-3.14-4.63,6.28-8.24,46-14.91,79.27-19.14a29.27,29.27,0,0,0,5.4-2.62c4.32-2.83,6.23-4.32,16.34-17.67,2.61-3.44,5.21-7,7.88-10.22C211.11,76.55,197.72,46.36,179.5,60.17Z"/><path class="cls-5" d="M179.5,60.17c-24,18.19-33.39,35.28-48.17,23.29C118.94,73.4,116,74.86,103,88.52c-2.52,2.63-5.4,5.72-8.81,9.27-21,21.95,40.75,50.16,40.75,50.16l2.63.31-.4-.18c-6.93-2.76-12.63-5.39-16-7.63-2.8-1.85-4-3.44-3.14-4.63,6.28-8.24,46-14.91,79.27-19.14a29.27,29.27,0,0,0,5.4-2.62c4.32-2.83,6.23-4.32,16.34-17.67,2.61-3.44,5.21-7,7.88-10.22C211.11,76.55,197.72,46.36,179.5,60.17Z"/><path class="cls-1" d="M274.19,87c-5.82-4-11.16-7.81-15.27-10.71C245.8,67,236,75,226.86,86.17c-2.67,3.26-5.27,6.78-7.88,10.22-10.11,13.35-12,14.84-16.34,17.67a29.27,29.27,0,0,1-5.4,2.62l1.35-.17-35.41,10.78-.85.25c-5.93,2-10.2,4-11.61,6s0,4.21,5.31,6.68a64.2,64.2,0,0,0,8.37,3.1c35,10.64,104.47,17.45,88.46,33.46,22.23-21,40.72-46.54,57.3-68.3l1.09-1.43C301.76,105,286.85,95.68,274.19,87Z"/><path class="cls-6" d="M274.19,87c-5.82-4-11.16-7.81-15.27-10.71C245.8,67,236,75,226.86,86.17c-2.67,3.26-5.27,6.78-7.88,10.22-10.11,13.35-12,14.84-16.34,17.67a29.27,29.27,0,0,1-5.4,2.62l1.35-.17-35.41,10.78-.85.25c-5.93,2-10.2,4-11.61,6s0,4.21,5.31,6.68a64.2,64.2,0,0,0,8.37,3.1c35,10.64,104.47,17.45,88.46,33.46,22.23-21,40.72-46.54,57.3-68.3l1.09-1.43C301.76,105,286.85,95.68,274.19,87Z"/><path class="cls-1" d="M311.25,107.07l-1.09,1.43c-16.58,21.76-35.07,47.26-57.3,68.3-21,20.95-56.15,31.51,10.5,31.51h83.31V68.06C335.41,76.31,323.88,90.54,311.25,107.07Z"/><path id="Path_107-3" data-name="Path 107" class="cls-1" d="M221.58,125.49a21.21,21.21,0,0,0-21.22,21.21h0c0,22.81,21.21,37.63,21.22,37.64h0s21.54-15.06,21.21-38.16a21.14,21.14,0,0,0-21.21-20.69Z"/><path id="Path_107-4" data-name="Path 107" class="cls-7" d="M227.69,119.37a21.21,21.21,0,0,0-21.21,21.22h0c0,22.8,21.2,37.63,21.21,37.64h0s21.54-15.06,21.21-38.17a21.13,21.13,0,0,0-21.21-20.69Z"/><path class="cls-3" d="M235.56,141.8h2v2h-2a8.53,8.53,0,0,1-3.93-1,8.6,8.6,0,0,1-7.87,0,8.61,8.61,0,0,1-3.94,1h-2v-2h2a6.84,6.84,0,0,0,3.94-1.31,6.74,6.74,0,0,0,7.87,0,6.81,6.81,0,0,0,3.93,1.31m0-5.9h2v2h-2a8.55,8.55,0,0,1-3.93-1,8.54,8.54,0,0,1-7.87,0,8.62,8.62,0,0,1-3.94,1h-2v-2h2a6.84,6.84,0,0,0,3.94-1.31,6.77,6.77,0,0,0,7.87,0,6.81,6.81,0,0,0,3.93,1.31m0,11.8h2v2h-2a8.53,8.53,0,0,1-3.93-1,8.54,8.54,0,0,1-7.87,0,8.61,8.61,0,0,1-3.94,1h-2v-2h2a6.9,6.9,0,0,0,3.94-1.3,6.77,6.77,0,0,0,7.87,0A6.87,6.87,0,0,0,235.56,147.7Z"/><polygon class="cls-8" points="113.91 136.23 163.9 0 193.5 0 143.52 136.23 113.91 136.23"/><polygon class="cls-9" points="160.56 136.23 210.55 0 218.5 0 168.51 136.23 160.56 136.23"/><polygon class="cls-10" points="175.7 136.23 225.69 0 229.66 0 179.67 136.23 175.7 136.23"/></g></g></svg>