<svg xmlns="http://www.w3.org/2000/svg" xmlns:xlink="http://www.w3.org/1999/xlink" viewBox="0 0 288.53 145.97"><defs><style>.cls-1{fill:#d8e5fd;}.cls-2{fill:#221d53;}.cls-3,.cls-6,.cls-7{fill:none;stroke-miterlimit:10;}.cls-3{stroke:#3e7cf4;stroke-width:2.35px;}.cls-4{fill:#3e7cf4;}.cls-5{fill:#fff;}.cls-6,.cls-7{stroke:#221d53;}.cls-6{stroke-width:2.2px;}.cls-7{stroke-width:1.76px;}.cls-8{fill:#073366;}.cls-9{fill:#f7ba44;}.cls-10{fill:url(#linear-gradient);}.cls-11{opacity:0.8;}.cls-12{fill:url(#linear-gradient-2);}</style><linearGradient id="linear-gradient" x1="115.46" y1="115.84" x2="162.31" y2="115.84" gradientUnits="userSpaceOnUse"><stop offset="0" stop-color="#fff" stop-opacity="0"/><stop offset="0.16" stop-color="#fff" stop-opacity="0.13"/><stop offset="0.44" stop-color="#fff" stop-opacity="0.33"/><stop offset="0.68" stop-color="#fff" stop-opacity="0.48"/><stop offset="0.88" stop-color="#fff" stop-opacity="0.57"/><stop offset="1" stop-color="#fff" stop-opacity="0.6"/></linearGradient><linearGradient id="linear-gradient-2" x1="73.29" y1="125.18" x2="105.61" y2="125.18" xlink:href="#linear-gradient"/></defs><g id="Layer_2" data-name="Layer 2"><g id="Layer_1-2" data-name="Layer 1"><path class="cls-1" d="M180.25,114.59c-24.55,0-42.12-40.79-72-34.14-28.18,6.27-34.42,47.14-60,59.06C32.93,146.65.05,146,.05,146H288V26.25C243.71,49.27,218.23,114.59,180.25,114.59Z"/><path class="cls-2" d="M224.63,127.81h0a18.52,18.52,0,0,1-18.53-18.53c0-7.34,9.26-49.75,18.53-49.84s18.53,42.14,18.53,49.84A18.53,18.53,0,0,1,224.63,127.81Z"/><path class="cls-3" d="M288,25.48c-44.28,23-69.76,88.35-107.74,88.35-24.55,0-42.12-40.79-72-34.14-28.18,6.27-34.42,47.14-60,59.06C32.93,145.88.77,144.62.05,144.59"/><path id="Path_107" data-name="Path 107" class="cls-2" d="M140.52,4.79a17.83,17.83,0,0,0-17.83,17.83h0c0,19.17,17.83,31.63,17.83,31.63h0s18.11-12.65,17.83-32.07A17.76,17.76,0,0,0,140.52,4.79Z"/><path class="cls-4" d="M144.61.05C135,.79,127.55,9.74,128,19.42,128.75,38.13,146,50.21,146,50.21h0s18.1-12.65,18.1-32.11A18.1,18.1,0,0,0,144.61.05Z"/><circle class="cls-4" cx="146.04" cy="19.13" r="17.97"/><g id="Group_29" data-name="Group 29"><path id="Path_5959" data-name="Path 5959" class="cls-5" d="M157,22s0-2.52-4.42-2.52a8.33,8.33,0,0,0-1.49.13A4.26,4.26,0,0,1,153,22.89v.38h4Z"/><path id="Path_5960" data-name="Path 5960" class="cls-5" d="M152.58,18.23A2.21,2.21,0,0,0,154.79,16h0a2.21,2.21,0,0,0-2.21-2.21h0a2.2,2.2,0,0,0-2.2,2.21h0a2.2,2.2,0,0,0,2.2,2.21Z"/><path id="Path_5961" data-name="Path 5961" class="cls-5" d="M141,19.62a8.25,8.25,0,0,0-1.49-.13c-4.41,0-4.41,2.52-4.41,2.52v1.26h4V22.9A4.26,4.26,0,0,1,141,19.62Z"/><path id="Path_5962" data-name="Path 5962" class="cls-5" d="M139.49,18.23A2.21,2.21,0,0,0,141.7,16h0a2.21,2.21,0,1,0-4.41,0h0a2.2,2.2,0,0,0,2.2,2.21Z"/><path id="Path_5963" data-name="Path 5963" class="cls-5" d="M149.28,20.26a10.39,10.39,0,0,0-6.49,0,3.13,3.13,0,0,0-2.27,2.64v1.57h11V22.9A3.11,3.11,0,0,0,149.28,20.26Z"/><circle id="Ellipse_6" data-name="Ellipse 6" class="cls-5" cx="146.04" cy="15.41" r="2.76"/></g><line class="cls-6" x1="224.63" y1="103.15" x2="224.63" y2="145.96"/><path class="cls-2" d="M63.41,127.81h0a18.52,18.52,0,0,1-18.53-18.53c0-7.34,9.26-49.75,18.53-49.84s18.53,42.14,18.53,49.84A18.53,18.53,0,0,1,63.41,127.81Z"/><line class="cls-6" x1="63.41" y1="103.15" x2="63.41" y2="145.96"/><path class="cls-2" d="M90.28,131.49h0a14.77,14.77,0,0,1-14.77-14.77c0-5.86,7.38-39.67,14.77-39.74s14.77,33.6,14.77,39.74A14.77,14.77,0,0,1,90.28,131.49Z"/><line class="cls-7" x1="90.28" y1="111.83" x2="90.28" y2="145.96"/><polygon class="cls-8" points="140.09 76.98 195.22 76.98 221.42 104.34 166.69 104.34 140.09 76.98"/><polygon class="cls-2" points="139.98 76.86 140.09 76.98 166.69 104.34 162.04 109 137.88 85.93 114.88 109 110.92 105.04 139.98 76.86"/><polygon class="cls-2" points="221.42 104.34 222 104.34 217.93 109 162.04 109 166.69 104.34 221.42 104.34"/><polygon class="cls-9" points="138.12 85.71 162.04 108.41 162.31 108.97 162.31 145.96 115.46 145.96 115.46 108.7 115.46 108.41 138.12 85.71"/><polygon class="cls-10" points="138.12 85.71 162.04 108.41 162.31 108.97 162.31 145.96 115.46 145.96 115.46 108.7 115.46 108.41 138.12 85.71"/><rect class="cls-9" x="162.33" y="108.71" width="55.31" height="37.26"/><g class="cls-11"><rect class="cls-5" x="162.33" y="108.71" width="55.31" height="37.26"/></g><polygon class="cls-8" points="90.28 98.38 128.3 98.38 146.37 117.25 108.63 117.25 90.28 98.38"/><polygon class="cls-2" points="90.2 98.3 90.28 98.38 108.63 117.25 105.41 120.47 88.75 104.56 72.89 120.47 70.16 117.73 90.2 98.3"/><polygon class="cls-2" points="146.37 117.25 146.77 117.25 143.96 120.47 105.41 120.47 108.63 117.25 146.37 117.25"/><polygon class="cls-9" points="88.92 104.4 105.41 120.06 105.61 120.44 105.61 145.96 73.29 145.76 73.29 120.27 73.29 120.06 88.92 104.4"/><polygon class="cls-12" points="88.92 104.4 105.41 120.06 105.61 120.44 105.61 145.96 73.29 145.76 73.29 120.27 73.29 120.06 88.92 104.4"/><rect class="cls-9" x="105.61" y="120.27" width="38.15" height="25.7"/><g class="cls-11"><rect class="cls-5" x="105.61" y="120.27" width="38.15" height="25.7"/></g><rect class="cls-2" x="85.1" y="127.81" width="8.58" height="18.13"/><rect class="cls-2" x="117.61" y="127.81" width="6.19" height="9.07"/><rect class="cls-2" x="128.39" y="127.81" width="6.19" height="9.07"/><rect class="cls-2" x="169.33" y="119.65" width="8.98" height="13.14"/><rect class="cls-2" x="203.35" y="119.65" width="8.98" height="13.14"/><rect class="cls-2" x="184.61" y="119.65" width="12.44" height="26.3"/></g></g></svg>