<svg xmlns="http://www.w3.org/2000/svg" xmlns:xlink="http://www.w3.org/1999/xlink" viewBox="0 0 347.34 173.79"><defs><style>.cls-1,.cls-17,.cls-3{fill:none;}.cls-1{stroke:#6ec99e;stroke-width:2.83px;}.cls-1,.cls-17{stroke-miterlimit:10;}.cls-2{fill:#041f3d;}.cls-13,.cls-4,.cls-8{fill:#fff;}.cls-5{fill:#010a14;}.cls-6{fill:#cdd6e0;}.cls-7{fill:#073366;}.cls-8{opacity:0.5;}.cls-9{fill:#9cadc2;}.cls-10,.cls-13{opacity:0.7;}.cls-10{fill:url(#linear-gradient);}.cls-11{fill:url(#linear-gradient-2);}.cls-12{fill:#b8c8d8;}.cls-14{fill:#395c85;}.cls-15{fill:#221d53;}.cls-16{fill:#0ea55d;}.cls-17{stroke:#0ea55d;stroke-width:2.83px;}</style><linearGradient id="linear-gradient" x1="156.75" y1="155.9" x2="260.77" y2="155.9" gradientUnits="userSpaceOnUse"><stop offset="0" stop-color="#fff"/><stop offset="1" stop-color="#fff" stop-opacity="0.2"/></linearGradient><linearGradient id="linear-gradient-2" x1="215.91" y1="160.05" x2="239.6" y2="160.05" gradientUnits="userSpaceOnUse"><stop offset="0.06" stop-color="#9cadc2"/><stop offset="0.84" stop-color="#9cadc2" stop-opacity="0"/></linearGradient></defs><g id="Layer_2" data-name="Layer 2"><g id="Layer_1-2" data-name="Layer 1"><path class="cls-1" d="M346.69,29.22c-39.51,20.54-66.58,69.05-96.57,92.8-10.47,8.29-21.3,13.56-33.14,13.56-18.48,0-33.67-19.18-51.25-31.61-10.55-7.46-21.95-12.49-35.44-9.49"/><path class="cls-2" d="M104.82,155.27h0a17.46,17.46,0,0,0,17.46-17.46c0-6.92-8.73-46.89-17.46-47s-17.46,39.71-17.46,47A17.46,17.46,0,0,0,104.82,155.27Z"/><path class="cls-1" d="M165.73,104c-10.55-7.46-21.95-12.49-35.44-9.49C96.36,102,83.79,144,54.3,160.93,33.51,172.85,0,172.37,0,172.37"/><rect class="cls-2" x="103.79" y="132.02" width="2.08" height="40.35"/><path class="cls-2" d="M88.41,158.73h0a13.92,13.92,0,0,0,13.92-13.92c0-5.52-7-37.38-13.92-37.45S74.49,139,74.49,144.81A13.92,13.92,0,0,0,88.41,158.73Z"/><rect class="cls-2" x="87.59" y="140.2" width="1.65" height="32.17"/><path class="cls-2" d="M242.59,83.45l-25.5-14.71-5.48,9-21,4-1.55-2.7,25.49-14.71-5.06-9.25,7-20.19h3.12V64.36l10.54.24,14,16.15Z"/><polygon class="cls-3" points="214.85 72.41 217.09 68.74 217.73 69.1 217.97 68.71 218.75 69.16 218.79 69.71 242.59 83.45 244.14 80.75 230.17 64.6 219.63 64.36 219.63 34.92 216.51 34.92 209.51 55.11 214.57 64.36 189.07 79.08 190.63 81.77 211.61 77.74 214.29 73.34 214.34 72.51 214.85 72.41"/><polygon class="cls-2" points="214.34 72.51 214.29 73.34 214.85 72.41 214.34 72.51"/><polygon class="cls-2" points="217.97 68.71 217.73 69.1 218.79 69.71 218.75 69.16 217.97 68.71"/><polygon class="cls-2" points="213.95 78.62 209.86 142.25 223.14 142.25 218.96 72.65 217.94 72.06 213.95 78.62"/><polygon class="cls-4" points="214.85 72.41 215.83 72.22 217.73 69.1 217.09 68.74 214.85 72.41"/><path class="cls-2" d="M271,98,250.6,86.21l-4.38,7.19-16.76,3.22-1.24-2.15,20.37-11.76-4-7.39,5.59-16.13h2.49V82.71l8.42.19,11.17,12.91Z"/><polygon class="cls-3" points="248.82 89.14 250.6 86.21 251.11 86.5 251.31 86.19 251.93 86.55 251.96 86.99 270.98 97.97 272.21 95.81 261.05 82.9 252.63 82.71 252.63 59.19 250.14 59.19 244.55 75.32 248.59 82.71 228.22 94.47 229.46 96.62 246.22 93.4 248.36 89.89 248.41 89.22 248.82 89.14"/><polygon class="cls-2" points="248.41 89.22 248.36 89.89 248.82 89.14 248.41 89.22"/><polygon class="cls-2" points="251.31 86.19 251.11 86.5 251.96 86.99 251.93 86.55 251.31 86.19"/><polygon class="cls-2" points="248.09 94.11 244.82 144.94 255.44 144.94 252.1 89.33 251.28 88.86 248.09 94.11"/><polygon class="cls-5" points="199.08 125.77 244.17 125.77 263.3 144.76 218.21 144.76 199.08 125.77"/><ellipse class="cls-6" cx="206.32" cy="122.44" rx="1.2" ry="1.81" transform="translate(19.29 272.7) rotate(-69.47)"/><polygon class="cls-7" points="221.27 137.28 206.32 122.44 246.33 122.44 261.28 137.28 221.27 137.28"/><polygon class="cls-8" points="231.19 138.3 238.12 121.52 246.99 121.42 263.23 138.05 243.96 138.3 231.19 138.3"/><path class="cls-6" d="M266.25,138.71l-18.71-18.58a.62.62,0,0,0-.44-.18H201.78a.62.62,0,0,0-.43,1.06l18.71,18.58a.63.63,0,0,0,.44.19h45.31A.62.62,0,0,0,266.25,138.71Zm-16.89-1.87a2.25,2.25,0,0,0-1-.68,2.37,2.37,0,0,0-1.12-.15L242,130.83a.86.86,0,0,0,.13-.23.73.73,0,0,0,.05-.3h10.18a2.38,2.38,0,0,0,1,.69,2.48,2.48,0,0,0,1.08.15l5.29,5.25a.71.71,0,0,0-.16.26.43.43,0,0,0,0,.19Zm-13.34,0a2.27,2.27,0,0,0-1-.68,2.25,2.25,0,0,0-1.18-.14l-5.19-5.16a.71.71,0,0,0,.16-.26.73.73,0,0,0,.05-.3H239a2.26,2.26,0,0,0,1.08.79,2.41,2.41,0,0,0,1.13.15l5.21,5.17a.72.72,0,0,0-.14.24,1.29,1.29,0,0,0,0,.19Zm-13.33,0a2.37,2.37,0,0,0-1-.68,2.47,2.47,0,0,0-1.08-.16l-5.24-5.19a.88.88,0,0,0,.12-.21,1,1,0,0,0,0-.3h10.1a2.31,2.31,0,0,0,1.08.79,2.49,2.49,0,0,0,1.08.16l5.24,5.19a.88.88,0,0,0-.12.21,1.29,1.29,0,0,0,0,.19Zm8.89-14a2.36,2.36,0,0,0,1,.68,2.45,2.45,0,0,0,1,.16L239,129a.91.91,0,0,0-.19.29.15.15,0,0,0,0,.09H228.45a2.55,2.55,0,0,0-.9-.58,2.46,2.46,0,0,0-1.08-.15l-5.34-5.31a1,1,0,0,0,.22-.31,1.06,1.06,0,0,0,0-.19Zm13.34,0a2.36,2.36,0,0,0,1,.68,2.31,2.31,0,0,0,1.08.15l5.29,5.26a.9.9,0,0,0-.17.26,1.29,1.29,0,0,0,0,.19H241.79a2.64,2.64,0,0,0-.9-.58,2.55,2.55,0,0,0-1-.16l-5.37-5.33a.67.67,0,0,0,.19-.28.41.41,0,0,0,0-.19Zm-25.69.68a2.34,2.34,0,0,0,1,.16l5.39,5.35a1.4,1.4,0,0,0-.16.26s0,.06,0,.09h-10.3a2.64,2.64,0,0,0-.9-.58,2.73,2.73,0,0,0-1-.16l-5.84-5.8h10.86A2.39,2.39,0,0,0,219.23,123.56Z"/><polygon class="cls-5" points="215.9 146.76 260.99 146.76 263.3 144.76 218.21 144.76 215.9 146.76"/><polygon class="cls-5" points="199.08 125.77 179.95 144.76 182.26 146.76 199.08 130.06 215.9 146.76 218.21 144.76 199.08 125.77"/><rect class="cls-9" x="215.9" y="146.76" width="45.09" height="26.57"/><rect class="cls-9" x="156.75" y="138.47" width="59.16" height="34.86"/><polygon class="cls-10" points="215.91 146.76 215.91 138.47 156.75 138.47 156.75 173.33 215.68 173.33 215.91 173.33 260.77 173.33 260.77 146.76 215.91 146.76"/><rect class="cls-11" x="215.91" y="146.76" width="23.69" height="26.57"/><polygon class="cls-2" points="134.67 110.93 193.83 110.93 218.93 135.84 159.77 135.84 134.67 110.93"/><polygon class="cls-5" points="156.75 138.47 215.91 138.47 218.93 135.84 159.77 135.84 156.75 138.47"/><polygon class="cls-2" points="134.67 110.93 109.58 135.84 112.6 138.47 134.67 116.56 156.75 138.47 159.77 135.84 134.67 110.93"/><polygon class="cls-12" points="112.6 138.47 112.6 173.33 156.75 173.33 156.75 138.47 134.67 116.56 112.6 138.47"/><rect class="cls-13" x="120.16" y="150.88" width="10.05" height="10.05" transform="translate(250.38 311.8) rotate(180)"/><rect class="cls-13" x="137.57" y="150.88" width="10.05" height="22.46" transform="translate(285.19 324.21) rotate(180)"/><rect class="cls-2" x="139.69" y="150.88" width="9.55" height="22.46" transform="translate(288.93 324.21) rotate(180)"/><rect class="cls-2" x="122.28" y="150.88" width="7.93" height="10.05" transform="translate(252.5 311.8) rotate(180)"/><rect class="cls-2" x="226.71" y="156.22" width="7.66" height="7.66"/><rect class="cls-2" x="244.17" y="156.22" width="7.66" height="7.66"/><rect class="cls-14" x="244.17" y="156.22" width="6.04" height="7.66"/><rect class="cls-14" x="226.71" y="156.22" width="6.04" height="7.66"/><rect class="cls-2" x="170.93" y="150.88" width="10.05" height="10.05"/><rect class="cls-2" x="193.84" y="150.88" width="10.05" height="10.05"/><rect class="cls-14" x="193.84" y="150.88" width="7.93" height="10.05"/><rect class="cls-14" x="170.93" y="150.88" width="7.93" height="10.05"/><ellipse class="cls-6" cx="143.62" cy="108.02" rx="1.51" ry="2.27" transform="translate(-7.92 204.63) rotate(-69.47)"/><polygon class="cls-7" points="162.41 126.67 143.62 108.02 193.89 108.02 212.68 126.67 162.41 126.67"/><polygon class="cls-8" points="174.88 127.95 183.58 106.86 194.72 106.74 198.33 110 190.92 127.95 174.88 127.95"/><polygon class="cls-8" points="168.84 127.95 177.54 106.86 180.91 106.86 172.21 127.95 168.84 127.95"/><path class="cls-6" d="M218.93,128.47l-23.52-23.35a.8.8,0,0,0-.55-.22H137.92a.78.78,0,0,0-.55,1.33l23.52,23.35a.75.75,0,0,0,.55.23h56.94A.78.78,0,0,0,218.93,128.47Zm-21.23-2.35a3,3,0,0,0-1.25-.86,3.09,3.09,0,0,0-1.41-.18l-6.55-6.51a.83.83,0,0,0,.16-.29.93.93,0,0,0,.06-.37h12.8a2.89,2.89,0,0,0,1.25.85,3,3,0,0,0,1.36.2l6.64,6.59a1.15,1.15,0,0,0-.21.33,1,1,0,0,0-.05.24Zm-16.76,0a3.11,3.11,0,0,0-2.73-1l-6.52-6.48a1,1,0,0,0,.21-.33.92.92,0,0,0,0-.37h12.69a2.93,2.93,0,0,0,1.36,1,3,3,0,0,0,1.43.18l6.54,6.5a1.49,1.49,0,0,0-.18.3,1,1,0,0,0,0,.24Zm-16.76,0a3,3,0,0,0-1.25-.86,3.16,3.16,0,0,0-1.36-.19L155,118.54a1.59,1.59,0,0,0,.14-.26,1.15,1.15,0,0,0,.06-.37h12.68a3,3,0,0,0,1.36,1,3.16,3.16,0,0,0,1.36.19l6.58,6.53a.94.94,0,0,0-.14.26,1.05,1.05,0,0,0-.06.24Zm11.18-17.54a3,3,0,0,0,1.25.85,3.06,3.06,0,0,0,1.3.2l6.74,6.69a1,1,0,0,0-.25.37s0,.07,0,.11H171.43a3.15,3.15,0,0,0-2.49-.92l-6.72-6.67a1,1,0,0,0,.28-.39,1,1,0,0,0,.05-.24Zm16.76,0a2.92,2.92,0,0,0,1.24.85,3,3,0,0,0,1.36.2l6.65,6.6a.89.89,0,0,0-.21.33.93.93,0,0,0,0,.24H188.19a3.18,3.18,0,0,0-2.42-.93l-6.75-6.7a1,1,0,0,0,.24-.35,1,1,0,0,0,.05-.24Zm-32.27.85a3,3,0,0,0,1.23.21l6.77,6.72a1.15,1.15,0,0,0-.21.33s0,.07,0,.11h-13a3.07,3.07,0,0,0-1.13-.73,3.23,3.23,0,0,0-1.23-.2L145,108.58H158.6A3,3,0,0,0,159.85,109.43Z"/><path id="Path_107" data-name="Path 107" class="cls-15" d="M122,6.11a21.22,21.22,0,0,0-21.22,21.22h0C100.75,50.14,122,65,122,65h0s21.54-15.06,21.21-38.17A21.13,21.13,0,0,0,122,6.11Z"/><path id="Path_107-2" data-name="Path 107" class="cls-16" d="M128.08,0a21.22,21.22,0,0,0-21.21,21.22h0c0,22.8,21.21,37.63,21.21,37.63h0s21.54-15.05,21.21-38.16A21.13,21.13,0,0,0,128.08,0Z"/><path class="cls-4" d="M128.82,29.06l1.86-3.35v1.08h3.94l-2.46-4.27,3.93-2.27,1.72,3h0a2.26,2.26,0,0,1,.08,2.41l-2.63,4.55a2.21,2.21,0,0,1-2,1.14h-2.63v1.08Zm-6,2.28a2.28,2.28,0,0,1-2-1.13l-2.63-4.55a2.26,2.26,0,0,1,.09-2.4h0l1.24-2.13-1-.55,3.84.06,2,3.3-.94-.54-2,3.4h4.93v4.55h-3.62Zm-1.68-13.87,1.72-3h0a2.26,2.26,0,0,1,2-1.29h5.26a2.27,2.27,0,0,1,2,1.27h0l1.22,2.14.94-.54-2,3.29-3.85.07.94-.55-2-3.41-2.45,4.27Z"/><path class="cls-17" d="M346.69,29.22c-39.51,20.54-66.58,69.05-96.57,92.8"/></g></g></svg>