<svg xmlns="http://www.w3.org/2000/svg" xmlns:xlink="http://www.w3.org/1999/xlink" viewBox="0 0 287.47 173.48"><defs><style>.cls-1{fill:#f6af9d;}.cls-2{opacity:0.67;fill:url(#linear-gradient);}.cls-3{fill:#052244;}.cls-4{fill:url(#linear-gradient-2);}.cls-5{fill:url(#linear-gradient-3);}.cls-6{fill:url(#linear-gradient-4);}.cls-7{fill:url(#linear-gradient-5);}.cls-8{fill:url(#linear-gradient-6);}.cls-9{fill:url(#linear-gradient-7);}.cls-10,.cls-15{fill:#fcba19;}.cls-11{fill:#fad68f;}.cls-12{fill:#fff;}.cls-13{fill:#031429;}.cls-14{fill:#fdf1da;}.cls-15{opacity:0.5;}</style><linearGradient id="linear-gradient" x1="146.21" y1="90.63" x2="133.29" y2="76.8" gradientUnits="userSpaceOnUse"><stop offset="0.5" stop-color="#f3957c"/><stop offset="0.84" stop-color="#f3957c" stop-opacity="0"/></linearGradient><linearGradient id="linear-gradient-2" x1="197.11" y1="71.32" x2="129.74" y2="86.39" gradientUnits="userSpaceOnUse"><stop offset="0.38" stop-color="#fff" stop-opacity="0"/><stop offset="0.7" stop-color="#fff" stop-opacity="0.5"/></linearGradient><linearGradient id="linear-gradient-3" x1="798" y1="117.21" x2="825.99" y2="140.46" gradientTransform="matrix(-1, 0, 0, 1, 910.14, 0)" gradientUnits="userSpaceOnUse"><stop offset="0.38" stop-color="#fff" stop-opacity="0"/><stop offset="0.7" stop-color="#fff" stop-opacity="0.6"/></linearGradient><linearGradient id="linear-gradient-4" x1="812.31" y1="145.39" x2="782.28" y2="115.17" gradientTransform="matrix(-1, 0, 0, 1, 910.14, 0)" gradientUnits="userSpaceOnUse"><stop offset="0.3" stop-color="#fff" stop-opacity="0.6"/><stop offset="0.62" stop-color="#fff" stop-opacity="0"/></linearGradient><linearGradient id="linear-gradient-5" x1="179.21" y1="117.21" x2="207.2" y2="140.46" gradientTransform="matrix(1, 0, 0, 1, 0, 0)" xlink:href="#linear-gradient-3"/><linearGradient id="linear-gradient-6" x1="193.53" y1="145.39" x2="163.49" y2="115.17" gradientTransform="matrix(1, 0, 0, 1, 0, 0)" xlink:href="#linear-gradient-4"/><linearGradient id="linear-gradient-7" x1="120.97" y1="129.21" x2="170.38" y2="79.8" gradientUnits="userSpaceOnUse"><stop offset="0.31" stop-color="#ef5050"/><stop offset="1" stop-color="#f27373"/></linearGradient></defs><g id="Layer_2" data-name="Layer 2"><g id="Layer_1-2" data-name="Layer 1"><path class="cls-1" d="M84.54,73.94c-12,12.42-11.27,33.87-5.2,48.43a72.11,72.11,0,0,0,19.4,25.87s7.71-2.71,1.11-13.87c-1.45-2.44-10.66-3.68-14.38-20.72-.46-2.11,20.16,1.11,28.16-5.5,5.6-4.63-1.81-19.17,2.16-22,7.41-5.23,22.58-.6,22.66-.56,9.64,4.47,15.12-.47,15.12-.47S108.88,48.72,84.54,73.94Z"/><polygon class="cls-2" points="128.91 83.59 139.46 75.69 147.83 80.89 137.78 85.14 128.91 83.59"/><path class="cls-1" d="M84.16,106.64l14.67-2.45s1.46,7.9,1.9,10.36c1.24,6.9,5.38,14.66,14.65,24.51s3,15,3,15C105.61,146.44,85.4,134,84.16,106.64Z"/><path class="cls-1" d="M93.66,104.77c7.23,36.36,38.06,46.54,41.11,48.25,0,0,8.18-6.5-6-16.55-17.57-12.48-16.53-35.62-16.53-35.62Z"/><path class="cls-3" d="M265.42,70.18a20.89,20.89,0,0,1-13.48-5L227.41,44.57a16.05,16.05,0,0,1,2.8-26.46l1,1.87a13.95,13.95,0,0,0-2.43,23L253.31,63.6a18.84,18.84,0,0,0,30.86-16.42l-3.44-31.89a13.94,13.94,0,0,0-20.41-10.8l-1-1.88a16.06,16.06,0,0,1,23.52,12.45L286.28,47a21,21,0,0,1-20.86,23.23Z"/><rect class="cls-3" x="229.45" y="15.17" width="4.25" height="6.82" transform="translate(18.43 111.01) rotate(-28.03)"/><rect class="cls-3" x="256.83" y="0.6" width="4.25" height="6.82" transform="translate(28.48 122.14) rotate(-28.03)"/><path class="cls-3" d="M22.33,162.55l-.12-2.83a46.38,46.38,0,0,0,27.46-10.5c9.43-7.78,15.11-19.16,17.87-35.81.27-1.67.53-3.36.79-5.06,1.89-12.21,3.83-24.83,12.3-34.48,10.56-12,28.48-14.65,48-7,15.89,6.26,28.77,18,40.32,29.64l2.72,2.76c17.88,18.18,38.11,38.79,65.55,38.49,20-.21,37.1-11.64,42.68-28.45,4.1-12.35,2.32-27.09-5-41.52l2.53-1.28c7.68,15.11,9.52,30.62,5.18,43.69-6,18-24.18,30.17-45.34,30.4h-.6c-28.31,0-48.86-20.89-67-39.34l-2.71-2.75c-11.34-11.48-23.94-22.94-39.35-29-6.86-2.7-30.35-10.24-44.78,6.21-7.93,9-9.8,21.24-11.62,33-.27,1.72-.53,3.42-.81,5.09-1.81,10.93-5.73,26.71-18.85,37.53A49.21,49.21,0,0,1,22.33,162.55Z"/><path class="cls-1" d="M206.81,73.94c12,12.42,11.28,33.87,5.2,48.43a72.08,72.08,0,0,1-19.39,25.87s-7.71-2.71-1.11-13.87c1.45-2.44,10.66-3.68,14.38-20.72.46-2.11-20.16,1.11-28.17-5.5-5.59-4.63,1.82-19.17-2.16-22-7.41-5.23-22.57-.6-22.66-.56-9.64,4.47-15.12-.47-15.12-.47S182.48,48.72,206.81,73.94Z"/><path class="cls-4" d="M175.56,86.17c-7.4-5.23-22.43-.37-22.52-.33-9.63,4.46-15.26-.7-15.26-.7s44.7-36.42,69-11.2"/><path class="cls-1" d="M207.2,106.64l-14.67-2.45s-1.46,7.9-1.9,10.36c-1.24,6.9-5.38,14.66-14.65,24.51s-3,15-3,15C185.75,146.44,206,134,207.2,106.64Z"/><path class="cls-1" d="M197.7,104.77c-7.23,36.36-38.06,46.54-41.11,48.25,0,0-8.18-6.5,6-16.55,17.56-12.48,16.53-35.62,16.53-35.62Z"/><path class="cls-5" d="M83.29,99.09l15.54,5.1s1.46,7.9,1.9,10.36c1.24,6.9,5.38,14.66,14.65,24.51s3,15,3,15C105.61,146.44,84.54,135,83.29,99.09Z"/><path class="cls-6" d="M93.66,104.77c7.23,36.36,38.06,46.54,41.11,48.25,0,0,8.18-6.5-6-16.55-17.57-12.48-16.53-35.62-16.53-35.62Z"/><path class="cls-7" d="M208.07,99.09l-15.54,5.1s-1.46,7.9-1.9,10.36c-1.24,6.9-5.38,14.66-14.65,24.51s-3,15-3,15C185.75,146.44,206.81,135,208.07,99.09Z"/><path class="cls-8" d="M197.7,104.77c-7.23,36.36-38.06,46.54-41.11,48.25,0,0-8.18-6.5,6-16.55,17.56-12.48,16.53-35.62,16.53-35.62Z"/><path class="cls-9" d="M108.8,98.93c1.67-22.67,31.14-21,36.88-4,5.74-17,35.2-18.7,36.88,4,1.08,14.58-7.65,26-12.09,30.18-10.45,9.8-24.79,14.07-24.79,14.07s-14.34-4.27-24.79-14.07C116.45,125,107.72,113.51,108.8,98.93Z"/><circle class="cls-10" cx="12.99" cy="160.48" r="12.99"/><circle class="cls-3" cx="12.99" cy="161.9" r="7.18"/><circle class="cls-11" cx="12.99" cy="159.07" r="7.18"/><polygon class="cls-12" points="171.92 98.77 166.45 98.77 166.45 93.3 162.29 93.3 162.29 98.77 156.82 98.77 156.82 102.93 162.29 102.93 162.29 108.4 166.45 108.4 166.45 102.93 171.92 102.93 171.92 98.77"/><path class="cls-10" d="M287.34,46.84l-4.23.45A17.77,17.77,0,0,1,254,62.79L251.26,66a21.9,21.9,0,0,0,23.44,3.14,63.72,63.72,0,0,1,6.38,21.91l4.23-.38A68,68,0,0,0,278.38,67,21.92,21.92,0,0,0,287.34,46.84Z"/><polygon class="cls-13" points="249.86 63.47 251.29 61.9 253.31 63.6 251.94 65.23 249.86 63.47"/><rect class="cls-13" x="284.05" y="44.93" width="2.13" height="2.14" transform="translate(-3.29 30.84) rotate(-6.16)"/><path class="cls-14" d="M164.37,0l2.86,7.75A22.39,22.39,0,0,0,180.49,21l7.75,2.86-7.75,2.85A22.42,22.42,0,0,0,167.23,40l-2.86,7.76L161.52,40a22.44,22.44,0,0,0-13.26-13.26l-7.76-2.85L148.26,21A22.42,22.42,0,0,0,161.52,7.75Z"/><path class="cls-15" d="M164.37,13.05l1.3,3.51a10.09,10.09,0,0,0,6,6l3.51,1.3-3.51,1.29a10.14,10.14,0,0,0-6,6l-1.3,3.52-1.29-3.52a10.19,10.19,0,0,0-6-6l-3.52-1.29,3.52-1.3a10.14,10.14,0,0,0,6-6Z"/><path class="cls-14" d="M34.46,57.92l2.23,6A17.52,17.52,0,0,0,47,74.32l6.05,2.23L47,78.77A17.52,17.52,0,0,0,36.69,89.12l-2.23,6-2.23-6A17.52,17.52,0,0,0,21.88,78.77l-6-2.22,6-2.23A17.52,17.52,0,0,0,32.23,64Z"/><path class="cls-15" d="M34.46,68.1l1,2.74a7.91,7.91,0,0,0,4.69,4.69l2.74,1-2.74,1a7.91,7.91,0,0,0-4.69,4.69l-1,2.74-1-2.74a7.91,7.91,0,0,0-4.69-4.69l-2.74-1,2.74-1a7.91,7.91,0,0,0,4.69-4.69Z"/></g></g></svg>