<svg xmlns="http://www.w3.org/2000/svg" xmlns:xlink="http://www.w3.org/1999/xlink" viewBox="0 0 328.55 138.21"><defs><style>.cls-1{fill:#221d53;}.cls-2{fill:#0ea55d;}.cls-3{fill:#fff;}.cls-4{fill:#2e53a3;}.cls-5{fill:url(#linear-gradient);}.cls-6{fill:url(#linear-gradient-2);}.cls-7{fill:#3e7cf4;}.cls-10,.cls-8,.cls-9{opacity:0.5;}.cls-8{fill:url(#linear-gradient-3);}.cls-9{fill:url(#linear-gradient-4);}.cls-10{fill:url(#linear-gradient-5);}</style><linearGradient id="linear-gradient" x1="114.15" y1="62.03" x2="228.55" y2="62.03" gradientUnits="userSpaceOnUse"><stop offset="0" stop-color="#fff" stop-opacity="0.2"/><stop offset="0.2" stop-color="#fff" stop-opacity="0.11"/><stop offset="0.42" stop-color="#fff" stop-opacity="0.05"/><stop offset="0.67" stop-color="#fff" stop-opacity="0.01"/><stop offset="1" stop-color="#fff" stop-opacity="0"/></linearGradient><linearGradient id="linear-gradient-2" x1="181.9" y1="39.49" x2="288.12" y2="121.86" gradientUnits="userSpaceOnUse"><stop offset="0.52" stop-color="#fff" stop-opacity="0"/><stop offset="0.96" stop-color="#fff" stop-opacity="0.2"/></linearGradient><linearGradient id="linear-gradient-3" x1="153.38" y1="86.72" x2="198.89" y2="-41.69" gradientUnits="userSpaceOnUse"><stop offset="0.05" stop-color="#fdf1da" stop-opacity="0"/><stop offset="0.99" stop-color="#fdf1da"/></linearGradient><linearGradient id="linear-gradient-4" x1="190.26" y1="83.91" x2="233.64" y2="-38.5" xlink:href="#linear-gradient-3"/><linearGradient id="linear-gradient-5" x1="203.55" y1="83.38" x2="246.55" y2="-37.93" xlink:href="#linear-gradient-3"/></defs><g id="Layer_2" data-name="Layer 2"><g id="Layer_1-2" data-name="Layer 1"><path id="Path_107" data-name="Path 107" class="cls-1" d="M95.11,5.1A17.71,17.71,0,0,0,77.4,22.81h0c0,19,17.7,31.41,17.71,31.41h0s18-12.56,17.7-31.85A17.64,17.64,0,0,0,95.11,5.1Z"/><path id="Path_107-2" data-name="Path 107" class="cls-2" d="M100.21,0A17.71,17.71,0,0,0,82.5,17.71h0c0,19,17.7,31.41,17.71,31.41h0s18-12.57,17.7-31.85A17.63,17.63,0,0,0,100.21,0Z"/><path class="cls-3" d="M103.08,17a9.69,9.69,0,0,0-2.82-6.26A10,10,0,0,0,97.34,17a11.33,11.33,0,0,1,2.87,2.16A11.82,11.82,0,0,1,103.08,17m-2.87,4.78A9.82,9.82,0,0,0,92,17.3c0,8.21,7.65,9.76,8.21,9.85.56-.1,8.21-1.64,8.21-9.85A9.82,9.82,0,0,0,100.21,21.77Z"/><path class="cls-4" d="M268.06,49.17c10.56,7.23,23,15,30.93,16.73,10.54-13.79,20.16-25.68,29.56-32.56V9.28C301.47,31.91,282.32,43.64,268.06,49.17Z"/><path class="cls-4" d="M189,26.76c-20,15.17-27.87,29.44-40.21,19.43C138.49,37.8,136,39,125.15,50.41c-2.1,2.21-4.51,4.78-7.35,7.75-17.57,18.31,34,41.86,34,41.86l2.2.26-.34-.15a82.9,82.9,0,0,1-13.38-6.37c-2.33-1.54-3.37-2.87-2.61-3.87,5.24-6.87,38.42-12.44,66.15-16a23.72,23.72,0,0,0,4.51-2.19C212,69.37,213.54,68.13,222,57c2.18-2.87,4.35-5.81,6.57-8.53C215.41,40.43,204.24,15.23,189,26.76Z"/><path class="cls-5" d="M189,26.76c-20,15.17-27.87,29.44-40.21,19.43C138.49,37.8,136,39,125.15,50.41c-2.1,2.21-4.51,4.78-7.35,7.75-17.57,18.31,34,41.86,34,41.86l2.2.26-.34-.15a82.9,82.9,0,0,1-13.38-6.37c-2.33-1.54-3.37-2.87-2.61-3.87,5.24-6.87,38.42-12.44,66.15-16a23.72,23.72,0,0,0,4.51-2.19C212,69.37,213.54,68.13,222,57c2.18-2.87,4.35-5.81,6.57-8.53C215.41,40.43,204.24,15.23,189,26.76Z"/><path class="cls-1" d="M268.06,49.17c-4.86-3.32-9.31-6.51-12.74-8.94-11-7.75-19.16-1.07-26.77,8.22-2.22,2.72-4.39,5.66-6.57,8.53-8.44,11.15-10,12.39-13.64,14.75a23.72,23.72,0,0,1-4.51,2.19l1.13-.14-29.55,9-.71.2c-4.95,1.69-8.51,3.31-9.7,5s0,3.51,4.44,5.57a53.17,53.17,0,0,0,7,2.59c29.21,8.88,87.2,14.56,73.83,27.93,18.56-17.56,34-38.85,47.83-57L299,65.9C291.07,64.19,278.62,56.4,268.06,49.17Z"/><path class="cls-6" d="M268.06,49.17c-4.86-3.32-9.31-6.51-12.74-8.94-11-7.75-19.16-1.07-26.77,8.22-2.22,2.72-4.39,5.66-6.57,8.53-8.44,11.15-10,12.39-13.64,14.75a23.72,23.72,0,0,1-4.51,2.19l1.13-.14-29.55,9-.71.2c-4.95,1.69-8.51,3.31-9.7,5s0,3.51,4.44,5.57a53.17,53.17,0,0,0,7,2.59c29.21,8.88,87.2,14.56,73.83,27.93,18.56-17.56,34-38.85,47.83-57L299,65.9C291.07,64.19,278.62,56.4,268.06,49.17Z"/><path id="Path_107-3" data-name="Path 107" class="cls-1" d="M233.15,69.22a17.71,17.71,0,0,0-17.71,17.71h0c0,19,17.7,31.41,17.71,31.41h0s18-12.57,17.7-31.85a17.65,17.65,0,0,0-17.7-17.27Z"/><path id="Path_107-4" data-name="Path 107" class="cls-7" d="M238.25,64.12a17.7,17.7,0,0,0-17.71,17.7h0c0,19,17.7,31.41,17.71,31.42h0s18-12.57,17.7-31.85a17.63,17.63,0,0,0-17.7-17.27Z"/><path class="cls-3" d="M244.82,82.84h1.64v1.64h-1.64a7.22,7.22,0,0,1-3.29-.82,7.1,7.1,0,0,1-6.56,0,7.25,7.25,0,0,1-3.29.82H230V82.84h1.64A5.81,5.81,0,0,0,235,81.75a5.65,5.65,0,0,0,6.56,0,5.78,5.78,0,0,0,3.29,1.09m0-4.93h1.64v1.64h-1.64a7.09,7.09,0,0,1-3.29-.82,7.1,7.1,0,0,1-6.56,0,7.12,7.12,0,0,1-3.29.82H230V77.91h1.64A5.73,5.73,0,0,0,235,76.82a5.65,5.65,0,0,0,6.56,0,5.71,5.71,0,0,0,3.29,1.09m0,9.85h1.64v1.65h-1.64a7.1,7.1,0,0,1-3.29-.83,7.1,7.1,0,0,1-6.56,0,7.14,7.14,0,0,1-3.29.83H230V87.76h1.64A5.73,5.73,0,0,0,235,86.67a5.62,5.62,0,0,0,6.56,0A5.71,5.71,0,0,0,244.82,87.76Z"/><path class="cls-4" d="M162.36,133.77c19.08-6.82,25.85-18.59,3.36-28.58-2.53-1.12-6.95-2.88-11.71-4.91l-2.2-.26s-51.58-23.55-34-41.86c2.84-3,5.25-5.54,7.35-7.75h0C106.92,67,41.21,128.23,0,138.21H143.91A108.56,108.56,0,0,0,162.36,133.77Z"/><path class="cls-1" d="M328.55,63.93V33.34c-9.4,6.88-19,18.77-29.56,32.56l-.91,1.19c-13.84,18.16-29.27,39.45-47.83,57-5.59,5.59-12.39,10.29-17.25,14.11h95.55Z"/><path class="cls-8" d="M189,26.77c-18.08,13.7-26.24,26.66-36.74,21.67L136.43,91.63c1.61,1,3.19,2,4.69,2.82h.24l-1.09-.68c-2.33-1.54-3.37-2.87-2.61-3.87,3.18-4.17,16.69-7.87,33-10.91l19.44-53C189.75,26.25,189.38,26.49,189,26.77Z"/><path class="cls-9" d="M206.53,27.73,188.82,76c2.8-.42,5.61-.81,8.38-1.19l15.28-41.63A55.87,55.87,0,0,0,206.53,27.73Z"/><path class="cls-10" d="M217.65,38.67,204.87,73.51a21.68,21.68,0,0,0,3.45-1.77c.55-.36,1.06-.69,1.55-1l10.64-29C219.56,40.71,218.6,39.7,217.65,38.67Z"/></g></g></svg>