<svg xmlns="http://www.w3.org/2000/svg" xmlns:xlink="http://www.w3.org/1999/xlink" viewBox="0 0 346.66 180.19"><defs><style>.cls-1{fill:#221d53;}.cls-2{fill:#0ea55d;}.cls-3{fill:#fff;}.cls-4{fill:#2e53a3;}.cls-5{fill:url(#linear-gradient);}.cls-6{fill:url(#linear-gradient-2);}.cls-7{fill:#3e7cf4;}.cls-8{fill:url(#linear-gradient-3);}.cls-9{fill:url(#linear-gradient-4);}.cls-10{fill:url(#linear-gradient-5);}</style><linearGradient id="linear-gradient" x1="89.79" y1="74.32" x2="226.85" y2="74.32" gradientUnits="userSpaceOnUse"><stop offset="0" stop-color="#fff" stop-opacity="0.2"/><stop offset="0.2" stop-color="#fff" stop-opacity="0.11"/><stop offset="0.42" stop-color="#fff" stop-opacity="0.05"/><stop offset="0.67" stop-color="#fff" stop-opacity="0.01"/><stop offset="1" stop-color="#fff" stop-opacity="0"/></linearGradient><linearGradient id="linear-gradient-2" x1="170.95" y1="47.32" x2="298.22" y2="146.01" gradientUnits="userSpaceOnUse"><stop offset="0.52" stop-color="#fff" stop-opacity="0"/><stop offset="0.96" stop-color="#fff" stop-opacity="0.2"/></linearGradient><linearGradient id="linear-gradient-3" x1="131.87" y1="100.35" x2="177.38" y2="-28.06" gradientUnits="userSpaceOnUse"><stop offset="0.05" stop-color="#fdf1da" stop-opacity="0"/><stop offset="0.99" stop-color="#fdf1da"/></linearGradient><linearGradient id="linear-gradient-4" x1="168.84" y1="97.57" x2="212.22" y2="-24.84" xlink:href="#linear-gradient-3"/><linearGradient id="linear-gradient-5" x1="182.15" y1="97.04" x2="225.14" y2="-24.26" xlink:href="#linear-gradient-3"/></defs><g id="Layer_2" data-name="Layer 2"><g id="Layer_1-2" data-name="Layer 1"><path id="Path_107" data-name="Path 107" class="cls-1" d="M67,6.11A21.22,21.22,0,0,0,45.75,27.33h0C45.75,50.14,67,65,67,65h0S88.51,49.91,88.18,26.8A21.13,21.13,0,0,0,67,6.11Z"/><path id="Path_107-2" data-name="Path 107" class="cls-2" d="M73.08,0A21.22,21.22,0,0,0,51.87,21.22h0c0,22.8,21.2,37.63,21.21,37.63h0S94.62,43.79,94.29,20.69A21.13,21.13,0,0,0,73.08,0Z"/><path class="cls-3" d="M76.52,20.36a11.63,11.63,0,0,0-3.38-7.51,12.13,12.13,0,0,0-3.5,7.51A13.3,13.3,0,0,1,73.08,23a14.13,14.13,0,0,1,3.44-2.59m-3.44,5.72a11.75,11.75,0,0,0-9.83-5.36c0,9.84,9.16,11.7,9.83,11.81.67-.12,9.84-2,9.84-11.81A11.78,11.78,0,0,0,73.08,26.08Z"/><path class="cls-4" d="M94.16,69.68c3.41-3.56,6.29-6.64,8.81-9.28h0C80.22,81.14,51.87,138.3,0,169.87H58.13c29.81-.29,64.91-.84,89.42-9.6,22.85-8.17,31-22.27,4-34.23-3-1.35-8.33-3.46-14-5.9l-2.63-.3S73.11,91.62,94.16,69.68Z"/><path class="cls-4" d="M274.18,58.92c12.66,8.65,27.57,18,37.06,20,12.63-16.53,24.16-30.77,35.42-39V11.12C314.22,38.23,291.27,52.28,274.18,58.92Z"/><path class="cls-4" d="M179.5,32.06c-24,18.18-33.4,35.28-48.17,23.28C118.94,45.29,116,46.75,103,60.4c-2.52,2.64-5.4,5.72-8.81,9.28-21,21.94,40.75,50.16,40.75,50.16l2.63.3-.41-.17c-6.93-2.77-12.62-5.39-16-7.64-2.8-1.84-4-3.43-3.14-4.63,6.28-8.23,46-14.9,79.27-19.13a29.25,29.25,0,0,0,5.4-2.63c4.32-2.82,6.23-4.32,16.34-17.67,2.61-3.44,5.21-7,7.87-10.22C211.11,48.44,197.72,18.25,179.5,32.06Z"/><path class="cls-5" d="M179.5,32.06c-24,18.18-33.4,35.28-48.17,23.28C118.94,45.29,116,46.75,103,60.4c-2.52,2.64-5.4,5.72-8.81,9.28-21,21.94,40.75,50.16,40.75,50.16l2.63.3-.41-.17c-6.93-2.77-12.62-5.39-16-7.64-2.8-1.84-4-3.43-3.14-4.63,6.28-8.23,46-14.9,79.27-19.13a29.25,29.25,0,0,0,5.4-2.63c4.32-2.82,6.23-4.32,16.34-17.67,2.61-3.44,5.21-7,7.87-10.22C211.11,48.44,197.72,18.25,179.5,32.06Z"/><path class="cls-1" d="M274.18,58.92c-5.81-4-11.15-7.81-15.26-10.72-13.13-9.28-23-1.28-32.07,9.85-2.66,3.26-5.26,6.78-7.87,10.22-10.11,13.35-12,14.85-16.34,17.67a29.25,29.25,0,0,1-5.4,2.63l1.35-.17L163.18,99.18l-.85.24c-5.93,2-10.2,4-11.62,6s0,4.2,5.31,6.67a64.33,64.33,0,0,0,8.38,3.11c35,10.63,104.47,17.44,88.45,33.46,22.24-21,40.73-46.55,57.31-68.31L311.24,79C301.75,76.9,286.84,67.57,274.18,58.92Z"/><path class="cls-6" d="M274.18,58.92c-5.81-4-11.15-7.81-15.26-10.72-13.13-9.28-23-1.28-32.07,9.85-2.66,3.26-5.26,6.78-7.87,10.22-10.11,13.35-12,14.85-16.34,17.67a29.25,29.25,0,0,1-5.4,2.63l1.35-.17L163.18,99.18l-.85.24c-5.93,2-10.2,4-11.62,6s0,4.2,5.31,6.67a64.33,64.33,0,0,0,8.38,3.11c35,10.63,104.47,17.44,88.45,33.46,22.24-21,40.73-46.55,57.31-68.31L311.24,79C301.75,76.9,286.84,67.57,274.18,58.92Z"/><path class="cls-1" d="M311.24,79l-1.08,1.42c-16.58,21.76-35.07,47.27-57.31,68.31-20.95,20.95-56.15,31.5,10.51,31.5h83.3V40C335.4,48.19,323.87,62.43,311.24,79Z"/><path id="Path_107-3" data-name="Path 107" class="cls-1" d="M221.57,97.37a21.22,21.22,0,0,0-21.21,21.22h0c0,22.8,21.21,37.63,21.21,37.63h0s21.54-15.06,21.21-38.16a21.13,21.13,0,0,0-21.21-20.69Z"/><path id="Path_107-4" data-name="Path 107" class="cls-7" d="M227.69,91.26a21.21,21.21,0,0,0-21.22,21.21h0c0,22.81,21.21,37.63,21.22,37.64h0S249.23,135.05,248.9,112a21.14,21.14,0,0,0-21.21-20.69Z"/><path class="cls-3" d="M235.56,113.69h2v2h-2a8.57,8.57,0,0,1-3.94-1,8.54,8.54,0,0,1-7.87,0,8.56,8.56,0,0,1-3.93,1h-2v-2h2a6.88,6.88,0,0,0,3.93-1.31,6.77,6.77,0,0,0,7.87,0,6.91,6.91,0,0,0,3.94,1.31m0-5.91h2v2h-2a8.57,8.57,0,0,1-3.94-1,8.54,8.54,0,0,1-7.87,0,8.56,8.56,0,0,1-3.93,1h-2v-2h2a6.87,6.87,0,0,0,3.93-1.3,6.77,6.77,0,0,0,7.87,0,6.9,6.9,0,0,0,3.94,1.3m0,11.81h2v2h-2a8.59,8.59,0,0,1-3.94-1,8.54,8.54,0,0,1-7.87,0,8.58,8.58,0,0,1-3.93,1h-2v-2h2a6.81,6.81,0,0,0,3.93-1.31,6.77,6.77,0,0,0,7.87,0A6.84,6.84,0,0,0,235.56,119.59Z"/><path class="cls-8" d="M132.85,56.45l-18.94,51.63h3.85a1.45,1.45,0,0,1,.21-.41c3.16-4.14,14.78-7.88,29.78-11.12L168,41.49C152.67,54.79,144.2,64.32,132.85,56.45Z"/><path class="cls-9" d="M189.76,28.5,166.07,93.08c2.78-.47,5.6-.93,8.44-1.36l22.37-60.95A16.65,16.65,0,0,0,189.76,28.5Z"/><path class="cls-10" d="M202.56,34.86,182.12,90.58l4.19-.59L205.53,37.6C204.55,36.64,203.56,35.72,202.56,34.86Z"/></g></g></svg>