<svg xmlns="http://www.w3.org/2000/svg" viewBox="0 0 13.7 12.42"><defs><style>.cls-1{fill:#ef5050;}</style></defs><g id="Layer_2" data-name="Layer 2"><g id="Layer_1-2" data-name="Layer 1"><path class="cls-1" d="M13.09,1.45H10.27v-1A.43.43,0,0,0,9.84,0h-6a.43.43,0,0,0-.43.43v1H.61a.6.6,0,0,0-.61.6v9.77a.6.6,0,0,0,.61.6H13.09a.6.6,0,0,0,.61-.6V2.05A.6.6,0,0,0,13.09,1.45Zm-6.24,9a3.52,3.52,0,1,1,3.51-3.52A3.53,3.53,0,0,1,6.85,10.46Z"/><circle class="cls-1" cx="6.85" cy="6.95" r="2.05"/></g></g></svg>