<svg xmlns="http://www.w3.org/2000/svg" viewBox="0 0 16 16"><defs><style>.cls-1{fill:#ef5050;}.cls-2{fill:#fff;}</style></defs><g id="Layer_2" data-name="Layer 2"><g id="Layer_1-2" data-name="Layer 1"><path class="cls-1" d="M8,0a8,8,0,1,0,8,8A8,8,0,0,0,8,0Z"/><path class="cls-2" d="M5.16,11.38H7.58V10h.81v1.41h2.42V4.11H5.16Zm4-6.46H10v.81H9.2Zm0,1.62H10v.8H9.2Zm0,1.61H10V9H9.2Zm0,1.62H10v.8H9.2ZM7.58,4.92h.81v.81H7.58Zm0,1.62h.81v.8H7.58Zm0,1.61h.81V9H7.58ZM6,4.92h.8v.81H6ZM6,6.54h.8v.8H6ZM6,8.15h.8V9H6ZM6,9.77h.8v.8H6Z"/></g></g></svg>