<svg xmlns="http://www.w3.org/2000/svg" viewBox="0 0 11.7 15.05"><defs><style>.cls-1{fill:#ef5050;}</style></defs><g id="Layer_2" data-name="Layer 2"><g id="Layer_1-2" data-name="Layer 1"><path class="cls-1" d="M0,0V15.05H5V12.12H6.69v2.93h5V0H0M1.67,1.67H3.34V3.34H1.67V1.67M5,1.67H6.69V3.34H5V1.67m3.34,0H10V3.34H8.36V1.67M1.67,5H3.34V6.69H1.67V5M5,5H6.69V6.69H5V5M8.36,5H10V6.69H8.36V5M1.67,8.36H3.34V10H1.67V8.36M5,8.36H6.69V10H5V8.36m3.34,0H10V10H8.36V8.36M1.67,11.7H3.34v1.68H1.67V11.7m6.69,0H10v1.68H8.36Z"/></g></g></svg>