<svg xmlns="http://www.w3.org/2000/svg" width="24.014" height="33.302" viewBox="0 0 24.014 33.302">
  <g id="Group_435" data-name="Group 435" transform="translate(-4612.876 -5826.078)">
    <path id="Path_138" data-name="Path 138" d="M17.89,4.12c-6.41.49-11.31,6.42-11,12.84.52,12.41,12,20.42,12,20.42h0s12-8.39,12-21.29a12,12,0,0,0-13-11.97Z" transform="translate(4606 5822)" fill="#fff"/>
    <path id="Path_136" data-name="Path 136" d="M18.19,35.56c-3-2.51-10-9.34-10.35-18.69-.25-6,4.39-11.36,10.12-11.8h.87a11,11,0,0,1,11,11c0,9.76-7.24,16.9-10.36,19.52l-.64.54Z" transform="translate(4606 5822)" fill="#ef5050"/>
    <path id="Path_137" data-name="Path 137" d="M14.58,10.88v10.9h3.63V19.66h1.21v2.12h3.63V10.88Zm1.21,3.63H17v1.22H15.79ZM17,20.57H15.79V19.36H17Zm0-2.42H15.79V16.94H17Zm0-4.85H15.79V12.09H17Zm2.42,4.85H18.21V16.94h1.21Zm0-2.42H18.21V14.51h1.21Zm0-2.43H18.21V12.09h1.21Zm2.42,7.27H20.63V19.36h1.21Zm0-2.42H20.63V16.94h1.21Zm0-2.42H20.63V14.51h1.21Zm0-2.43H20.63V12.09h1.21Z" transform="translate(4606 5822)" fill="#fff"/>
  </g>
</svg>
