<svg xmlns="http://www.w3.org/2000/svg" viewBox="0 0 16 16"><defs><style>.cls-1{fill:#fff;}.cls-2{fill:#ef5050;}</style></defs><g id="Layer_2" data-name="Layer 2"><g id="Layer_1-2" data-name="Layer 1"><circle class="cls-1" cx="8" cy="8" r="7.5"/><rect class="cls-2" x="7.58" y="8.15" width="0.81" height="0.81"/><polygon class="cls-2" points="10 4.92 9.2 4.92 9.2 4.92 9.2 5.73 10 5.73 10 4.92"/><rect class="cls-2" x="5.97" y="4.92" width="0.81" height="0.81"/><rect class="cls-2" x="5.97" y="8.15" width="0.81" height="0.81"/><polygon class="cls-2" points="10 6.54 9.2 6.54 9.2 6.54 9.2 7.34 10 7.34 10 6.54"/><rect class="cls-2" x="7.58" y="4.92" width="0.81" height="0.81"/><rect class="cls-2" x="5.97" y="9.77" width="0.81" height="0.81"/><rect class="cls-2" x="7.58" y="6.54" width="0.81" height="0.81"/><rect class="cls-2" x="9.2" y="9.77" width="0.81" height="0.81"/><polygon class="cls-2" points="10 8.15 9.2 8.15 9.2 8.15 9.2 8.96 10 8.96 10 8.15"/><path class="cls-2" d="M8,0a8,8,0,1,0,8,8A8,8,0,0,0,8,0Zm2.81,11.38H8.39V10H7.58v1.41H5.16V4.11h5.65Z"/><rect class="cls-2" x="5.97" y="6.54" width="0.81" height="0.81"/></g></g></svg>