<svg xmlns="http://www.w3.org/2000/svg" viewBox="0 0 24 24"><defs><style>.cls-1{fill:#ef5050;}.cls-2{fill:#fff;}</style></defs><g id="Layer_2" data-name="Layer 2"><g id="Layer_1-2" data-name="Layer 1"><path class="cls-1" d="M12,0A12,12,0,1,0,24,12,12,12,0,0,0,12,0Z"/><path class="cls-2" d="M7.74,17.07h3.63V15h1.22v2.12h3.63V6.17H7.74ZM13.8,7.38H15V8.59H13.8Zm0,2.43H15V11H13.8Zm0,2.42H15v1.21H13.8Zm0,2.42H15v1.21H13.8ZM11.37,7.38h1.22V8.59H11.37Zm0,2.43h1.22V11H11.37Zm0,2.42h1.22v1.21H11.37ZM9,7.38h1.21V8.59H9ZM9,9.81h1.21V11H9Zm0,2.42h1.21v1.21H9Zm0,2.42h1.21v1.21H9Z"/></g></g></svg>