<svg xmlns="http://www.w3.org/2000/svg" viewBox="0 0 15.28 14.98"><defs><style>.cls-1{fill:#e49d16;}</style></defs><g id="Layer_2" data-name="Layer 2"><g id="Layer_1-2" data-name="Layer 1"><polygon class="cls-1" points="12.84 5.2 12.32 0 10.76 0 10.24 5.2 7.64 3.12 7.64 5.2 5.04 3.12 5.04 5.2 2.44 3.12 2.44 8.92 12.84 8.92 12.84 5.2"/><polygon class="cls-1" points="8.29 9.76 5.17 9.76 5.17 9.76 2.56 12.37 5.68 12.37 5.68 12.37 8.29 9.76"/><polygon class="cls-1" points="12.72 9.76 9.6 9.76 9.6 9.76 6.99 12.37 10.11 12.37 10.11 12.37 12.72 9.76"/><polygon class="cls-1" points="14.03 9.76 14.03 9.76 11.41 12.37 13.41 12.37 13.41 14.98 14.34 14.98 14.34 12.37 15.28 12.37 15.28 9.76 14.03 9.76"/><polygon class="cls-1" points="3.87 9.76 0 9.76 0 12.37 1.19 12.37 1.19 14.98 2.12 14.98 2.12 12.37 1.25 12.37 3.87 9.76"/></g></g></svg>