<svg xmlns="http://www.w3.org/2000/svg" viewBox="0 0 24 24"><defs><style>.cls-1{fill:#fff;}.cls-2{fill:#3e7cf4;}</style></defs><g id="Layer_2" data-name="Layer 2"><g id="Layer_1-2" data-name="Layer 1"><circle class="cls-1" cx="12" cy="12" r="11.25"/><path class="cls-2" d="M12,0A12,12,0,1,0,24,12,12,12,0,0,0,12,0Zm2.9,9.92a1.47,1.47,0,1,1,1.47,1.48A1.47,1.47,0,0,1,14.9,9.92ZM12,7.68a1.84,1.84,0,1,1-1.84,1.84A1.84,1.84,0,0,1,12,7.68ZM6.16,9.92A1.47,1.47,0,1,1,7.63,11.4,1.47,1.47,0,0,1,6.16,9.92Zm1.19,4.6v.24H4.69v-.84s0-1.68,2.94-1.68a5.63,5.63,0,0,1,1,.09A2.84,2.84,0,0,0,7.35,14.52Zm8.33,1.05H8.32V14.52a2.06,2.06,0,0,1,1.51-1.76A6,6,0,0,1,12,12.41a6,6,0,0,1,2.17.35,2.06,2.06,0,0,1,1.51,1.76Zm3.64-.81H16.65v-.25a2.86,2.86,0,0,0-1.27-2.18,5.52,5.52,0,0,1,1-.09c2.95,0,2.95,1.68,2.95,1.68Z"/></g></g></svg>