<svg xmlns="http://www.w3.org/2000/svg" viewBox="0 0 16 16"><defs><style>.cls-1{fill:#fff;}.cls-2{fill:#3e7cf4;}</style></defs><g id="Layer_2" data-name="Layer 2"><g id="Layer_1-2" data-name="Layer 1"><circle class="cls-1" cx="8" cy="8" r="7.5"/><path class="cls-2" d="M8,0a8,8,0,1,0,8,8A8,8,0,0,0,8,0ZM9.93,6.61a1,1,0,1,1,1,1,1,1,0,0,1-1-1ZM8,5.12A1.23,1.23,0,1,1,6.77,6.34,1.23,1.23,0,0,1,8,5.12ZM4.1,6.61a1,1,0,1,1,1,1,1,1,0,0,1-1-1Zm.8,3.07v.16H3.12V9.28s0-1.12,2-1.12a3.68,3.68,0,0,1,.66.06A1.89,1.89,0,0,0,4.9,9.68Zm5.56.7H5.55v-.7a1.39,1.39,0,0,1,1-1.18A4.14,4.14,0,0,1,8,8.27a4.14,4.14,0,0,1,1.44.23,1.41,1.41,0,0,1,1,1.18Zm2.42-.54H11.1V9.68a1.89,1.89,0,0,0-.85-1.46,3.68,3.68,0,0,1,.66-.06c2,0,2,1.12,2,1.12Z"/></g></g></svg>