<svg xmlns="http://www.w3.org/2000/svg" viewBox="0 0 16 16"><defs><style>.cls-1{fill:#fff;}.cls-2{fill:#2076d2;}</style></defs><g id="Layer_2" data-name="Layer 2"><g id="Layer_1-2" data-name="Layer 1"><circle class="cls-1" cx="8" cy="8" r="8"/><path class="cls-2" d="M8,0a8,8,0,1,0,8,8A8,8,0,0,0,8,0Zm4.23,6.26A1.19,1.19,0,1,1,11,7.44,1.18,1.18,0,0,1,12.23,6.26ZM8,3.72A1.18,1.18,0,1,1,6.82,4.9,1.18,1.18,0,0,1,8,3.72ZM3.77,6.26A1.19,1.19,0,1,1,2.59,7.44,1.18,1.18,0,0,1,3.77,6.26Zm1.38,5.09H2.39a.55.55,0,0,1-.54-.55,1.93,1.93,0,1,1,3.85,0A.55.55,0,0,1,5.15,11.35ZM9.38,8.8H6.62a.55.55,0,0,1-.55-.55,1.93,1.93,0,0,1,3.86,0A.55.55,0,0,1,9.38,8.8Zm4.23,2.55H10.85a.55.55,0,0,1-.55-.55,1.93,1.93,0,1,1,3.86,0A.55.55,0,0,1,13.61,11.35Z"/></g></g></svg>