<svg xmlns="http://www.w3.org/2000/svg" viewBox="0 0 20.2 10.9"><defs><style>.cls-1{fill:#3e7cf4;}</style></defs><g id="Layer_2" data-name="Layer 2"><g id="Layer_1-2" data-name="Layer 1"><path class="cls-1" d="M20.2,8.62s0-2.32-4.06-2.32a7.79,7.79,0,0,0-1.38.12,3.92,3.92,0,0,1,1.76,3v.35H20.2Z"/><path class="cls-1" d="M16.14,5.14a2,2,0,1,0-2-2A2,2,0,0,0,16.14,5.14Z"/><path class="cls-1" d="M5.44,6.42A7.76,7.76,0,0,0,4.07,6.3C0,6.3,0,8.62,0,8.62V9.79H3.68V9.44A4,4,0,0,1,5.44,6.42Z"/><path class="cls-1" d="M4.07,5.14a2,2,0,1,0-2-2A2,2,0,0,0,4.07,5.14Z"/><path class="cls-1" d="M13.09,7a8.22,8.22,0,0,0-3-.47,8.26,8.26,0,0,0-3,.47A2.86,2.86,0,0,0,5,9.44V10.9H15.19V9.44A2.89,2.89,0,0,0,13.09,7Z"/><circle class="cls-1" cx="10.1" cy="2.54" r="2.54"/></g></g></svg>