<svg xmlns="http://www.w3.org/2000/svg" width="23.954" height="33.287" viewBox="0 0 23.954 33.287">
  <g id="Group_437" data-name="Group 437" transform="translate(-4703.536 -5827.713)">
    <path id="Path_142" data-name="Path 142" d="M17.55,4.75c-6.41.49-11.31,6.42-11,12.84C7,30,18.49,38,18.49,38h0s12-8.39,12-21.3A12,12,0,0,0,17.55,4.75Z" transform="translate(4697 5823)" fill="#fff"/>
    <path id="Path_143" data-name="Path 143" d="M17.85,36.08c-3-2.5-10-9.34-10.34-18.68C7.26,11.44,11.89,6,17.63,5.6a8.38,8.38,0,0,1,.86,0,11,11,0,0,1,11,11c0,9.75-7.25,16.9-10.36,19.51l-.65.54Z" transform="translate(4697 5823)" fill="#3e7cf4"/>
    <path id="Path_144" data-name="Path 144" d="M21.39,15.25a1.47,1.47,0,1,1,.434,1.043,1.48,1.48,0,0,1-.434-1.043ZM18.5,13a1.84,1.84,0,1,1-1.84,1.84A1.84,1.84,0,0,1,18.5,13Zm-5.85,2.25a1.47,1.47,0,1,1,.434,1.043,1.48,1.48,0,0,1-.434-1.043Zm1.2,4.59v.25H11.18v-.84s0-1.69,3-1.69a5.52,5.52,0,0,1,1,.09A2.87,2.87,0,0,0,13.85,19.84Zm8.33,1.05H14.82V19.84a2.07,2.07,0,0,1,1.51-1.76,5.74,5.74,0,0,1,2.17-.34,5.66,5.66,0,0,1,2.16.34,2.07,2.07,0,0,1,1.52,1.76Zm3.63-.8H23.15v-.25a2.86,2.86,0,0,0-1.28-2.19,5.55,5.55,0,0,1,1-.09c2.94,0,2.94,1.69,2.94,1.69Z" transform="translate(4697 5823)" fill="#fff"/>
  </g>
</svg>
