<svg xmlns="http://www.w3.org/2000/svg" viewBox="0 0 16 16"><defs><style>.cls-1{fill:#fff;}.cls-2{fill:#ef5050;}</style></defs><g id="Layer_2" data-name="Layer 2"><g id="Layer_1-2" data-name="Layer 1"><circle class="cls-1" cx="8" cy="8" r="7.5"/><path class="cls-2" d="M8,0a8,8,0,1,0,8,8A8,8,0,0,0,8,0Zm.7,11.38h-4V11a.81.81,0,0,1,.81-.81H7.89A.81.81,0,0,1,8.7,11Zm3.25,0L8.06,7.49l-.9.91.27.28-.14.14L7.11,9,7,9.1a.19.19,0,0,1-.28,0l-2-2a.21.21,0,0,1,0-.29l.1-.1L5,6.54l.14-.14.27.27L7.84,4.26l-.13-.14h0L7.56,4l.33-.32L8,3.55a.21.21,0,0,1,.29,0l2,2a.19.19,0,0,1,0,.28l-.1.11L10,6.12l-.15.14L9.7,6.12h0L9.57,6l-.94.93,3.89,3.89Z"/></g></g></svg>