<svg xmlns="http://www.w3.org/2000/svg" viewBox="0 0 24 24"><defs><style>.cls-1{fill:#fff;}.cls-2{fill:#ef5050;}</style></defs><g id="Layer_2" data-name="Layer 2"><g id="Layer_1-2" data-name="Layer 1"><circle class="cls-1" cx="12" cy="12" r="11.25"/><path class="cls-2" d="M12,0A12,12,0,1,0,24,12,12,12,0,0,0,12,0Zm1.05,17.07H7v-.6a1.22,1.22,0,0,1,1.22-1.21h3.63a1.21,1.21,0,0,1,1.21,1.21Zm4.87,0L12.1,11.24,10.74,12.6l.41.42-.22.21-.27.27-.16.16a.29.29,0,0,1-.42,0l-3-3a.3.3,0,0,1,0-.43l.16-.16.27-.27.22-.22.41.42,3.62-3.62-.2-.2h0L11.35,6l.49-.48L12,5.33a.3.3,0,0,1,.43,0l3,3a.3.3,0,0,1,0,.43l-.15.16L15,9.18l-.21.21-.22-.21h0L14.36,9,13,10.39l5.83,5.82Z"/></g></g></svg>