<svg xmlns="http://www.w3.org/2000/svg" viewBox="0 0 16.28 16.33"><defs><style>.cls-1{fill:#ef5050;}</style></defs><g id="Layer_2" data-name="Layer 2"><g id="Layer_1-2" data-name="Layer 1"><path class="cls-1" d="M6.9.12,6.68.34h0L6,1l.29.29h0l.28.27-5,5L1,6l-.3.29-.37.38L.12,6.9a.42.42,0,0,0,0,.59l4.14,4.13a.42.42,0,0,0,.59,0l.21-.21L5.44,11l.29-.3-.56-.57L7.05,8.29l8,8,1.19-1.18-8-8,1.94-1.93.27.27h0l.29.29.3-.29.38-.38.21-.21a.42.42,0,0,0,0-.59L7.49.12A.42.42,0,0,0,6.9.12Z"/><path class="cls-1" d="M1.67,13.82A1.68,1.68,0,0,0,0,15.5v.83H8.36V15.5a1.68,1.68,0,0,0-1.67-1.68Z"/></g></g></svg>