<svg xmlns="http://www.w3.org/2000/svg" width="24.014" height="33.312" viewBox="0 0 24.014 33.312">
  <g id="Group_438" data-name="Group 438" transform="translate(-4753.876 -5830.528)">
    <path id="Path_146" data-name="Path 146" d="M17.89,4.57c-6.41.49-11.31,6.43-11,12.84.52,12.41,12,20.42,12,20.43h0s12-8.4,12-21.3a12,12,0,0,0-13-11.97Z" transform="translate(4747 5826)" fill="#fff"/>
    <path id="Path_145" data-name="Path 145" d="M18.19,36.18c-3-2.51-10-9.34-10.35-18.69-.25-6,4.39-11.36,10.12-11.8h.87a11,11,0,0,1,11,11c0,9.76-7.24,16.9-10.36,19.52l-.64.54Z" transform="translate(4747 5826)" fill="#ef5050"/>
    <path id="Path_147" data-name="Path 147" d="M19.88,21.61h-6V21A1.21,1.21,0,0,1,15,19.79h3.63A1.21,1.21,0,0,1,19.88,21Zm4.88,0-5.83-5.82-1.36,1.36.41.41-.21.21-.28.28-.15.15a.3.3,0,0,1-.43,0l-3-3a.3.3,0,0,1,0-.43l.15-.15.28-.28.21-.21.41.41,3.62-3.62-.2-.2h0l-.21-.21.49-.49.15-.15a.31.31,0,0,1,.43,0l3,3a.3.3,0,0,1,0,.43l-.15.15-.27.27-.22.22-.21-.22h0l-.2-.19-1.4,1.4,5.82,5.83Z" transform="translate(4747 5826)" fill="#fff"/>
  </g>
</svg>
