<svg xmlns="http://www.w3.org/2000/svg" viewBox="0 0 16 16"><defs><style>.cls-1{fill:#fff;}.cls-2{fill:#324978;}</style></defs><g id="Layer_2" data-name="Layer 2"><g id="Layer_1-2" data-name="Layer 1"><circle class="cls-1" cx="8" cy="8" r="7.5"/><path class="cls-2" d="M8,0a8,8,0,1,0,8,8A8,8,0,0,0,8,0Zm3.26,12L9,9.7V9.34l-.13-.12A3,3,0,1,1,6.94,4h0a3,3,0,0,1,3,3,3,3,0,0,1-.7,1.92L9.31,9h.36l2.27,2.27Z"/><path class="cls-2" d="M7,4.94h0a2,2,0,0,0-2,2V7a2,2,0,0,0,2,2h0A2,2,0,0,0,9,7V7A2,2,0,0,0,7,4.94Z"/></g></g></svg>