<svg xmlns="http://www.w3.org/2000/svg" width="24.014" height="33.312" viewBox="0 0 24.014 33.312">
  <g id="Group_439" data-name="Group 439" transform="translate(-4798 -5831)">
    <path id="Path_148" data-name="Path 148" d="M17.89,4.57c-6.41.49-11.31,6.43-11,12.84.52,12.41,12,20.42,12,20.43h0s12-8.4,12-21.3a12,12,0,0,0-13-11.97Z" transform="translate(4791.124 5826.472)" fill="#fff"/>
    <path id="Path_101" data-name="Path 101" d="M18.32,36.18c-3-2.51-10-9.34-10.34-18.69-.25-6,4.38-11.36,10.12-11.8h.86a11,11,0,0,1,11,11c0,9.76-7.25,16.9-10.36,19.52l-.65.54Z" transform="translate(4791.03 5826.31)" fill="#324978"/>
    <path id="Path_102" data-name="Path 102" d="M21.47,18.07h-.54l-.18-.19a4.43,4.43,0,0,0-3.37-7.3h0a4.43,4.43,0,1,0,2.88,7.79l.19.18v.54l3.4,3.41,1-1Zm-1-3a3.05,3.05,0,0,1-3.07,3h0a3.05,3.05,0,0,1-3-3.07h0a3,3,0,0,1,3.06-3h0a3.06,3.06,0,0,1,3,3.06Z" transform="translate(4791.03 5826.31)" fill="#fff"/>
  </g>
</svg>
