<svg xmlns="http://www.w3.org/2000/svg" viewBox="0 0 24 24"><defs><style>.cls-1{fill:#324978;}.cls-2{fill:#fff;}</style></defs><g id="Layer_2" data-name="Layer 2"><g id="Layer_1-2" data-name="Layer 1"><path class="cls-1" d="M12,0A12,12,0,1,0,24,12,12,12,0,0,0,12,0Z"/><path class="cls-2" d="M14,13.53l-.18-.18A4.43,4.43,0,0,0,10.42,6h0a4.43,4.43,0,0,0,0,8.86,4.5,4.5,0,0,0,2.89-1.06l.18.18v.54L16.89,18l1-1L14.5,13.53Zm-.48-3a3.06,3.06,0,0,1-3.07,3h0a3.05,3.05,0,0,1-3-3.07v0a3.06,3.06,0,0,1,3.06-3h0a3.05,3.05,0,0,1,3,3.07Z"/></g></g></svg>