<svg xmlns="http://www.w3.org/2000/svg" width="24.014" height="33.312" viewBox="0 0 24.014 33.312">
  <g id="Group_440" data-name="Group 440" transform="translate(-4847 -5830)">
    <path id="Path_149" data-name="Path 149" d="M17.89,4.57c-6.41.49-11.31,6.43-11,12.84.52,12.41,12,20.42,12,20.43h0s12-8.4,12-21.3a12,12,0,0,0-13-11.97Z" transform="translate(4840.124 5825.472)" fill="#fff"/>
    <path id="Path_104" data-name="Path 104" d="M18.19,36.4c-3-2.5-10-9.34-10.35-18.68-.25-6,4.39-11.37,10.12-11.8a8.57,8.57,0,0,1,.87,0,11,11,0,0,1,11,11c0,9.75-7.24,16.9-10.36,19.51l-.64.54Z" transform="translate(4840.169 5825.091)" fill="#e49d16"/>
    <path id="Path_105" data-name="Path 105" d="M19.52,12.13h1.81v6.06L19.52,20Zm-3,2.42h1.82v4.64l-1-.81-.86.8Zm-3,2.42h1.82V20.3l-1.82,1.78ZM25,20l-1.09-1.08-4.36,4.33-2.1-1.83-2.29,2.22h-1.7l3.92-3.84,2.14,1.8L23,18.07,21.94,17h3Z" transform="translate(4840.169 5825.091)" fill="#fff"/>
  </g>
</svg>
