<svg xmlns="http://www.w3.org/2000/svg" viewBox="0 0 16 16"><defs><style>.cls-1{fill:#fff;}.cls-2{fill:#324978;}</style></defs><g id="Layer_2" data-name="Layer 2"><g id="Layer_1-2" data-name="Layer 1"><circle class="cls-1" cx="8" cy="8" r="7.5"/><path class="cls-2" d="M8,0a8,8,0,1,0,8,8A8,8,0,0,0,8,0Zm2.67,4,.57.57-.86.85-.57-.56Zm-3.12-1h.81V4.28H7.55ZM8,5.17a2.2,2.2,0,0,1,2.2,2.2V10H5.76V7.37A2.19,2.19,0,0,1,8,5.17ZM5.25,4l.85.86-.56.56L4.68,4.6ZM3.72,6.91H4.93v.8H3.72Zm7.47,4.92H4.73V10.62h6.46Zm1-4.12H11v-.8H12.2Z"/></g></g></svg>