<svg xmlns="http://www.w3.org/2000/svg" width="24.014" height="33.312" viewBox="0 0 24.014 33.312">
  <g id="Group_441" data-name="Group 441" transform="translate(-4894 -5830)">
    <path id="Path_150" data-name="Path 150" d="M17.89,4.57c-6.41.49-11.31,6.43-11,12.84.52,12.41,12,20.42,12,20.43h0s12-8.4,12-21.3a12,12,0,0,0-13-11.97Z" transform="translate(4887.124 5825.472)" fill="#fff"/>
    <path id="Path_107" data-name="Path 107" d="M17.42,36.18c-3-2.51-10-9.34-10.34-18.69-.25-6,4.38-11.36,10.12-11.8h.86a11,11,0,0,1,11,11c0,9.76-7.25,16.9-10.36,19.52l-.65.54Z" transform="translate(4887.93 5825.31)" fill="#324978"/>
    <path id="Path_108" data-name="Path 108" d="M22.11,11l.85.86L21.67,13.1l-.85-.85ZM17.43,9.53h1.21v1.82H17.43ZM18,12.68a3.3,3.3,0,0,1,3.3,3.3v3.93H14.73V16A3.3,3.3,0,0,1,18,12.68ZM14,11l1.28,1.29-.85.85-1.29-1.28Zm-2.29,4.32H13.5v1.21H11.68Zm11.2,7.4H13.19V20.86h9.69Zm1.51-6.19H22.58V15.28h1.81Z" transform="translate(4887.93 5825.31)" fill="#fff"/>
  </g>
</svg>
