<svg xmlns="http://www.w3.org/2000/svg" viewBox="0 0 24 24"><defs><style>.cls-1{fill:#fff;}.cls-2{fill:#324978;}</style></defs><g id="Layer_2" data-name="Layer 2"><g id="Layer_1-2" data-name="Layer 1"><circle class="cls-1" cx="12" cy="12" r="11.25"/><path class="cls-2" d="M12,0A12,12,0,1,0,24,12,12,12,0,0,0,12,0Zm4,6,.85.86L15.57,8.18l-.85-.85ZM11.33,4.61h1.21V6.42H11.33Zm.61,3.14a3.3,3.3,0,0,1,3.3,3.3V15H8.64V11.05A3.3,3.3,0,0,1,11.94,7.75ZM7.87,6,9.15,7.33l-.84.85L7,6.9ZM5.58,10.36H7.4v1.21H5.58Zm11.2,7.39H7.09V15.94h9.69Zm1.52-6.18H16.48V10.36H18.3Z"/></g></g></svg>