<svg xmlns="http://www.w3.org/2000/svg" width="24.014" height="33.312" viewBox="0 0 24.014 33.312">
  <g id="Group_443" data-name="Group 443" transform="translate(-4986 -5831)">
    <path id="Path_152" data-name="Path 152" d="M17.89,4.57c-6.41.49-11.31,6.43-11,12.84.52,12.41,12,20.42,12,20.43h0s12-8.4,12-21.3a12,12,0,0,0-13-11.97Z" transform="translate(4979.124 5826.472)" fill="#fff"/>
    <path id="Path_113" data-name="Path 113" d="M17.5,36.19c-3-2.51-9.95-9.34-10.34-18.69-.25-6,4.38-11.36,10.12-11.8h.87a11,11,0,0,1,11,11c0,9.76-7.24,16.9-10.36,19.52l-.64.54Z" transform="translate(4979.85 5826.3)" fill="#324978"/>
    <path id="Path_114" data-name="Path 114" d="M22.26,21.21H19.84V17.58H16.67v3.63H14.25V11.52h2.42v3.64h3.17V11.52h2.42Z" transform="translate(4979.85 5826.3)" fill="#fff"/>
  </g>
</svg>
