<svg xmlns="http://www.w3.org/2000/svg" width="24.014" height="33.312" viewBox="0 0 24.014 33.312">
  <g id="Group_444" data-name="Group 444" transform="translate(-5035 -5830)">
    <path id="Path_153" data-name="Path 153" d="M17.89,4.57c-6.41.49-11.31,6.43-11,12.84.52,12.41,12,20.42,12,20.43h0s12-8.4,12-21.3a12,12,0,0,0-13-11.97Z" transform="translate(5028.124 5825.472)" fill="#fff"/>
    <path id="Path_116" data-name="Path 116" d="M17.5,35.56c-3-2.51-9.94-9.34-10.34-18.69-.25-6,4.39-11.36,10.12-11.8h.87a11,11,0,0,1,11,11c0,9.76-7.24,16.9-10.36,19.52l-.64.54Z" transform="translate(5028.85 5825.93)" fill="#ef5050"/>
    <path id="Path_117" data-name="Path 117" d="M23.33,20.75V19.54h-.91V15.31h.91V14.09h-.94a4.24,4.24,0,0,0-8.42,0H13v1.22h.91v4.23H13v1.21h-.91V22H24.23V20.75Zm-5.76-1.21H15.15V15.31h2.42Zm3.64,0H18.78V15.31h2.43Z" transform="translate(5028.85 5825.93)" fill="#fff"/>
  </g>
</svg>
