<svg xmlns="http://www.w3.org/2000/svg" width="24.014" height="33.312" viewBox="0 0 24.014 33.312">
  <g id="Group_445" data-name="Group 445" transform="translate(-5080 -5831)">
    <path id="Path_154" data-name="Path 154" d="M17.89,4.57c-6.41.49-11.31,6.43-11,12.84.52,12.41,12,20.42,12,20.43h0s12-8.4,12-21.3a12,12,0,0,0-13-11.97Z" transform="translate(5073.124 5826.472)" fill="#fff"/>
    <path id="Path_119" data-name="Path 119" d="M17.5,36.4c-3-2.5-9.94-9.34-10.34-18.68-.25-6,4.39-11.37,10.12-11.8a8.44,8.44,0,0,1,.87,0,11,11,0,0,1,11,11c0,9.75-7.24,16.9-10.36,19.51l-.64.54Z" transform="translate(5073.85 5826.091)" fill="#0c9353"/>
    <path id="Path_120" data-name="Path 120" d="M17,25.49l.37-5.74.52-.11.76-1.24.28.16.42,6.93Zm6.25-5.74-5-2.87-1.07,1.76-4.1.79-.3-.53,5-2.88-1-1.8,1.37-4h.61V16l2.06.05,2.73,3.16Z" transform="translate(5073.85 5826.091)" fill="#fff"/>
  </g>
</svg>
