<svg xmlns="http://www.w3.org/2000/svg" width="24.014" height="33.312" viewBox="0 0 24.014 33.312">
  <g id="Group_446" data-name="Group 446" transform="translate(-5127 -5831)">
    <path id="Path_155" data-name="Path 155" d="M17.89,4.57c-6.41.49-11.31,6.43-11,12.84.52,12.41,12,20.42,12,20.43h0s12-8.4,12-21.3a12,12,0,0,0-13-11.97Z" transform="translate(5120.124 5826.472)" fill="#fff"/>
    <path id="Path_122" data-name="Path 122" d="M17.42,36.4c-3-2.5-10-9.34-10.34-18.68-.25-6,4.38-11.37,10.12-11.8a8.38,8.38,0,0,1,.86,0,11,11,0,0,1,11,11c0,9.75-7.25,16.9-10.36,19.51l-.65.54Z" transform="translate(5120.93 5826.091)" fill="#e49d16"/>
    <path id="Path_123" data-name="Path 123" d="M22.31,20l-4.24,2.31L13.83,20V17.6l4.24,2.31,4.24-2.31Zm2.42-.11H23.52V15.73l-5.45,3L11.41,15.1l6.66-3.64,6.66,3.64Z" transform="translate(5120.93 5826.091)" fill="#fff"/>
  </g>
</svg>
