<svg xmlns="http://www.w3.org/2000/svg" viewBox="0 0 16 16"><defs><style>.cls-1{fill:#fff;}.cls-2{fill:#324978;}</style></defs><g id="Layer_2" data-name="Layer 2"><g id="Layer_1-2" data-name="Layer 1"><circle class="cls-1" cx="8" cy="8" r="7.5"/><path class="cls-2" d="M10.32,7.93l-.19,0a.92.92,0,0,0-.74.88V8.9a.93.93,0,0,0,.43.75.92.92,0,0,0,.5.15.94.94,0,0,0,0-1.87Z"/><path class="cls-2" d="M8,0a8,8,0,1,0,8,8A8,8,0,0,0,8,0ZM4,5.54,7.39,3.73a.28.28,0,0,1,.25,0l3.43,1.81v.75H4ZM7.89,7V9.65H7.14V7ZM5.65,7V9.65H4.9V7ZM4,11.15V10.4H8.44a2.37,2.37,0,0,0,1.06.75Zm8.41.29-.62-.62-.54-.53-.2.11a1.78,1.78,0,0,1-.69.15,1.74,1.74,0,0,1-.69-.15,1.67,1.67,0,0,1,.5-3.2l.19,0A1.68,1.68,0,0,1,12,8.86a1.63,1.63,0,0,1-.26.9l.53.54.62.62Z"/><polygon class="cls-2" points="5.57 5.54 9.46 5.54 7.52 4.51 5.57 5.54"/></g></g></svg>