<svg xmlns="http://www.w3.org/2000/svg" viewBox="0 0 20.59 17.84"><defs><style>.cls-1{fill:#e49d16;}</style></defs><g id="Layer_2" data-name="Layer 2"><g id="Layer_1-2" data-name="Layer 1"><rect class="cls-1" x="2.16" y="7.68" width="1.72" height="6.04"/><path class="cls-1" d="M10.32,15.44H0v1.73H12.77A5.64,5.64,0,0,1,10.32,15.44Z"/><polygon class="cls-1" points="9.05 13.72 9.05 11.9 9.05 7.68 7.33 7.68 7.33 13.72 9.05 13.72"/><path class="cls-1" d="M19.16,15.21,17.94,14a3.89,3.89,0,0,0-3.29-6c-.14,0-.28,0-.42,0a3.9,3.9,0,0,0-1.73.61,3.88,3.88,0,0,0,.57,6.77,3.76,3.76,0,0,0,1.58.34,3.84,3.84,0,0,0,1.59-.34,3.33,3.33,0,0,0,.46-.24L18,16.42l1.44,1.42,1.2-1.19Zm-4.51-1.15A2.17,2.17,0,0,1,12.5,12v-.14a2.16,2.16,0,0,1,1.73-2,1.93,1.93,0,0,1,.42,0,2.16,2.16,0,1,1,0,4.31Z"/><path class="cls-1" d="M16.38,4.23,8.47.07a.61.61,0,0,0-.56,0L0,4.23V6H16.38ZM3.7,4.23,8.19,1.87l4.49,2.36Z"/></g></g></svg>