<svg xmlns="http://www.w3.org/2000/svg" viewBox="0 0 24 24"><defs><style>.cls-1{fill:#fff;}.cls-2{fill:#e49d16;}</style></defs><g id="Layer_2" data-name="Layer 2"><g id="Layer_1-2" data-name="Layer 1"><circle class="cls-1" cx="12" cy="12" r="11.25"/><path class="cls-2" d="M12,0A12,12,0,1,0,24,12,12,12,0,0,0,12,0ZM6,8.31,11.09,5.6a.4.4,0,0,1,.37,0L16.6,8.31V9.43h-.24L12.85,7.6l-1.58-.83L8.35,8.31h5.83l2.11,1.12H6Zm5.89,2.24v3.93H10.71V10.55Zm-3.37,0v3.93H7.35V10.55ZM6,16.72V15.6h6.71a3.53,3.53,0,0,0,1.59,1.12Zm12.61.44-.94-.92-.81-.8a2.11,2.11,0,0,1-.3.16,2.54,2.54,0,0,1-1,.22,2.53,2.53,0,0,1-1.4-4.63,2.68,2.68,0,0,1,1.12-.39,2.4,2.4,0,0,1,.28,0A2.52,2.52,0,0,1,18,13.3a2.59,2.59,0,0,1-.37,1.32l-.84-.84a1.28,1.28,0,0,0,.09-.48,1.41,1.41,0,0,0-1.4-1.41,1.27,1.27,0,0,0-.28,0,1.41,1.41,0,0,0-1.12,1.33v.09a1.41,1.41,0,0,0,.65,1.14,1.37,1.37,0,0,0,.75.22,1.4,1.4,0,0,0,1.3-.89l.84.83.79.81.93.93Z"/></g></g></svg>