<svg xmlns="http://www.w3.org/2000/svg" width="24.014" height="33.312" viewBox="0 0 24.014 33.312">
  <g id="Group_447" data-name="Group 447" transform="translate(-5176 -5831)">
    <path id="Path_156" data-name="Path 156" d="M17.89,4.57c-6.41.49-11.31,6.43-11,12.84.52,12.41,12,20.42,12,20.43h0s12-8.4,12-21.3a12,12,0,0,0-13-11.97Z" transform="translate(5169.124 5826.472)" fill="#fff"/>
    <path id="Path_125" data-name="Path 125" d="M18.32,36.4c-3-2.5-10-9.34-10.34-18.68-.25-6,4.38-11.37,10.12-11.8a8.38,8.38,0,0,1,.86,0,11,11,0,0,1,11,11c0,9.75-7.25,16.9-10.36,19.51l-.65.54Z" transform="translate(5169.03 5826.091)" fill="#e49d16"/>
    <path id="Path_126" data-name="Path 126" d="M22.61,11.85H19.55l.12,1.82H18.24l.13-1.82h-3.1l-1.86,9.69h4.35l.18-3h2l.19,3h4.31ZM18,17.3l.07-1.3.07-1.1H19.7l.12,2.42Z" transform="translate(5169.03 5826.091)" fill="#fff"/>
  </g>
</svg>
