<svg xmlns="http://www.w3.org/2000/svg" viewBox="0 0 16 16"><defs><style>.cls-1{fill:#fff;}.cls-2{fill:#ef5050;}</style></defs><g id="Layer_2" data-name="Layer 2"><g id="Layer_1-2" data-name="Layer 1"><circle class="cls-1" cx="8" cy="8" r="7.5"/><path class="cls-2" d="M8.56,8.32H9.75c.45,0,.6-.15.6-.59V6.84c0-.44-.15-.59-.6-.59H9.39v.59h.36v.89H9.16V6.25h0V6c0-.3,0-.3-.6-.3Z"/><path class="cls-2" d="M7.38,5.65H6.19c-.44,0-.59.15-.59.6V8.32h.59V7.43h0V6.25H7.38v.59h-1v.59h1v.89H8V6.25C8,5.8,7.81,5.65,7.38,5.65Z"/><path class="cls-2" d="M8,0a8,8,0,1,0,8,8A8,8,0,0,0,8,0Zm4,5.12H11.6V9.56H9.28L10,12H9.18l-.7-2.43h-1L6.76,12H6l.71-2.43H4.34V5.12h-.4v-.8H7.16a.81.81,0,0,1,1.62,0H12Z"/></g></g></svg>