<svg xmlns="http://www.w3.org/2000/svg" viewBox="0 0 24 24"><defs><style>.cls-1{fill:#ef5050;}.cls-2{fill:#fff;}</style></defs><g id="Layer_2" data-name="Layer 2"><g id="Layer_1-2" data-name="Layer 1"><path class="cls-1" d="M12,0A12,12,0,1,0,24,12,12,12,0,0,0,12,0Z"/><path class="cls-2" d="M13.17,6.7a1.21,1.21,0,1,0-2.42,0H5.9V7.92h.61v6.66H10L8.93,18.21h1.21l1.06-3.63h1.52l1.06,3.63H15l-1.06-3.63h3.48V7.92H18V6.7Zm-1.21,6h-.89V11.38H9.63v-.89h1.44V9.6H9.29v1.78h0v1.34H8.4V9.6c0-.67.22-.89.89-.89h1.78c.65,0,.89.22.89.89Zm3.56-.89c0,.65-.22.89-.89.89H12.85v-4c.89,0,.89,0,.89.45V9.6h0v2.23h.89V10.49h-.55V9.6h.55c.67,0,.89.22.89.89Z"/></g></g></svg>