<svg xmlns="http://www.w3.org/2000/svg" viewBox="0 0 16.72 17.56"><defs><style>.cls-1{fill:#ef5050;}</style></defs><g id="Layer_2" data-name="Layer 2"><g id="Layer_1-2" data-name="Layer 1"><path class="cls-1" d="M10,1.67a1.67,1.67,0,1,0-3.34,0H0V3.34H.84v9.2h4.8l-1.46,5H5.85l1.46-5H9.4l1.47,5h1.67l-1.46-5h4.8V3.34h.84V1.67Zm2,4c.92,0,1.23.31,1.23,1.23V8.74c0,.91-.31,1.23-1.23,1.23H9.59V4.44c1.23,0,1.23,0,1.23.62v.61ZM4.67,8.13V10H3.44V5.67c0-.92.31-1.23,1.23-1.23H7.13c.9,0,1.23.31,1.23,1.23V10H7.13V8.13Z"/><rect class="cls-1" x="10.82" y="6.9" width="1.23" height="1.84"/><rect class="cls-1" x="4.67" y="5.67" width="2.46" height="1.23"/></g></g></svg>