<svg xmlns="http://www.w3.org/2000/svg" viewBox="0 0 16 16"><defs><style>.cls-1{fill:#ef5050;}.cls-2{fill:#fff;}</style></defs><g id="Layer_2" data-name="Layer 2"><g id="Layer_1-2" data-name="Layer 1"><path class="cls-1" d="M8,0a8,8,0,1,0,8,8A8,8,0,0,0,8,0Z"/><path class="cls-2" d="M8.78,4.47a.81.81,0,0,0-1.62,0H3.93v.81h.41V9.72H6.66L6,12.14h.81l.71-2.42h1l.7,2.42H10L9.28,9.72H11.6V5.28H12V4.47ZM8,8.48H7.38V7.59h-1V7h1V6.4H6.19V7.59h0v.89H5.6V6.4c0-.45.15-.59.59-.59H7.38c.43,0,.59.14.59.59Zm2.37-.6c0,.44-.14.6-.59.6H8.56V5.81c.6,0,.6,0,.6.29v.3h0V7.88h.59V7H9.39V6.4h.36c.45,0,.59.15.59.59Z"/></g></g></svg>