<svg xmlns="http://www.w3.org/2000/svg" width="24.014" height="33.312" viewBox="0 0 24.014 33.312">
  <g id="Group_448" data-name="Group 448" transform="translate(-5221 -5835)">
    <path id="Path_157" data-name="Path 157" d="M17.89,4.57c-6.41.49-11.31,6.43-11,12.84.52,12.41,12,20.42,12,20.43h0s12-8.4,12-21.3a12,12,0,0,0-13-11.97Z" transform="translate(5214.124 5830.472)" fill="#fff"/>
    <path id="Path_128" data-name="Path 128" d="M17.42,35.56c-3-2.51-10-9.34-10.34-18.69-.25-6,4.38-11.36,10.12-11.8h.86a11,11,0,0,1,11,11c0,9.76-7.25,16.9-10.36,19.52l-.65.54Z" transform="translate(5214.93 5830.93)" fill="#ef5050"/>
    <path id="Path_129" data-name="Path 129" d="M19.27,11.49a1.21,1.21,0,0,0-2.42,0H12V12.7h.61v6.66h3.48L15,23h1.21l1.06-3.63h1.51L19.88,23h1.21L20,19.36h3.48V12.7h.6V11.49Zm-1.21,6h-.89V16.17H15.73v-.89h1.44v-.89H15.39v1.78h0V17.5H14.5V14.39c0-.67.22-.89.89-.89h1.78c.65,0,.89.22.89.89Zm3.56-.89c0,.65-.23.89-.89.89H19v-4c.89,0,.89,0,.89.44v.45h0V16.6h.89V15.28h-.55v-.89h.55c.66,0,.89.22.89.89Z" transform="translate(5214.93 5830.93)" fill="#fff"/>
  </g>
</svg>
