<svg xmlns="http://www.w3.org/2000/svg" width="24.014" height="33.312" viewBox="0 0 24.014 33.312">
  <g id="Group_449" data-name="Group 449" transform="translate(-5270 -5835)">
    <path id="Path_158" data-name="Path 158" d="M17.89,4.57c-6.41.49-11.31,6.43-11,12.84.52,12.41,12,20.42,12,20.43h0s12-8.4,12-21.3a12,12,0,0,0-13-11.97Z" transform="translate(5263.124 5830.472)" fill="#fff"/>
    <path id="Path_131" data-name="Path 131" d="M17.61,35.56c-3-2.51-9.95-9.34-10.34-18.69-.25-6,4.38-11.36,10.12-11.8h.86a11,11,0,0,1,11,11c0,9.76-7.25,16.9-10.36,19.52l-.65.54Z" transform="translate(5263.74 5830.93)" fill="#ef5050"/>
    <path id="Path_132" data-name="Path 132" d="M21.93,13.58h0A3.62,3.62,0,0,0,18.3,10h0a3.62,3.62,0,0,0-3.63,3.61c0,2.7,3.63,6.69,3.63,6.69S21.93,16.28,21.93,13.58Zm-4.84,0a1.2,1.2,0,1,1,0,.03Z" transform="translate(5263.74 5830.93)" fill="#fff"/>
    <path id="Path_133" data-name="Path 133" d="M21.26,18.35l-.39.55c.66.27,1.06.65,1.06,1.06,0,.84-1.63,1.52-3.63,1.52S14.67,20.8,14.67,20c0-.41.4-.79,1.06-1.06l-.39-.55c-1.14.44-1.88,1.13-1.88,1.92,0,1.33,2.17,2.42,4.84,2.42s4.84-1.09,4.84-2.42C23.14,19.49,22.41,18.79,21.26,18.35Z" transform="translate(5263.74 5830.93)" fill="#fff"/>
  </g>
</svg>
