<svg xmlns="http://www.w3.org/2000/svg" viewBox="0 0 24 24"><defs><style>.cls-1{fill:#fff;}.cls-2{fill:#ef5050;}</style></defs><g id="Layer_2" data-name="Layer 2"><g id="Layer_1-2" data-name="Layer 1"><circle class="cls-1" cx="12" cy="12" r="11.25"/><path class="cls-2" d="M12,0A12,12,0,1,0,24,12,12,12,0,0,0,12,0Zm-.06,5.28h0a3.62,3.62,0,0,1,3.63,3.6h0c0,2.61-3.41,6.41-3.63,6.66V10.12a1.23,1.23,0,0,0,1.21-1.21,1.21,1.21,0,0,0-2.42,0,1.23,1.23,0,0,0,1.2,1.21v5.42c-.23-.25-3.63-4-3.63-6.66A3.62,3.62,0,0,1,11.94,5.28Zm0,12.7c-2.68,0-4.85-1.09-4.85-2.42,0-.78.74-1.48,1.89-1.92l.38.55c-.65.27-1.06.65-1.06,1.06,0,.84,1.63,1.52,3.64,1.52s3.63-.68,3.63-1.52c0-.41-.41-.79-1.06-1.06l.39-.55c1.14.44,1.88,1.14,1.88,1.92C16.78,16.89,14.61,18,11.94,18Z"/></g></g></svg>