<svg xmlns="http://www.w3.org/2000/svg" viewBox="0 0 16 16"><defs><style>.cls-1{fill:#fff;}.cls-2{fill:#ef5050;}</style></defs><g id="Layer_2" data-name="Layer 2"><g id="Layer_1-2" data-name="Layer 1"><circle class="cls-1" cx="8" cy="8" r="7.5"/><path class="cls-2" d="M8.76,5.93a.81.81,0,1,0-.8.81A.81.81,0,0,0,8.76,5.93Z"/><path class="cls-2" d="M8,0a8,8,0,1,0,8,8A8,8,0,0,0,8,0ZM8,3.51H8a2.41,2.41,0,0,1,2.42,2.4h0c0,1.8-2.42,4.46-2.42,4.46S5.54,7.71,5.54,5.91A2.4,2.4,0,0,1,8,3.51ZM8,12c-1.79,0-3.23-.73-3.23-1.62,0-.52.49-1,1.25-1.28l.26.37c-.43.18-.7.43-.7.71,0,.56,1.08,1,2.42,1s2.42-.45,2.42-1c0-.28-.27-.53-.71-.71l.26-.37c.76.3,1.26.76,1.26,1.28C11.19,11.26,9.74,12,8,12Z"/></g></g></svg>