<svg xmlns="http://www.w3.org/2000/svg" viewBox="0 0 13.38 17.56"><defs><style>.cls-1{fill:#ef5050;}</style></defs><g id="Layer_2" data-name="Layer 2"><g id="Layer_1-2" data-name="Layer 1"><path class="cls-1" d="M6.69,0a5,5,0,0,1,5,5c0,3.73-5,9.24-5,9.24s-5-5.51-5-9.24a5,5,0,0,1,5-5m0,3.34A1.68,1.68,0,1,0,8.36,5,1.67,1.67,0,0,0,6.69,3.34m6.69,10.87c0,1.85-3,3.35-6.69,3.35S0,16.06,0,14.21c0-1.08,1-2,2.6-2.65l.53.76c-.9.38-1.46.9-1.46,1.47,0,1.16,2.25,2.09,5,2.09s5-.93,5-2.09c0-.57-.56-1.09-1.46-1.47l.54-.76C12.36,12.17,13.38,13.13,13.38,14.21Z"/></g></g></svg>