<svg xmlns="http://www.w3.org/2000/svg" width="24.014" height="33.312" viewBox="0 0 24.014 33.312">
  <g id="Group_450" data-name="Group 450" transform="translate(-5315 -5833)">
    <path id="Path_159" data-name="Path 159" d="M17.89,4.57c-6.41.49-11.31,6.43-11,12.84.52,12.41,12,20.42,12,20.43h0s12-8.4,12-21.3a12,12,0,0,0-13-11.97Z" transform="translate(5308.124 5828.472)" fill="#fff"/>
    <path id="Path_135" data-name="Path 135" d="M17.61,36.4c-3-2.5-9.95-9.34-10.34-18.68-.25-6,4.38-11.37,10.12-11.8a8.38,8.38,0,0,1,.86,0,11,11,0,0,1,11,11c0,9.75-7.25,16.9-10.36,19.51l-.65.54Z" transform="translate(5308.74 5828.091)" fill="#0c9353"/>
    <path id="Path_5979" data-name="Path 5979" d="M20.06,16.47,19.63,16l3.16-3.15-1.46-1.46-6.76,6.76V15.87h0A1.65,1.65,0,0,0,16,14.25c0-.83-1.2-2.41-1.44-2.72a.3.3,0,0,0-.25-.12.29.29,0,0,0-.24.12c-.25.31-1.45,1.89-1.45,2.72A1.67,1.67,0,0,0,14,15.87h0v2.92L11.79,21l.69.7L16,18.18l.43.43-3.48,3.47,2.28,2.28,9.53-9.53-1.5-1.51Zm-.14,1.68L16.17,21.9l-.43-.43,3.75-3.74Z" transform="translate(5308.74 5828.091)" fill="#fff"/>
  </g>
</svg>
