<svg xmlns="http://www.w3.org/2000/svg" viewBox="0 0 16 16"><defs><style>.cls-1{fill:#0c9353;}.cls-2{fill:#fff;}</style></defs><g id="Layer_2" data-name="Layer 2"><g id="Layer_1-2" data-name="Layer 1"><circle class="cls-1" cx="8" cy="8" r="8"/><path id="Path_5979" data-name="Path 5979" class="cls-2" d="M9.18,7.06l-.29-.29L11,4.67l-1-1L5.51,8.2V6.66h0a1.11,1.11,0,0,0,.92-1.08,4.6,4.6,0,0,0-1-1.82.21.21,0,0,0-.16-.08.21.21,0,0,0-.17.08,4.73,4.73,0,0,0-1,1.82A1.11,1.11,0,0,0,5.1,6.66h0V8.61L3.66,10.05l.46.47L6.44,8.2l.29.28L4.41,10.8l1.52,1.52L12.28,6l-1-1Zm-.1,1.12-2.5,2.5-.29-.29,2.5-2.5Z"/></g></g></svg>