<svg xmlns="http://www.w3.org/2000/svg" viewBox="0 0 24 24"><defs><style>.cls-1{fill:#0c9353;}.cls-2{fill:#fff;}</style></defs><g id="Layer_2" data-name="Layer 2"><g id="Layer_1-2" data-name="Layer 1"><circle class="cls-1" cx="12" cy="12" r="12"/><path id="Path_5979" data-name="Path 5979" class="cls-2" d="M13.76,10.59l-.42-.43L16.49,7,15,5.55,8.27,12.31V10h0A1.65,1.65,0,0,0,9.65,8.37c0-.83-1.2-2.41-1.44-2.72A.28.28,0,0,0,8,5.53a.27.27,0,0,0-.24.12C7.48,6,6.27,7.54,6.27,8.37A1.67,1.67,0,0,0,7.65,10h0v2.92L5.49,15.08l.7.69L9.66,12.3l.43.43L6.61,16.2l2.28,2.28,9.54-9.54-1.51-1.5Zm-.14,1.68L9.87,16l-.43-.43,3.75-3.75Z"/></g></g></svg>