<svg xmlns="http://www.w3.org/2000/svg" viewBox="0 0 17.85 17.88"><defs><style>.cls-1{fill:#0c9353;}</style></defs><g id="Layer_2" data-name="Layer 2"><g id="Layer_1-2" data-name="Layer 1"><path class="cls-1" d="M11.42,7l-.59-.59,4.35-4.35-2-2L3.83,9.36V6.17h0a2.31,2.31,0,0,0,1.9-2.25c0-1.14-1.66-3.33-2-3.75A.41.41,0,0,0,3.41,0a.42.42,0,0,0-.34.17c-.33.42-2,2.61-2,3.75A2.31,2.31,0,0,0,3,6.17H3v4l-3,3,1,1,4.79-4.8.59.59-4.79,4.8,3.14,3.14L17.85,4.72,15.77,2.64Zm-.2,2.32L6,14.49l-.59-.59,5.18-5.18Z"/></g></g></svg>