<svg xmlns="http://www.w3.org/2000/svg" width="247.74" height="174.865" viewBox="0 0 247.74 174.865"><defs><style>.a{fill:#fff;stroke:#afbdcd;stroke-miterlimit:10;stroke-width:2.126px;}.b{fill:#073366;}.c{fill:#afbdcd;}.d{fill:#778fab;}</style></defs><g transform="translate(-359.14 -1446.823)"><rect class="a" width="245.614" height="136.302" transform="translate(360.203 1447.886)"/><rect class="a" width="187.584" height="112.011" rx="6.748" transform="translate(389.217 1508.615)"/><path class="b" d="M555.713,1540.467H554.25l-.518-.5a12.056,12.056,0,1,0-1.3,1.3l.5.518v1.463l9.259,9.24,2.76-2.76Zm-11.111,0a8.322,8.322,0,1,1,5.9-2.437A8.322,8.322,0,0,1,544.6,1540.467Z"/><rect class="b" width="68.826" height="10.796" transform="translate(409.066 1528.857)"/><rect class="c" width="68.826" height="10.796" transform="translate(409.066 1557.392)"/><rect class="c" width="110.661" height="10.796" transform="translate(409.066 1576.285)"/><rect class="c" width="68.826" height="10.796" transform="translate(409.066 1595.179)"/><rect class="d" width="159.244" height="10.796" transform="translate(389.162 1474.876)"/></g></svg>