<svg xmlns="http://www.w3.org/2000/svg" width="247.74" height="175.851" viewBox="0 0 247.74 175.851"><defs><style>.a,.b{fill:#fff;stroke:#afbdcd;}.a{stroke-miterlimit:10;stroke-width:2.126px;}.b{stroke-width:2px;}.c{fill:#073366;}.d{fill:#e7ebf0;}.e{fill:#3f6189;}</style></defs><g transform="translate(-1313.526 -1448.172)"><rect class="a" width="245.614" height="136.302" transform="translate(1314.589 1449.235)"/><rect class="b" width="66.127" height="147.098" transform="translate(1481.848 1462.755)"/><rect class="c" width="41.835" height="8.097" transform="translate(1493.993 1498.517)"/><rect class="c" width="32.389" height="8.097" transform="translate(1499.391 1509.314)"/><rect class="c" width="21.592" height="8.097" transform="translate(1504.79 1520.11)"/><rect class="c" width="8.097" height="21.592" transform="translate(1494.668 1551.149)"/><rect class="c" width="8.097" height="14.845" transform="translate(1505.464 1557.897)"/><rect class="c" width="8.097" height="8.097" transform="translate(1516.261 1564.644)"/><rect class="c" width="8.097" height="4.049" transform="translate(1527.057 1568.693)"/><rect class="c" width="66" height="26.991" transform="translate(1481.754 1462.08)"/><circle class="c" cx="14.17" cy="14.17" r="14.17" transform="translate(1500.741 1595.683)"/><rect class="d" width="139.253" height="112.92" transform="translate(1330.084 1462.08)"/><rect class="e" width="49.921" height="5.255" transform="translate(1344.535 1472.59)"/><rect class="e" width="40.725" height="7.882" transform="translate(1411.534 1493.55)"/><rect class="e" width="7.882" height="21.019" transform="translate(1411.534 1544.785)"/><rect class="e" width="7.882" height="21.019" transform="translate(1349.79 1500.119)"/><rect class="e" width="31.529" height="7.882" transform="translate(1416.789 1504.06)"/><rect class="e" width="7.882" height="14.451" transform="translate(1422.044 1551.353)"/><rect class="e" width="7.882" height="14.451" transform="translate(1360.299 1506.687)"/><rect class="e" width="21.019" height="7.882" transform="translate(1422.044 1514.569)"/><rect class="e" width="7.882" height="7.882" transform="translate(1432.553 1557.922)"/><rect class="e" width="7.882" height="7.882" transform="translate(1370.809 1513.256)"/><rect class="e" width="7.882" height="3.941" transform="translate(1443.063 1561.863)"/><rect class="e" width="7.882" height="3.941" transform="translate(1381.319 1517.197)"/><circle class="e" cx="13.794" cy="13.794" r="13.794" transform="translate(1356.358 1538.216)"/></g></svg>