<svg xmlns="http://www.w3.org/2000/svg" width="247.74" height="161.021" viewBox="0 0 247.74 161.021"><defs><style>.a,.d{fill:#fff;}.a,.e{stroke:#afbdcd;stroke-miterlimit:10;stroke-width:2.126px;}.b{fill:#afbdcd;}.c{fill:#3f6189;}.e{fill:none;}.f{fill:#073366;}</style></defs><g transform="translate(-836.333 -1448.172)"><rect class="a" width="245.614" height="136.302" transform="translate(837.396 1449.235)"/><path class="b" d="M1062.767,1470.08H857.639V1549.7h67.476v-52.632h137.652Z"/><rect class="c" width="54.704" height="9.274" transform="translate(864.386 1477)"/><rect class="d" width="64.471" height="45.13" rx="6.447" transform="translate(857.639 1563)"/><rect class="e" width="64.471" height="45.13" rx="6.447" transform="translate(857.639 1563)"/><rect class="f" width="48.998" height="5.158" transform="translate(865.375 1593.946)"/><rect class="b" width="48.998" height="15.473" transform="translate(865.375 1573.315)"/><rect class="d" width="64.471" height="45.13" rx="6.447" transform="translate(998.639 1563)"/><rect class="e" width="64.471" height="45.13" rx="6.447" transform="translate(998.639 1563)"/><rect class="f" width="48.998" height="5.158" transform="translate(1006.375 1593.946)"/><rect class="b" width="48.998" height="15.473" transform="translate(1006.375 1573.315)"/><rect class="d" width="64.471" height="45.13" rx="6.447" transform="translate(928.139 1563)"/><rect class="e" width="64.471" height="45.13" rx="6.447" transform="translate(928.139 1563)"/><rect class="f" width="48.998" height="5.158" transform="translate(935.875 1593.946)"/><rect class="b" width="48.998" height="15.473" transform="translate(935.875 1573.315)"/><rect class="c" width="138" height="55.702" transform="translate(924.767 1494)"/></g></svg>