<svg xmlns="http://www.w3.org/2000/svg" width="247.74" height="167.321" viewBox="0 0 247.74 167.321"><defs><style>.a,.c,.f{fill:#fff;}.a,.b,.c{stroke:#afbdcd;stroke-miterlimit:10;}.a,.b{stroke-width:2.126px;}.b{fill:none;}.c{stroke-width:2.181px;}.d{fill:#073366;}.e{fill:#afbdcd;}</style></defs><g transform="translate(-1313.526 -2101.441)"><rect class="a" width="245.614" height="136.302" transform="translate(1314.589 2102.504)"/><path class="b" d="M1329.336,2239.255V2117.349a6.748,6.748,0,0,1,6.748-6.748h53.981a6.748,6.748,0,0,1,6.748,6.748v121.175"/><line class="c" x1="67.296" transform="translate(1329.336 2163.98)"/><rect class="d" width="31.039" height="5.398" transform="translate(1338.783 2124.747)"/><rect class="d" width="31.039" height="5.398" transform="translate(1338.783 2180.077)"/><rect class="e" width="17.544" height="6.748" transform="translate(1338.783 2136.892)"/><rect class="e" width="17.544" height="6.748" transform="translate(1357.677 2136.892)"/><rect class="e" width="29.69" height="6.748" transform="translate(1338.783 2144.99)"/><rect class="e" width="47.233" height="11.476" transform="translate(1338.783 2204.262)"/><rect class="e" width="47.233" height="11.476" transform="translate(1338.783 2219.393)"/><rect class="e" width="47.233" height="11.476" transform="translate(1338.783 2189.13)"/><rect class="f" width="64.471" height="45.13" rx="6.447" transform="translate(1480.967 2110.569)"/><rect class="b" width="64.471" height="45.13" rx="6.447" transform="translate(1480.967 2110.569)"/><rect class="d" width="48.998" height="5.158" transform="translate(1488.704 2141.515)"/><rect class="e" width="48.998" height="15.473" transform="translate(1488.704 2120.884)"/><rect class="f" width="64.471" height="45.13" rx="6.447" transform="translate(1480.967 2166.569)"/><rect class="b" width="64.471" height="45.13" rx="6.447" transform="translate(1480.967 2166.569)"/><rect class="d" width="48.998" height="5.158" transform="translate(1488.704 2197.515)"/><rect class="e" width="48.998" height="15.473" transform="translate(1488.704 2176.884)"/><rect class="f" width="64.471" height="45.13" rx="6.447" transform="translate(1480.967 2222.569)"/><rect class="b" width="64.471" height="45.13" rx="6.447" transform="translate(1480.967 2222.569)"/><rect class="d" width="48.998" height="5.158" transform="translate(1488.704 2253.515)"/><rect class="e" width="48.998" height="15.473" transform="translate(1488.704 2232.884)"/><rect class="f" width="64.471" height="45.13" rx="6.447" transform="translate(1410.967 2110.569)"/><rect class="b" width="64.471" height="45.13" rx="6.447" transform="translate(1410.967 2110.569)"/><rect class="d" width="48.998" height="5.158" transform="translate(1418.704 2141.515)"/><rect class="e" width="48.998" height="15.473" transform="translate(1418.704 2120.884)"/><rect class="f" width="64.471" height="45.13" rx="6.447" transform="translate(1410.967 2166.569)"/><rect class="b" width="64.471" height="45.13" rx="6.447" transform="translate(1410.967 2166.569)"/><rect class="d" width="48.998" height="5.158" transform="translate(1418.704 2197.515)"/><rect class="e" width="48.998" height="15.473" transform="translate(1418.704 2176.884)"/><rect class="f" width="64.471" height="45.13" rx="6.447" transform="translate(1410.967 2222.569)"/><rect class="b" width="64.471" height="45.13" rx="6.447" transform="translate(1410.967 2222.569)"/><rect class="d" width="48.998" height="5.158" transform="translate(1418.704 2253.515)"/><rect class="e" width="48.998" height="15.473" transform="translate(1418.704 2232.884)"/></g></svg>