<svg xmlns="http://www.w3.org/2000/svg" width="247.74" height="158.957" viewBox="0 0 247.74 158.957"><defs><style>.a{fill:#fff;}.b{fill:none;stroke:#afbdcd;stroke-miterlimit:10;stroke-width:2.126px;}.c{fill:#f7ba44;}.d{fill:#afbdcd;}.e{fill:#073366;}</style></defs><g transform="translate(-2827.193 -1968.345)"><rect class="a" width="245.614" height="136.302" transform="translate(2828.256 1969.408)"/><rect class="b" width="245.614" height="136.302" transform="translate(2828.256 1969.408)"/><path class="c" d="M491.944,1009.345a6.959,6.959,0,0,0,6.96,6.959h55.677a6.96,6.96,0,0,0,6.96-6.959V916.858h-69.6Z" transform="translate(2350 1110.998)"/><path class="a" d="M553.733,866.507H499.752A6.749,6.749,0,0,0,493,873.255v46.631H560.48V873.255a6.747,6.747,0,0,0-6.747-6.748" transform="translate(2350 1110.998)"/><path class="b" d="M553.733,866.507H499.752A6.749,6.749,0,0,0,493,873.255v46.631H560.48V873.255A6.747,6.747,0,0,0,553.733,866.507Z" transform="translate(2350 1110.998)"/><rect class="d" width="134.33" height="106.942" transform="translate(2923.996 1986.113)"/><rect class="e" width="31.039" height="5.398" transform="translate(2852.45 1991.651)"/><rect class="e" width="31.039" height="5.398" transform="translate(2852.45 2046.421)"/><rect class="d" width="17.544" height="6.748" transform="translate(2852.45 2003.797)"/><rect class="d" width="17.544" height="6.748" transform="translate(2872.344 2003.797)"/><rect class="d" width="29.689" height="6.748" transform="translate(2852.45 2012.894)"/><rect class="a" width="47.233" height="11.476" transform="translate(2852.45 2060.878)"/><rect class="a" width="47.233" height="11.476" transform="translate(2852.45 2081.413)"/><rect class="a" width="47.233" height="11.476" transform="translate(2852.45 2101.948)"/></g></svg>