<svg xmlns="http://www.w3.org/2000/svg" width="247.739" height="166.258" viewBox="0 0 247.739 166.258"><defs><style>.a{fill:#fff;}.b,.c{fill:none;stroke:#afbdcd;stroke-miterlimit:10;}.b{stroke-width:2.126px;}.c{stroke-width:2.181px;}.d{fill:#073366;}.e{fill:#afbdcd;}.f{fill:#f7ba44;}</style></defs><g transform="translate(-3304.387 -1968.41)"><rect class="a" width="245.613" height="136.302" transform="translate(3305.45 1969.473)"/><rect class="b" width="245.613" height="136.302" transform="translate(3305.45 1969.473)"/><path class="b" d="M970.2,995.226V873.32a6.748,6.748,0,0,1,6.748-6.748h53.98a6.748,6.748,0,0,1,6.749,6.748V994.495" transform="translate(2350 1110.998)"/><line class="a" x1="67.297" transform="translate(3320.196 2030.949)"/><line class="c" x1="67.297" transform="translate(3320.196 2030.949)"/><rect class="d" width="31.039" height="5.398" transform="translate(3329.644 1991.716)"/><rect class="d" width="31.039" height="5.398" transform="translate(3329.644 2047.046)"/><rect class="e" width="17.544" height="6.748" transform="translate(3329.644 2003.862)"/><rect class="e" width="17.544" height="6.748" transform="translate(3348.536 2003.862)"/><rect class="e" width="29.689" height="6.748" transform="translate(3329.644 2011.959)"/><rect class="e" width="47.233" height="11.476" transform="translate(3329.644 2071.231)"/><rect class="e" width="47.233" height="11.476" transform="translate(3329.644 2086.362)"/><rect class="e" width="47.233" height="11.476" transform="translate(3329.644 2056.1)"/><path class="a" d="M1128.275,866.54h51.577a6.446,6.446,0,0,1,6.447,6.447v32.236a6.446,6.446,0,0,1-6.447,6.447h-51.577a6.446,6.446,0,0,1-6.447-6.447V872.987a6.446,6.446,0,0,1,6.447-6.447" transform="translate(2350 1110.998)"/><rect class="b" width="64.471" height="45.13" rx="6.447" transform="translate(3471.828 1977.538)"/><rect class="d" width="48.998" height="5.158" transform="translate(3479.564 2008.484)"/><rect class="e" width="48.998" height="15.473" transform="translate(3479.564 1987.854)"/><path class="a" d="M1128.275,922.54h51.577a6.446,6.446,0,0,1,6.447,6.447v32.236a6.446,6.446,0,0,1-6.447,6.447h-51.577a6.446,6.446,0,0,1-6.447-6.447V928.987a6.446,6.446,0,0,1,6.447-6.447" transform="translate(2350 1110.998)"/><rect class="b" width="64.471" height="45.13" rx="6.447" transform="translate(3471.828 2033.538)"/><rect class="d" width="48.998" height="5.158" transform="translate(3479.564 2064.484)"/><rect class="e" width="48.998" height="15.473" transform="translate(3479.564 2043.854)"/><path class="f" d="M1128.275,978.54h51.577a6.446,6.446,0,0,1,6.447,6.447v32.236a6.446,6.446,0,0,1-6.447,6.447h-51.577a6.446,6.446,0,0,1-6.447-6.447V984.987a6.446,6.446,0,0,1,6.447-6.447" transform="translate(2350 1110.998)"/><rect class="d" width="48.998" height="5.158" transform="translate(3479.564 2120.484)"/><rect class="a" width="48.998" height="15.473" transform="translate(3479.564 2099.854)"/><path class="a" d="M1058.275,866.54h51.577a6.446,6.446,0,0,1,6.447,6.447v32.236a6.446,6.446,0,0,1-6.447,6.447h-51.577a6.446,6.446,0,0,1-6.447-6.447V872.987a6.446,6.446,0,0,1,6.447-6.447" transform="translate(2350 1110.998)"/><rect class="b" width="64.471" height="45.13" rx="6.447" transform="translate(3401.828 1977.538)"/><rect class="d" width="48.998" height="5.158" transform="translate(3409.564 2008.484)"/><rect class="e" width="48.998" height="15.473" transform="translate(3409.564 1987.854)"/><path class="a" d="M1058.275,922.54h51.577a6.446,6.446,0,0,1,6.447,6.447v32.236a6.446,6.446,0,0,1-6.447,6.447h-51.577a6.446,6.446,0,0,1-6.447-6.447V928.987a6.446,6.446,0,0,1,6.447-6.447" transform="translate(2350 1110.998)"/><rect class="b" width="64.471" height="45.13" rx="6.447" transform="translate(3401.828 2033.538)"/><rect class="d" width="48.998" height="5.158" transform="translate(3409.564 2064.484)"/><rect class="e" width="48.998" height="15.473" transform="translate(3409.564 2043.854)"/><path class="f" d="M1058.275,978.54h51.577a6.446,6.446,0,0,1,6.447,6.447v32.236a6.446,6.446,0,0,1-6.447,6.447h-51.577a6.446,6.446,0,0,1-6.447-6.447V984.987a6.446,6.446,0,0,1,6.447-6.447" transform="translate(2350 1110.998)"/><rect class="d" width="48.998" height="5.158" transform="translate(3409.564 2120.484)"/><rect class="a" width="48.998" height="15.473" transform="translate(3409.564 2099.854)"/></g></svg>