<?xml version="1.0" encoding="utf-8"?>
<!-- Generator: Adobe Illustrator 25.2.1, SVG Export Plug-In . SVG Version: 6.00 Build 0)  -->
<!-- <svg version="1.1" id="Layer_1" xmlns="http://www.w3.org/2000/svg" xmlns:xlink="http://www.w3.org/1999/xlink" x="0px" y="0px"
	 viewBox="0 0 309.9 186.9" style="enable-background:new 0 0 309.9 186.9;" xml:space="preserve"> -->
<svg version="1.1" id="Layer_1" xmlns="http://www.w3.org/2000/svg" xmlns:xlink="http://www.w3.org/1999/xlink" x="0px" y="0px" height="100%" width="100%"
	 viewBox="0 0 250 150" style="enable-background:new 0 0 309.9 186.9;" whiteSpace="none">
<style type="text/css">
	.st0{fill:#221D53;}
	.st1{fill:url(#SVGID_1_);}
	.st2{fill:#0EA55D;}
	.st3{fill:#041F3D;}
	.st4{fill:none;}
	.st5{fill:#FFFFFF;}
	.st6{fill:#010A14;}
	.st7{fill:#CDD6E0;}
	.st8{fill:#073366;}
	.st9{opacity:0.5;fill:#FFFFFF;enable-background:new    ;}
	.st10{fill:#9CADC2;}
	.st11{opacity:0.7;fill:url(#SVGID_2_);enable-background:new    ;}
	.st12{fill:url(#SVGID_3_);}
	.st13{fill:#B8C8D8;}
	.st14{opacity:0.7;fill:#FFFFFF;enable-background:new    ;}
	.st15{fill:#395C85;}
</style>
<g id="Layer_2_1_">
	<g id="Layer_1-2">
		<path class="st0" d="M153.4,74.2"/>
		
			<linearGradient id="SVGID_1_" gradientUnits="userSpaceOnUse" x1="153.372" y1="845.0007" x2="153.372" y2="845.0007" gradientTransform="matrix(1 0 0 1 0 -770.8026)">
			<stop  offset="0.52" style="stop-color:#FFFFFF;stop-opacity:0"/>
			<stop  offset="0.96" style="stop-color:#FFFFFF;stop-opacity:0.2"/>
		</linearGradient>
		<path class="st1" d="M153.4,74.2"/>
	</g>
</g>
<path id="Path_107-2_3_" class="st2" d="M194.5,18.4"/>
<path id="Path_107_3_" class="st0" d="M127.4,34.6c-15.3,0-27.6,12.2-27.6,27.1l0,0l0,0c0,29.2,27.6,46.6,27.6,46.6l0,0
	c-0.1,0,28-15.3,27.5-48.8C154.7,44.9,142.3,34.6,127.4,34.6z"/>
<path id="Path_107-2_2_" class="st2" d="M128.8,100.5c0,0,28-20.8,27.5-50.3c-0.2-14.7-12.5-25-27.5-25c-15.3,0-27.6,12.2-27.6,27.1
	l0,0C101.2,81.6,128.7,100.5,128.8,100.5L128.8,100.5"/>
<path class="st3" d="M79.3,169.6L79.3,169.6c9.6,0,17.5-7.8,17.5-17.5c0-6.9-8.7-46.9-17.5-47s-17.5,39.7-17.5,47
	C61.9,161.8,69.7,169.6,79.3,169.6z"/>
<rect x="78.3" y="146.4" class="st3" width="2.1" height="40.4"/>
<path class="st3" d="M62.9,173.1L62.9,173.1c7.7,0,13.9-6.2,13.9-13.9c0-5.5-7-37.4-13.9-37.4S49,153.4,49,159.2
	C49,166.8,55.2,173.1,62.9,173.1z"/>
<rect x="62.1" y="154.6" class="st3" width="1.7" height="32.2"/>
<path class="st3" d="M217.1,97.8l-25.5-14.7l-5.5,9l-21,4l-1.6-2.7l25.5-14.7l-5-9.2l7-20.2h3.1v29.5l10.5,0.3l14,16.2L217.1,97.8z"
	/>
<polygon class="st4" points="189.4,86.8 191.6,83.1 192.2,83.5 192.5,83.1 193.3,83.5 193.3,84.1 217.1,97.8 218.7,95.1 204.7,79 
	194.1,78.7 194.1,49.3 191,49.3 184,69.5 189.1,78.7 163.6,93.4 165.1,96.1 186.1,92.1 188.8,87.7 188.9,86.9 "/>
<polygon class="st3" points="188.9,86.9 188.8,87.7 189.4,86.8 "/>
<polygon class="st3" points="192.5,83.1 192.2,83.5 193.3,84.1 193.3,83.5 "/>
<polygon class="st3" points="188.5,93 184.4,156.6 197.7,156.6 193.5,87 192.5,86.4 "/>
<polygon class="st5" points="189.4,86.8 190.3,86.6 192.2,83.5 191.6,83.1 "/>
<path class="st3" d="M245.5,112.3l-20.4-11.8l-4.4,7.2L204,111l-1.2-2.2l20.4-11.8l-4-7.4l5.6-16.1h2.5v23.5l8.4,0.2l11.2,12.9
	L245.5,112.3z"/>
<polygon class="st4" points="223.3,103.5 225.1,100.6 225.6,100.9 225.8,100.5 226.4,100.9 226.5,101.3 245.5,112.3 246.7,110.2 
	235.6,97.3 227.1,97.1 227.1,73.5 224.7,73.5 219.1,89.7 223.1,97.1 202.7,108.8 204,111 220.7,107.8 222.9,104.2 222.9,103.6 "/>
<polygon class="st3" points="222.9,103.6 222.9,104.2 223.3,103.5 "/>
<polygon class="st3" points="225.8,100.5 225.6,100.9 226.5,101.3 226.4,100.9 "/>
<polygon class="st3" points="222.6,108.5 219.3,159.3 230,159.3 226.6,103.7 225.8,103.2 "/>
<polygon class="st6" points="173.6,140.1 218.7,140.1 237.8,159.1 192.7,159.1 "/>
<ellipse transform="matrix(0.3507 -0.9365 0.9365 0.3507 -10.6835 258.1516)" class="st7" cx="180.8" cy="136.8" rx="1.2" ry="1.8"/>
<polygon class="st8" points="195.8,151.6 180.8,136.8 220.8,136.8 235.8,151.6 "/>
<polygon class="st9" points="205.7,152.7 212.6,135.9 221.5,135.8 237.7,152.4 218.5,152.7 "/>
<path class="st7" d="M240.8,153.1L222,134.5c-0.1-0.1-0.3-0.2-0.4-0.2h-45.3c-0.3,0-0.6,0.3-0.6,0.6c0,0.2,0.1,0.3,0.2,0.5
	l18.7,18.6c0.1,0.1,0.3,0.2,0.4,0.2h45.3c0.3,0,0.6-0.3,0.6-0.6C240.9,153.3,240.9,153.2,240.8,153.1z M223.9,151.3
	c-0.3-0.3-0.6-0.6-1-0.7c-0.4-0.1-0.7-0.2-1.1-0.1l-5.2-5.2c0.1-0.1,0.1-0.1,0.1-0.2c0-0.1,0.1-0.2,0.1-0.3h10.2
	c0.3,0.3,0.6,0.5,1,0.7c0.3,0.1,0.7,0.2,1.1,0.1l5.3,5.3c-0.1,0.1-0.1,0.2-0.2,0.3c0,0.1,0,0.1,0,0.2L223.9,151.3z M210.5,151.3
	c-0.3-0.3-0.6-0.6-1-0.7c-0.4-0.1-0.8-0.2-1.2-0.1l-5.2-5.2c0.1-0.1,0.1-0.2,0.2-0.3c0-0.1,0-0.2,0-0.3h10.1
	c0.3,0.4,0.7,0.6,1.1,0.8c0.4,0.1,0.7,0.2,1.1,0.1l5.2,5.2c-0.1,0.1-0.1,0.2-0.1,0.2c0,0.1,0,0.1,0,0.2L210.5,151.3z M197.2,151.3
	c-0.5-0.6-1.3-0.9-2.1-0.8l-5.2-5.2c0-0.1,0.1-0.1,0.1-0.2c0-0.1,0-0.2,0-0.3h10.1c0.3,0.4,0.7,0.6,1.1,0.8c0.3,0.1,0.7,0.2,1.1,0.1
	l5.2,5.2c0,0.1-0.1,0.1-0.1,0.2c0,0.1,0,0.1,0,0.2L197.2,151.3z M206.1,137.3c0.3,0.3,0.6,0.5,1,0.7c0.3,0.1,0.7,0.2,1,0.1l5.4,5.3
	c-0.1,0.1-0.1,0.2-0.2,0.3c0,0,0,0.1,0,0.1H203c-0.3-0.3-0.6-0.4-0.9-0.6c-0.3-0.1-0.7-0.2-1.1-0.1l-5.3-5.3
	c0.1-0.1,0.2-0.2,0.2-0.3c0-0.1,0-0.1,0-0.2L206.1,137.3z M219.4,137.3c0.5,0.6,1.3,0.9,2.1,0.8l5.3,5.3c-0.1,0.1-0.1,0.2-0.2,0.3
	c0,0.1,0,0.1,0,0.2h-10.3c-0.3-0.2-0.6-0.4-0.9-0.6c-0.3-0.1-0.7-0.2-1-0.2l-5.4-5.3c0.1-0.1,0.1-0.2,0.2-0.3c0-0.1,0-0.1,0-0.2
	L219.4,137.3z M193.8,137.9c0.3,0.1,0.7,0.2,1,0.2l5.4,5.4c-0.1,0.1-0.1,0.2-0.2,0.3c0,0,0,0.1,0,0.1h-10.3
	c-0.3-0.2-0.6-0.4-0.9-0.6c-0.3-0.1-0.7-0.2-1-0.2l-5.8-5.8h10.9C193,137.6,193.4,137.8,193.8,137.9L193.8,137.9z"/>
<polygon class="st6" points="190.4,161.1 235.5,161.1 237.8,159.1 192.7,159.1 "/>
<polygon class="st6" points="173.6,140.1 154.5,159.1 156.8,161.1 173.6,144.4 190.4,161.1 192.7,159.1 "/>
<rect x="190.4" y="161.1" class="st10" width="45.1" height="26.6"/>
<rect x="131.3" y="152.8" class="st10" width="59.2" height="34.9"/>
<linearGradient id="SVGID_2_" gradientUnits="userSpaceOnUse" x1="131.2645" y1="-50.4602" x2="235.2845" y2="-50.4602" gradientTransform="matrix(1 0 0 -1 0 119.7962)">
	<stop  offset="0" style="stop-color:#FFFFFF"/>
	<stop  offset="1" style="stop-color:#FFFFFF;stop-opacity:0.2"/>
</linearGradient>
<polygon class="st11" points="190.4,161.1 190.4,152.8 131.3,152.8 131.3,187.7 190.2,187.7 190.4,187.7 235.3,187.7 235.3,161.1 
	"/>
<linearGradient id="SVGID_3_" gradientUnits="userSpaceOnUse" x1="190.4245" y1="-54.6101" x2="214.1145" y2="-54.6101" gradientTransform="matrix(1 0 0 -1 0 119.7962)">
	<stop  offset="6.000000e-02" style="stop-color:#9CADC2"/>
	<stop  offset="0.84" style="stop-color:#9CADC2;stop-opacity:0"/>
</linearGradient>
<rect x="190.4" y="161.1" class="st12" width="23.7" height="26.6"/>
<polygon class="st3" points="109.2,125.3 168.3,125.3 193.4,150.2 134.3,150.2 "/>
<polygon class="st6" points="131.3,152.8 190.4,152.8 193.4,150.2 134.3,150.2 "/>
<polygon class="st3" points="109.2,125.3 84.1,150.2 87.1,152.8 109.2,130.9 131.3,152.8 134.3,150.2 "/>
<polygon class="st13" points="87.1,152.8 87.1,187.7 131.3,187.7 131.3,152.8 109.2,130.9 "/>
<rect x="94.7" y="165.2" class="st14" width="10.1" height="10.1"/>
<rect x="112.1" y="165.2" class="st14" width="10.1" height="22.5"/>
<rect x="114.2" y="165.2" class="st3" width="9.6" height="22.5"/>
<rect x="96.8" y="165.2" class="st3" width="7.9" height="10.1"/>
<rect x="201.2" y="170.6" class="st3" width="7.7" height="7.7"/>
<rect x="218.7" y="170.6" class="st3" width="7.7" height="7.7"/>
<rect x="218.7" y="170.6" class="st15" width="6" height="7.7"/>
<rect x="201.2" y="170.6" class="st15" width="6" height="7.7"/>
<rect x="145.4" y="165.2" class="st3" width="10.1" height="10.1"/>
<rect x="168.4" y="165.2" class="st3" width="10.1" height="10.1"/>
<rect x="168.4" y="165.2" class="st15" width="7.9" height="10.1"/>
<rect x="145.4" y="165.2" class="st15" width="7.9" height="10.1"/>
<ellipse transform="matrix(0.3507 -0.9365 0.9365 0.3507 -37.8904 190.0796)" class="st7" cx="118.1" cy="122.4" rx="1.5" ry="2.3"/>
<polygon class="st8" points="136.9,141 118.1,122.4 168.4,122.4 187.2,141 "/>
<polygon class="st9" points="149.4,142.3 158.1,121.2 169.2,121.1 172.8,124.4 165.4,142.3 "/>
<polygon class="st9" points="143.4,142.3 152.1,121.2 155.4,121.2 146.7,142.3 "/>
<path class="st7" d="M193.4,142.8l-23.5-23.4c-0.1-0.1-0.3-0.2-0.6-0.2h-56.9c-0.4,0-0.8,0.3-0.8,0.8c0,0.2,0.1,0.4,0.2,0.6
	l23.5,23.4c0.1,0.1,0.3,0.2,0.6,0.2h56.9c0.4,0,0.8-0.4,0.8-0.8C193.7,143.2,193.6,143,193.4,142.8z M172.2,140.5
	c-0.7-0.7-1.7-1.1-2.7-1l-6.5-6.6c0.1-0.1,0.1-0.2,0.2-0.3c0-0.1,0.1-0.3,0.1-0.4H176c0.7,0.7,1.6,1.1,2.6,1.1l6.6,6.6
	c-0.1,0.1-0.2,0.2-0.2,0.3c0,0.1,0,0.2-0.1,0.3L172.2,140.5z M155.5,140.5c-0.7-0.8-1.7-1.1-2.7-1l-6.5-6.5c0.1-0.1,0.2-0.2,0.2-0.3
	c0-0.1,0.1-0.3,0.1-0.4h12.7c0.3,0.5,0.8,0.8,1.4,1c0.5,0.2,0.9,0.2,1.4,0.2l6.5,6.5c-0.1,0.1-0.1,0.2-0.2,0.3
	c0,0.1-0.1,0.2-0.1,0.3L155.5,140.5z M138.7,140.5c-0.3-0.4-0.8-0.7-1.2-0.9c-0.4-0.2-0.9-0.2-1.4-0.2l-6.6-6.5
	c0.1-0.1,0.1-0.2,0.1-0.3c0-0.1,0.1-0.3,0.1-0.4h12.7c0.3,0.5,0.8,0.8,1.4,1c0.4,0.2,0.9,0.2,1.4,0.2l6.6,6.5
	c-0.1,0.1-0.1,0.2-0.1,0.3c0,0.1,0,0.2-0.1,0.3L138.7,140.5z M149.9,122.9c0.3,0.4,0.8,0.7,1.3,0.9c0.4,0.2,0.9,0.2,1.3,0.2l6.7,6.7
	c-0.1,0.1-0.2,0.2-0.3,0.4c0,0,0,0.1,0,0.1h-13c-0.3-0.3-0.7-0.6-1.1-0.7c-0.4-0.2-0.9-0.2-1.4-0.2l-6.7-6.7
	c0.1-0.1,0.2-0.2,0.3-0.4c0-0.1,0-0.2,0.1-0.2L149.9,122.9z M166.6,122.9c0.3,0.4,0.8,0.7,1.2,0.9c0.4,0.2,0.9,0.2,1.4,0.2l6.6,6.6
	c-0.1,0.1-0.2,0.2-0.2,0.3c0,0.1,0,0.2,0,0.2h-13c-0.3-0.3-0.7-0.6-1.1-0.7c-0.4-0.2-0.9-0.2-1.3-0.2l-6.8-6.7
	c0.1-0.1,0.2-0.2,0.2-0.4c0-0.1,0-0.2,0-0.2L166.6,122.9z M134.4,123.8c0.4,0.2,0.8,0.2,1.2,0.2l6.8,6.7c-0.1,0.1-0.2,0.2-0.2,0.3
	c0,0,0,0.1,0,0.1h-13c-0.6-0.6-1.5-0.9-2.4-0.9l-7.4-7.3h13.6C133.5,123.3,133.9,123.6,134.4,123.8L134.4,123.8z"/>
<g id="Group_64">
	<path id="Path_5956_1_" class="st5" d="M145.2,58.8h-11.8v11.7h-7.9V58.8h-11.8V51h11.8V39.3h7.9V51h11.8V58.8z"/>
</g>
</svg>
