<?xml version="1.0" encoding="utf-8"?>
<!-- Generator: Adobe Illustrator 25.2.1, SVG Export Plug-In . SVG Version: 6.00 Build 0)  -->
<!-- <svg version="1.1" id="Layer_1" xmlns="http://www.w3.org/2000/svg" xmlns:xlink="http://www.w3.org/1999/xlink" x="0px" y="0px"
	 viewBox="0 0 462.3 194.8" style="enable-background:new 0 0 462.3 194.8;" xml:space="preserve"> -->
<svg version="1.1" id="Layer_1" xmlns="http://www.w3.org/2000/svg" xmlns:xlink="http://www.w3.org/1999/xlink" x="0px" y="0px"  width="100%"
	 viewBox="0 -50 360 244.8" style="enable-background:new 0 0 360 160;" xml:space="preserve">
<style type="text/css">
	.st0{fill:#221D53;}
	.st1{fill:#5875B5;}
	.st2{fill:#2E53A3;}
	.st3{fill:#F7BA44;}
	.st4{opacity:0.7;fill:#FFFFFF;enable-background:new    ;}
	.st5{opacity:0.5;fill:url(#SVGID_1_);enable-background:new    ;}
	.st6{opacity:0.5;fill:url(#SVGID_2_);enable-background:new    ;}
	.st7{fill:#041F3D;}
	.st8{fill:none;}
	.st9{fill:#010A14;}
	.st10{fill:#9CADC2;}
	.st11{opacity:0.7;fill:url(#SVGID_3_);enable-background:new    ;}
	.st12{fill:url(#SVGID_4_);}
	.st13{fill:#B8C8D8;}
	.st14{fill:#395C85;}
	.st15{fill:#FFFFFF;}
	.st16{fill:none;stroke:#221D53;stroke-width:2.11;stroke-miterlimit:10;}
	.st17{fill:#073366;}
	.st18{opacity:0.48;}
	.st19{fill:url(#SVGID_5_);}
	.st20{opacity:0.63;}
	.st21{opacity:0.49;}
	.st22{fill:url(#SVGID_6_);}
	.st23{fill:#3E7CF4;}
</style>
<g id="Layer_2_1_">
	<g id="Layer_1-2">
		<path class="st0" d="M359.9,196.9c0,0-19.9-81.8-57.9-54.8c-12.2,8.1-21.5,0.6-42.5-21.6c-32.3-34.1-47.2-28.7-72.2-8.8
			c-29.9,23.7-67,67.4-106.2,84.5h253.3"/>
		<rect x="212.9" y="140.1" class="st1" width="1.7" height="26"/>
		<rect x="229.7" y="173.3" class="st1" width="1.5" height="22.6"/>
		<rect x="202.7" y="137.2" class="st1" width="1.7" height="26"/>
		<rect x="147.4" y="173.4" class="st1" width="1.5" height="22.6"/>
		<path class="st1" d="M160.3,188.3L160.3,188.3c-3.7,0-6.7-3.5-6.7-7.7l0,0c0-3.1,3.3-20.9,6.7-20.9s6.7,17.7,6.7,20.9
			C167,184.8,163.9,188.3,160.3,188.3L160.3,188.3z"/>
		<path class="st1" d="M213.7,155.4L213.7,155.4c4.3,0,7.8-4,7.8-8.9l0,0c0-3.6-3.8-24.1-7.8-24.1s-7.8,20.4-7.8,24.1
			C206,151.4,209.5,155.4,213.7,155.4L213.7,155.4z"/>
		<polygon class="st1" points="283,138.5 284.7,147.5 284.7,173.5 283,173.5 		"/>
		<path class="st1" d="M283.9,159.9L283.9,159.9c4.3,0,7.8-4,7.8-8.9c0-3.6-3.8-26.1-7.8-26.1c-3.9,0-7.8,22.4-7.8,26.1
			C276.1,155.9,279.6,159.9,283.9,159.9L283.9,159.9z"/>
		<path class="st1" d="M203.6,154.4L203.6,154.4c3.4,0,6.1-3.2,6.1-7.1c0-2.8-3.1-19.3-6.1-19.3c-3,0-6.1,16.2-6.1,19.3
			C197.5,151.2,200.2,154.4,203.6,154.4z"/>
		<polygon class="st2" points="248,137.2 270.4,137.2 279.9,148.1 257.5,148.1 		"/>
		<polygon class="st0" points="256.4,149.2 278.8,149.2 279.9,148.1 257.5,148.1 		"/>
		<polygon class="st0" points="248,137.2 238.6,148.1 239.7,149.2 248,139.6 256.4,149.2 257.5,148.1 		"/>
		<polygon class="st3" points="239.7,149.2 239.7,164.5 256.4,164.5 256.4,149.2 248,139.6 		"/>
		<rect x="256.4" y="149.2" class="st3" width="22.3" height="15.3"/>
		<rect x="256.4" y="149.2" class="st4" width="22.3" height="15.3"/>
		<rect x="242.5" y="154.6" class="st4" width="3.8" height="4.4"/>
		<rect x="249.7" y="154.6" class="st3" width="3.8" height="9.9"/>
		<rect x="249.2" y="154.6" class="st4" width="3.8" height="9.9"/>
		<rect x="250" y="154.6" class="st0" width="3" height="9.9"/>
		<rect x="243.3" y="154.6" class="st0" width="3" height="4.4"/>
		<rect x="261.8" y="154.6" class="st0" width="3.8" height="4.4"/>
		<rect x="261.8" y="154.6" class="st2" width="3" height="4.4"/>
		<rect x="270" y="154.6" class="st0" width="3.8" height="4.4"/>
		<rect x="270" y="154.6" class="st2" width="3" height="4.4"/>
		<path class="st1" d="M230.4,186.3L230.4,186.3c-4.6,0-8.4-4.4-8.4-9.7l0,0c0-3.9,4.2-26.2,8.4-26.3c4.2-0.1,8.4,22.2,8.4,26.3
			C238.8,181.9,235.1,186.3,230.4,186.3z"/>
		<path class="st1" d="M148.1,186.3L148.1,186.3c-4.6,0-8.4-4.4-8.4-9.7c0-3.9,4.2-26.2,8.4-26.3c4.2-0.1,8.4,22.2,8.4,26.3
			C156.5,181.9,152.7,186.3,148.1,186.3L148.1,186.3z"/>
		<polygon class="st2" points="187.1,161.7 214.9,161.7 226.7,175.4 198.9,175.4 		"/>
		<polygon class="st0" points="197.5,176.8 225.3,176.8 226.7,175.4 198.9,175.4 		"/>
		<polygon class="st0" points="187.1,161.7 175.3,175.4 176.8,176.8 187.1,164.9 197.5,176.8 198.9,175.4 		"/>
		<polygon class="st3" points="176.8,176.8 176.8,195.8 197.5,195.8 197.5,176.8 187.1,164.9 		"/>
		
			<linearGradient id="SVGID_1_" gradientUnits="userSpaceOnUse" x1="176.7581" y1="1006.1934" x2="197.4834" y2="1006.1934" gradientTransform="matrix(1 0 0 1 0 -825.8344)">
			<stop  offset="0" style="stop-color:#FFFFFF;stop-opacity:0"/>
			<stop  offset="0.16" style="stop-color:#FFFFFF;stop-opacity:0.13"/>
			<stop  offset="0.44" style="stop-color:#FFFFFF;stop-opacity:0.33"/>
			<stop  offset="0.68" style="stop-color:#FFFFFF;stop-opacity:0.48"/>
			<stop  offset="0.88" style="stop-color:#FFFFFF;stop-opacity:0.57"/>
			<stop  offset="1" style="stop-color:#FFFFFF;stop-opacity:0.6"/>
		</linearGradient>
		<polygon class="st5" points="176.8,176.8 176.8,195.8 197.5,195.8 197.5,176.8 187.1,164.9 		"/>
		<rect x="197.5" y="176.8" class="st3" width="27.8" height="19"/>
		<rect x="197.5" y="176.8" class="st4" width="27.8" height="19"/>
		<rect x="209.6" y="183.6" class="st0" width="4.7" height="12.3"/>
		<rect x="208.7" y="183.6" class="st2" width="4.6" height="12.3"/>
		<rect x="216.9" y="183.6" class="st0" width="4.7" height="5.5"/>
		<rect x="216.9" y="183.6" class="st2" width="3.8" height="5.5"/>
		<rect x="201.5" y="183.6" class="st0" width="4.7" height="5.5"/>
		<rect x="201.5" y="183.6" class="st2" width="3.8" height="5.5"/>
		<polygon class="st2" points="164.9,172.9 183.6,172.9 191.6,182 172.8,182 		"/>
		<polygon class="st0" points="171.8,183 190.6,183 191.6,182 172.8,182 		"/>
		<polygon class="st0" points="164.9,172.9 156.9,182 157.8,183 164.9,174.9 171.8,183 172.8,182 		"/>
		<polygon class="st3" points="157.8,183 157.8,195.8 171.8,195.8 171.8,183 164.9,174.9 		"/>
		
			<linearGradient id="SVGID_2_" gradientUnits="userSpaceOnUse" x1="157.825" y1="1011.2182" x2="171.8283" y2="1011.2182" gradientTransform="matrix(1 0 0 1 0 -825.8344)">
			<stop  offset="0" style="stop-color:#FFFFFF;stop-opacity:0"/>
			<stop  offset="0.16" style="stop-color:#FFFFFF;stop-opacity:0.13"/>
			<stop  offset="0.44" style="stop-color:#FFFFFF;stop-opacity:0.33"/>
			<stop  offset="0.68" style="stop-color:#FFFFFF;stop-opacity:0.48"/>
			<stop  offset="0.88" style="stop-color:#FFFFFF;stop-opacity:0.57"/>
			<stop  offset="1" style="stop-color:#FFFFFF;stop-opacity:0.6"/>
		</linearGradient>
		<polygon class="st6" points="157.8,183 157.8,195.8 171.8,195.8 171.8,183 164.9,174.9 		"/>
		<rect x="171.8" y="183" class="st3" width="18.8" height="12.9"/>
		<rect x="171.8" y="183" class="st4" width="18.8" height="12.9"/>
		<rect x="163" y="187.5" class="st4" width="3.2" height="8.3"/>
		<rect x="163.7" y="187.5" class="st0" width="3" height="8.3"/>
		<rect x="176.3" y="187.6" class="st0" width="3.2" height="3.7"/>
		<rect x="183.6" y="187.6" class="st0" width="3.2" height="3.7"/>
		<rect x="183.6" y="187.6" class="st2" width="2.5" height="3.7"/>
		<rect x="176.3" y="187.6" class="st2" width="2.5" height="3.7"/>
	</g>
</g>
<path class="st0" d="M481.1,103.4"/>
<path id="Path_107_1_" class="st0" d="M94.6,145.3L94.6,145.3"/>
<path class="st7" d="M70.2,183.5L70.2,183.5c4.9,0,8.9-4.9,8.9-10.9c0-4.3-4.4-29.2-8.9-29.3s-8.9,24.8-8.9,29.3
	C61.4,178.7,65.4,183.5,70.2,183.5z"/>
<rect x="69.7" y="169" class="st7" width="1.1" height="29.2"/>
<path class="st7" d="M61.9,185.7L61.9,185.7c3.9,0,7-3.9,7-8.7c0-3.4-3.5-23.3-7-23.3c-3.5,0-7,19.7-7,23.3
	C54.9,181.8,58,185.7,61.9,185.7z"/>
<rect x="61.5" y="174.2" class="st7" width="0.9" height="24.1"/>
<line class="st7" x1="123.5" y1="175.4" x2="130.3" y2="175.4"/>
<path class="st7" d="M155.2,146.4l-0.7,1.4"/>
<line class="st8" x1="154.5" y1="147.8" x2="155.1" y2="146.5"/>
<line class="st7" x1="141.2" y1="177.1" x2="146.7" y2="177.1"/>
<polygon class="st9" points="118.1,165.1 140.9,165.1 150.6,177 127.7,177 "/>
<polygon class="st9" points="126.6,178.2 149.4,178.2 150.6,177 127.7,177 "/>
<polygon class="st9" points="118.1,165.1 108.4,177 109.5,178.2 118.1,167.8 126.6,178.2 127.7,177 "/>
<rect x="126.6" y="178.2" class="st10" width="22.9" height="16.6"/>
<rect x="96.6" y="173" class="st10" width="30" height="21.8"/>
<linearGradient id="SVGID_3_" gradientUnits="userSpaceOnUse" x1="96.6052" y1="1144.1239" x2="149.3409" y2="1144.1239" gradientTransform="matrix(1 0 0 1 0 -960.2038)">
	<stop  offset="0" style="stop-color:#FFFFFF"/>
	<stop  offset="1" style="stop-color:#FFFFFF;stop-opacity:0.2"/>
</linearGradient>
<polygon class="st11" points="126.6,178.2 126.6,173 96.6,173 96.6,194.8 126.5,194.8 126.6,194.8 149.3,194.8 149.3,178.2 "/>
<linearGradient id="SVGID_4_" gradientUnits="userSpaceOnUse" x1="126.5857" y1="1146.7114" x2="138.6033" y2="1146.7114" gradientTransform="matrix(1 0 0 1 0 -960.2038)">
	<stop  offset="6.000000e-02" style="stop-color:#9CADC2"/>
	<stop  offset="0.84" style="stop-color:#9CADC2;stop-opacity:0"/>
</linearGradient>
<rect x="126.6" y="178.2" class="st12" width="12" height="16.6"/>
<polygon class="st7" points="84.4,156.1 114.4,156.1 127.1,171.6 97.1,171.6 "/>
<polygon class="st9" points="96.6,173 126.6,173 128.1,171.4 98.1,171.4 "/>
<polygon class="st7" points="85.4,155.9 72.7,171.4 74.2,173 85.4,159.4 96.6,173 98.1,171.4 "/>
<polygon class="st13" points="74.2,173 74.2,194.8 96.6,194.8 96.6,173 85.4,159.4 "/>
<rect x="78" y="180.8" class="st4" width="5.1" height="6.3"/>
<rect x="86.9" y="180.8" class="st4" width="5.1" height="14"/>
<rect x="87.9" y="180.8" class="st7" width="4.9" height="14"/>
<rect x="79.1" y="180.8" class="st7" width="4" height="6.3"/>
<rect x="132" y="184.1" class="st7" width="3.9" height="4.8"/>
<rect x="140.9" y="184.1" class="st7" width="3.9" height="4.8"/>
<rect x="140.9" y="184.1" class="st14" width="3" height="4.8"/>
<rect x="132" y="184.1" class="st14" width="3" height="4.8"/>
<rect x="103.8" y="180.8" class="st7" width="5.1" height="6.3"/>
<rect x="115.4" y="180.8" class="st7" width="5.1" height="6.3"/>
<rect x="115.4" y="180.8" class="st14" width="4" height="6.3"/>
<rect x="103.8" y="180.8" class="st14" width="4" height="6.3"/>
<path class="st15" d="M465,251.5"/>
<line class="st16" x1="300.6" y1="195.9" x2="300.6" y2="177.2"/>
<polygon class="st17" points="260.7,173.2 233.1,173.2 245.7,158.2 274.5,158.2 "/>
<polygon class="st0" points="289.8,173.5 287.7,175.7 275.7,163.1 263.1,175.7 260.7,173.2 274.5,158.2 274.6,158.2 "/>
<polygon class="st0" points="260.7,173.2 263.1,175.7 233.9,175.7 232.8,173.2 233.1,173.2 "/>
<polygon class="st3" points="287.4,175.4 287.4,175.5 287.4,195.9 262.9,195.9 262.9,175.7 263.1,175.4 275.6,163 "/>
<g class="st18">
	
		<linearGradient id="SVGID_5_" gradientUnits="userSpaceOnUse" x1="300.8815" y1="16.5634" x2="325.3591" y2="16.5634" gradientTransform="matrix(-1 0 0 -1 588.2975 196)">
		<stop  offset="0" style="stop-color:#FFFFFF;stop-opacity:0"/>
		<stop  offset="0.16" style="stop-color:#FFFFFF;stop-opacity:0.13"/>
		<stop  offset="0.44" style="stop-color:#FFFFFF;stop-opacity:0.33"/>
		<stop  offset="0.68" style="stop-color:#FFFFFF;stop-opacity:0.48"/>
		<stop  offset="0.88" style="stop-color:#FFFFFF;stop-opacity:0.57"/>
		<stop  offset="1" style="stop-color:#FFFFFF;stop-opacity:0.6"/>
	</linearGradient>
	<polygon class="st19" points="287.4,175.4 287.4,175.5 287.4,195.9 262.9,195.9 262.9,175.7 263.1,175.4 275.6,163 	"/>
</g>
<rect x="234" y="175.5" class="st3" width="28.9" height="20.3"/>
<g class="st20">
	<rect x="234" y="175.5" class="st15" width="28.9" height="20.3"/>
</g>
<polygon class="st17" points="291,180.2 271.3,180.2 280.7,169.9 300.6,169.9 "/>
<polygon class="st0" points="311.1,180.5 309.7,182 301.4,173.3 292.7,182 291,180.2 300.6,169.9 300.6,169.9 "/>
<polygon class="st0" points="291,180.2 292.7,182 272.5,182 271.1,180.2 271.3,180.2 "/>
<polygon class="st3" points="309.4,181.7 309.4,181.9 309.4,195.9 292.6,195.9 292.6,182 292.7,181.7 301.3,173.2 "/>
<g class="st21">
	
		<linearGradient id="SVGID_6_" gradientUnits="userSpaceOnUse" x1="278.8512" y1="11.467" x2="295.7352" y2="11.467" gradientTransform="matrix(-1 0 0 -1 588.2975 196)">
		<stop  offset="0" style="stop-color:#FFFFFF;stop-opacity:0"/>
		<stop  offset="0.16" style="stop-color:#FFFFFF;stop-opacity:0.13"/>
		<stop  offset="0.44" style="stop-color:#FFFFFF;stop-opacity:0.33"/>
		<stop  offset="0.68" style="stop-color:#FFFFFF;stop-opacity:0.48"/>
		<stop  offset="0.88" style="stop-color:#FFFFFF;stop-opacity:0.57"/>
		<stop  offset="1" style="stop-color:#FFFFFF;stop-opacity:0.6"/>
	</linearGradient>
	<polygon class="st22" points="309.4,181.7 309.4,181.9 309.4,195.9 292.6,195.9 292.6,182 292.7,181.7 301.3,173.2 	"/>
</g>
<rect x="272.6" y="181.9" class="st3" width="19.9" height="14"/>
<g class="st20">
	<rect x="272.6" y="181.9" class="st15" width="19.9" height="14"/>
</g>
<rect x="298.8" y="186" class="st0" width="4.5" height="9.9"/>
<rect x="283.1" y="186" class="st0" width="3.2" height="4.9"/>
<rect x="277.4" y="186" class="st0" width="3.2" height="4.9"/>
<rect x="254.6" y="181.5" class="st0" width="4.7" height="7.2"/>
<rect x="236.8" y="181.5" class="st0" width="4.7" height="7.2"/>
<rect x="244.8" y="181.5" class="st0" width="6.5" height="14.3"/>
<path class="st7" d="M237.5,186.6L237.5,186.6c3.9,0,7-3.9,7-8.7c0-3.4-3.5-23.3-7-23.3s-7,19.7-7,23.3
	C230.4,182.7,233.6,186.6,237.5,186.6z"/>
<line class="st7" x1="237.9" y1="201.2" x2="237.1" y2="201.2"/>
<path class="st7" d="M237.9,181.1"/>
<path id="Path_107" class="st0" d="M82.6,120.4c0,18.7,17.4,30.9,17.4,30.9l0,0c0,0,17.7-12.3,17.4-31.3c-0.2-9.5-7.9-17-17.4-17
	v0.1C90.4,103,82.6,110.8,82.6,120.4"/>
<path class="st23" d="M102.8,98.9c-9.3,0.7-16.4,9.3-16,18.6c0.8,18,17.4,29.6,17.4,29.6l0,0c0,0,17.4-12.2,17.4-30.9
	c0-9.6-7.8-17.4-17.4-17.4C103.7,98.9,103.2,98.9,102.8,98.9z"/>
<path class="st15" d="M102.3,127.8v-2.3h-4.6v-3.6h9.2v-3.3h-7.4c-1,0-1.8-0.8-1.8-1.8l0,0v-6.9c0-1,0.8-1.8,1.8-1.8l0,0h2.8v-2.3
	h3.6v2.3h4.6v3.6h-9.2v3.3h7.4c1,0,1.8,0.8,1.8,1.8v0v6.9c0,1-0.8,1.8-1.8,1.8l0,0h-2.8v2.3L102.3,127.8z"/>
<polyline class="st7" points="238.6,183.3 238.6,207.3 237.8,207.3 237.8,183.3 "/>
</svg>
