<?xml version="1.0" encoding="utf-8"?>
<!-- Generator: Adobe Illustrator 25.2.1, SVG Export Plug-In . SVG Version: 6.00 Build 0)  -->
<svg version="1.1"
	 id="svg7688" sodipodi:docname="bc.pdf" xmlns:cc="http://creativecommons.org/ns#" xmlns:dc="http://purl.org/dc/elements/1.1/" xmlns:inkscape="http://www.inkscape.org/namespaces/inkscape" xmlns:rdf="http://www.w3.org/1999/02/22-rdf-syntax-ns#" xmlns:sodipodi="http://sodipodi.sourceforge.net/DTD/sodipodi-0.dtd" xmlns:svg="http://www.w3.org/2000/svg"
	 xmlns="http://www.w3.org/2000/svg" xmlns:xlink="http://www.w3.org/1999/xlink" x="0px" y="0px" viewBox="0 0 613.8 545.1"
	 style="enable-background:new 0 0 613.8 545.1;" xml:space="preserve">
<style type="text/css">
	.st0{fill:#2E53A3;}
	.st1{fill:#221D53;}
	.st2{fill:#5992EF;}
	.st3{fill:#FFFFFF;}
	.st4{fill:#0EA55D;}
	.st5{fill:#F49445;}
</style>
<sodipodi:namedview  bordercolor="#666666" borderopacity="1" gridtolerance="10" guidetolerance="10" id="namedview7690" inkscape:current-layer="g7696" inkscape:cx="306.89374" inkscape:cy="272.53751" inkscape:pageopacity="0" inkscape:pageshadow="2" inkscape:window-height="480" inkscape:window-maximized="0" inkscape:window-width="640" inkscape:window-x="640" inkscape:window-y="118" inkscape:zoom="0.53387147" objecttolerance="10" pagecolor="#ffffff" showgrid="false">
	</sodipodi:namedview>
<g id="g7696" transform="matrix(1.25,0,0,-1.25,0,545.075)" inkscape:groupmode="layer" inkscape:label="bc">
	<g id="g7698" transform="scale(0.24,0.24)">
		<path id="path7700" class="st0" d="M1415.6,819.9c0-6.2,24.9-12.5,24.9-21.9v-12.5l-9.3-3.1c9.3-21.8,12.5-34.3,37.4-34.3
			c12.5,0,21.8-18.7,28-28.1c15.6,0,15.6,12.5,34.3,12.5c12.5-21.9,18.7-28.1,34.3-46.8c12.4-21.9,12.4-43.7,24.9-65.6
			c15.6,0,15.6,9.4,31.1,9.4c9.3-9.4,12.5-21.9,18.7-34.3c12.4,0,28-6.2,43.6-6.2c18.7-28.1,90.3-62.4,96.5-99.9
			c0-3.1,62.3-37.5,65.4-37.5c21.8-34.3,3.1-25,40.5-43.7c0-9.4,71.6-65.6,71.6-65.6v-43.7c0-28.1,18.7-43.7,24.9-68.7
			c3.1-9.4,21.8-25,31.1-25c3.1-6.2,28-21.9,31.2-25c-199.3-34.3-669.6-87.4-856.4-78c-3.1,9.4-9.3,12.5-15.6,12.5
			c-3.1-12.5-3.1-21.9-6.2-34.3c-15.6,0,3.1,31.2,3.1,37.5c-15.6,21.9-18.7,12.5-18.7,50c-24.9,0-46.7,3.1-71.6,6.2
			c-6.2,9.4-31.1,34.3-6.2,34.3c6.2-3.1,15.6-18.7,15.6-21.9c31.1,0-3.1,25-6.2,28.1v40.6c-3.1,6.2-9.3,6.2-12.5,3.1
			c0-9.4,0-21.9,0-31.2c-9.3-9.4-56.1-18.7-31.1,25c-9.3,25-24.9-9.4-28-15.6c-12.5,31.2-18.7,28.1,0,37.5
			c0,12.5,12.5,40.6,12.5,43.7c-9.3,0-24.9,0-24.9-15.6c-6.2-21.9-9.3-6.2-15.6,3.1c-18.7,0,28,40.6-12.5,18.7
			c0-3.1-6.2-12.5-12.5-12.5c3.1,0-40.5,31.2-37.4,15.6c-6.2-9.4-49.8-6.2-49.8,12.5c18.7,6.2,46.7,3.1,46.7,28.1
			c-6.2,0-37.4-12.5-46.7-12.5c0,18.7-12.5,18.7-28,21.9c0,21.9-9.3,12.5-40.5,12.5c-3.1-21.9-68.5-3.1-49.8,18.7
			c0,0,40.5-12.5,40.5,0c-40.5,12.5-18.7,12.5-59.2,12.5c-12.5,34.3,15.6,12.5,28,25c-15.6,3.1-28,0-28,15.6
			c6.2,3.1,18.7,3.1,28,3.1c0,18.7-6.2,31.2,24.9,28.1c9.3,3.1,12.5,0,12.5,12.5c-21.8,0-24.9-6.2-37.4,6.2c-24.9,0,0-12.5-31.1-25
			c0,15.6-9.3,15.6-12.5,28.1c-3.1,12.5,28,43.7,34.3,46.8c31.1,0,21.8,37.5,59.2,15.6c0,25-40.5,31.2-12.5,46.8
			c15.6,25,21.8,25,9.3,34.3c-15.6-28.1-49.8-50-74.7-65.6c-15.6,28.1-12.5,71.8-40.5,9.4c-6.2,0,18.7,65.6,18.7,71.8
			c-12.5,18.7-6.2,6.2-31.1,6.2c-9.3,12.5-3.1,18.7-3.1,40.6c-9.3,28.1-49.8,18.7-24.9,59.3c40.5-40.6,18.7,0,62.3-21.9
			c6.2,9.4,6.2,18.7,12.5,31.2c0,0-84.1-40.6-65.4,3.1c0,21.9,3.1,18.7,12.5,53.1c-6.2,3.1-9.3,15.6-21.8,12.5
			c21.8-25-9.3-43.7-28-53.1c-9.3-12.5-3.1-21.9-12.5-34.3c-9.3,0-34.3,31.2-34.3,40.6c-18.7,18.7-24.9,31.2-24.9,53.1
			c12.5,15.6,31.1,6.2,31.1,28.1c-18.7,0-24.9-3.1-40.5-3.1c-9.3,12.5,0,21.9-18.7,21.9c0,25,9.3,40.6,34.3,46.8
			c0,31.2-6.2,21.9,12.5,31.2c24.9,0,31.1,15.6,9.3,15.6c-6.2,3.1,9.3,25,12.5,28.1c-18.7,6.3-18.7-12.5-18.7,28.1
			c-3.1,12.5,0,34.3,9.3,43.7c0,18.7,0,40.6-3.1,59.3c-28,0-12.5,0-34.3,15.6c-9.3,21.8-34.3,25-49.8,40.6
			c-34.3,34.3-52.9,12.5-62.3,90.5c0,15.6-31.1,103-49.8,131.1c0,40.6-28,106.1-52.9,134.2c-21.8,21.8-34.3,18.7-34.3,53.1
			c-34.3,40.6-34.3,12.5-34.3,59.3c6.2,9.4-46.7,53.1-43.6,53.1c-49.8,0-52.9-40.6-84.1-68.7c-21.8,0-43.6-18.7-71.6-15.6
			c0,12.5,12.5,40.6,3.1,53.1c-21.8,21.8-24.9,49.9-43.6,71.8c-12.5,12.5-12.5,25-21.8,34.3c451.6-87.4,918.7-137.4,1364-103
			L1415.6,819.9L1415.6,819.9z M300.7,832.4c0,37.5-18.7,37.5-3.1,78.1c12.5,0,21.8-9.4,34.3-9.4c0-25,9.3-9.4,28-9.4
			c15.6-12.5,3.1-15.6,24.9-15.6c12.5,0,15.6,15.6,24.9,15.6c3.1-6.2,3.1-15.6,3.1-21.9c-3.1-3.1-18.7-25-18.7-28.1
			c-15.6-37.5-9.3-28.1-9.3-56.2c-9.3-21.9-9.3-15.6-28-15.6c-3.1-3.1-6.2-6.2-9.3-9.4c-12.5,0-34.3-6.2-34.3,18.7
			c3.1,12.5,12.5,0,12.5,18.7C316.3,807.4,282.1,804.3,300.7,832.4L300.7,832.4L300.7,832.4z M331.9,745c9.3,0,15.6,3.1,24.9,6.2
			c15.6,0,24.9,9.4,37.4,9.4c0-15.6,0-12.5,3.1-25c0-9.4,3.1-6.2-6.2-9.4c-6.2,3.1-9.3,9.4-15.6,9.4c-6.2-9.4-3.1-15.6,0-21.9
			c0-9.4,6.2-37.5,12.5-40.6c0-9.4,21.8-21.9,21.8-25c0-6.2,3.1-28.1,15.6-31.2c9.3-3.1,9.3,0,6.2-15.6c-12.5,0-9.3,0-18.7,9.4
			c-6.2,0-12.5,0-12.5,6.2c-6.2,6.2-6.2,15.6-6.2,25c-28,37.5-24.9,25-52.9,78c12.5,6.2,6.2,15.6-9.3,15.6
			C331.9,735.6,328.8,745,331.9,745L331.9,745L331.9,745z M384.8,723.1c-3.1-6.2,0-9.4,3.1-12.5C397.3,720,403.5,723.1,384.8,723.1
			L384.8,723.1z M403.5,682.6c-3.1,0-28,0-6.2-9.4C406.6,673.2,403.5,673.2,403.5,682.6L403.5,682.6z M515.6,844.9
			c12.5,0,28,21.9,9.3,21.9c-9.3,6.2-21.8,0-28-6.2c0-28.1-3.1-6.2,15.6-6.2C512.5,851.1,515.6,844.9,515.6,844.9 M546.8,801.2
			c0,6.2,3.1,21.9-3.1,25c-6.2,12.5,0,15.6,12.5,0c0-9.4,12.5-12.5,15.6-18.7c3.1-28.1,18.7-31.2,21.8-40.6
			c0-12.5,3.1-15.6-6.2-28.1c-9.3,0-9.3,6.2-9.3,12.5C574.8,763.7,553,794.9,546.8,801.2L546.8,801.2L546.8,801.2z M593.5,729.4
			c0-6.2,3.1-6.2,6.2-12.5c0-12.5,6.2-15.6-6.2-15.6C587.3,710.7,590.4,716.9,593.5,729.4L593.5,729.4z M627.7,763.7
			c-3.1-6.2-12.5-6.2,6.2-12.5C646.4,770,627.7,763.7,627.7,763.7L627.7,763.7z M621.5,723.1v18.7
			C605.9,745,605.9,723.1,621.5,723.1L621.5,723.1z M605.9,673.2c0-15.6,9.3-15.6,9.3-28.1l0,0c0-12.5,3.1-15.6,12.5-15.6
			c3.1,9.4,0,15.6,0,25C618.4,663.8,618.4,673.2,605.9,673.2L605.9,673.2L605.9,673.2z M668.2,666.9c3.1,12.5,3.1,25,3.1,37.5
			c-6.2,9.4-21.8,40.6-37.4,40.6c0-6.2,3.1-12.5,3.1-15.6c-6.2-6.2-9.3-9.4-18.7-15.6c0-6.2,3.1-12.5,9.3-18.7
			c0-9.4-3.1-9.4-3.1-21.9c9.3,0,6.2-15.6,18.7-15.6c9.3,25,3.1,31.2,18.7,25c0-9.4,0-9.4-9.3-12.5c0-9.4-3.1-9.4,6.2-15.6
			C658.9,654.5,674.5,660.7,668.2,666.9L668.2,666.9L668.2,666.9z M680.7,657.6c0-12.5-3.1-21.9,9.3-21.9c3.1,6.2,3.1,15.6,3.1,21.9
			C693.1,663.8,680.7,666.9,680.7,657.6L680.7,657.6L680.7,657.6z M665.1,645.1c-6.2-6.2-15.6-9.4-21.8-12.5
			c3.1-3.1,28-12.5,31.1-12.5C677.6,632.6,668.2,642,665.1,645.1L665.1,645.1z M705.6,595.1c0-9.4,3.1-18.7,12.5-18.7
			c0,0,0,21.9-3.1,21.9C708.7,598.3,708.7,595.1,705.6,595.1L705.6,595.1L705.6,595.1z M686.9,579.5c-6.2-3.1-3.1-15.6,0-18.7
			C696.3,560.8,702.5,576.4,686.9,579.5L686.9,579.5z M743,585.8c0,0-21.8-40.6-18.7-37.5c9.3,3.1,12.5,3.1,15.6,12.5
			c3.1,6.2,18.7,18.7,28,18.7c9.3,6.2,9.3,6.2,9.3,12.5C764.8,592,755.4,585.8,743,585.8L743,585.8z M699.4,551.4
			c-6.2-3.1-12.5-12.5-3.1-18.7c0-12.5,9.3-15.6,9.3-3.1c0,3.1,3.1,9.4,6.2,9.4c0,3.1,0,9.4,0,12.5
			C708.7,551.4,705.6,551.4,699.4,551.4L699.4,551.4L699.4,551.4z M693.1,495.2c0-15.6,0-21.9,9.3-31.2c9.3,0,6.2,6.2,6.2,15.6
			C718.1,473.4,693.1,523.3,693.1,495.2L693.1,495.2z M823.9,373.5c-18.7,9.4-12.5,9.4-24.9,3.1c6.2-9.4,12.5-12.5,28-12.5
			C830.2,367.2,827.1,373.5,823.9,373.5L823.9,373.5L823.9,373.5z M842.6,364.1c-18.7,0-15.6-9.4-9.3-18.7c3.1,0,12.5,0,18.7,0
			C864.4,361,845.7,367.2,842.6,364.1L842.6,364.1z M680.7,386c-6.2-9.4-18.7-6.2-21.8-9.4c0-9.4,18.7-31.2,21.8-40.6
			c15.6,0,6.2-3.1,31.1-3.1c15.6,6.2,12.5,12.5,28,3.1c3.1-25,12.5-12.5-3.1-31.2c-12.5,15.6-12.5,12.5-31.1,12.5
			c0-3.1,0-12.5,3.1-15.6c0-12.5-9.3-15.6-9.3-31.2c3.1,0,40.5,18.7,40.5-3.1c18.7,0,24.9,9.4,43.6,9.4c-6.2-3.1-21.8-25-12.5-34.3
			c15.6,0,6.2,6.2,24.9,0c6.2,3.1,0,21.9,0,25c6.2,0,15.6,0,15.6-9.4c0,0,3.1-15.6-6.2-12.5c0-6.2,28-34.3,28-34.3
			c6.2,0,31.1-3.1,18.7-12.5c-21.8,0-24.9-6.2-24.9-25v-3.1c15.6,0,6.2,6.2,28,3.1c9.3,0,12.5-3.1,18.7-3.1
			c3.1-15.6,6.2,18.7,3.1-18.7c12.5,0,9.3-3.1,15.6,3.1c9.3-12.5,9.3-12.5,9.3-31.2c0,0-9.3,0-9.3-3.1c6.2-37.5,52.9-15.6,74.7-12.5
			c6.2,6.2,9.3,21.9,21.8,21.9c0-12.5-6.2-31.2-12.5-43.7c-37.4,3.1-24.9-25-18.7-25c24.9,0,62.3-34.3,87.2-34.3
			c21.8-6.2,49.8-18.7,74.7-25c0,3.1,0,9.4,0,15.6c9.3,15.6,6.2,9.4,6.2,28.1c-9.3,12.5-15.6,37.5-31.1,46.8
			c-6.2,6.2-18.7,3.1-24.9,3.1c-6.2,9.4,0,21.9-3.1,31.2c-15.6,6.2-37.4,25-53,34.3c-3.1,0-21.8,12.5-24.9,12.5
			c0,9.4-9.3,31.2-9.3,40.6v3.1c-9.3,3.1-15.6,12.5-21.8,18.7c0,9.4-9.3,12.5-9.3,18.7c18.7,0,12.5,21.9,6.2,34.3
			c-9.3,6.2-12.5,0-12.5-9.4c-9.3,0-12.5,18.7-18.7,21.9c-28,3.1-24.9-3.1-43.6,12.5c-15.6,0-34.3,0-49.8,0
			c-15.6,0-65.4,37.5-77.9,46.8C727.4,379.7,711.8,386,680.7,386L680.7,386L680.7,386z M1119.8,95.6c-3.1-9.4-3.1-12.5-3.1-18.7
			c3.1-3.1,9.3-6.2,12.4-6.2c0,3.1,0,9.4,0,12.5C1132.3,76.9,1119.8,101.9,1119.8,95.6L1119.8,95.6z M979.6,289.2
			c6.2-12.5,3.1-12.5,15.6-12.5C995.2,289.2,992.1,286.1,979.6,289.2L979.6,289.2z M948.5,307.9c0-3.1-3.1-9.4,9.3-12.5
			C961,304.8,961,307.9,948.5,307.9L948.5,307.9z M852,164.3c0-6.2,0-12.5,6.2-18.7c3.1,3.1,6.2,0,9.3,3.1
			C867.5,161.2,861.3,164.3,852,164.3L852,164.3z M649.5,801.2c-6.2,3.1-12.5,3.1-18.7-3.1c-3.1-6.2-6.2-12.5,0-18.7
			c3.1-3.1,9.3,0,15.6,6.2C652.7,791.8,652.7,798.1,649.5,801.2L649.5,801.2L649.5,801.2z M531.2,819.9c3.1,0,6.2-3.1,9.3-9.4
			c3.1-9.4,3.1-15.6-3.1-15.6c-3.1-3.1-6.2,3.1-9.3,9.4C525,810.6,525,816.8,531.2,819.9L531.2,819.9z M512.5,801.2
			c9.3,9.4,31.1-31.2,40.5-34.3c9.3,0,0,3.1,3.1,0c-9.3-9.4,18.7-25,6.2-34.3c-3.1-3.1-24.9,15.6-37.4,31.2
			c-12.5,12.5-9.3,15.6-9.3,25C512.5,794.9,503.2,791.8,512.5,801.2L512.5,801.2z M493.8,901.1c6.2,0,9.3-6.2,9.3-12.5
			c0-6.2-3.1-12.5-9.3-12.5c-3.1,0-6.2,6.2-6.2,12.5C487.6,894.8,490.7,901.1,493.8,901.1L493.8,901.1z M500.1,954.2
			c3.1-3.1,3.1-9.4,0-12.5c-3.1-6.2-9.3-6.2-12.5-3.1c-3.1,0-3.1,6.2,0,12.5C490.7,954.2,496.9,957.3,500.1,954.2L500.1,954.2z
			 M553,1007.2c-3.1,3.1-9.3-3.1-15.6-12.5c-6.2-9.4-9.3-18.7-3.1-21.9c6.2-3.1,12.5,3.1,18.7,12.5
			C559.2,994.8,559.2,1004.1,553,1007.2L553,1007.2z M792.8,233c6.2,3.1,15.6-3.1,18.7-12.5c6.2-12.5,6.2-21.9,0-25
			s-12.5,3.1-18.7,15.6C786.6,220.5,786.6,229.9,792.8,233L792.8,233z M440.9,592c3.1,0,3.1-6.2,3.1-12.5
			c-3.1-9.4-6.2-12.5-9.3-12.5c-3.1,0-3.1,6.2-3.1,12.5C434.7,588.9,437.8,595.1,440.9,592L440.9,592z"/>
	</g>
</g>
<path id="Path_107-3" class="st1" d="M297.8,315c-20.5,0-37.2,16.4-37.2,36.7l0,0c0,39.4,37.2,65,37.2,65l0,0c0,0,37.7-26,37.2-65.9
	C334.5,330.9,318,315,297.8,315L297.8,315z"/>
<path id="Path_107-4" class="st2" d="M308.5,304.5c-20.5,0-37.2,16.4-37.2,36.6l0,0c0,39.4,37.2,65,37.2,65l0,0
	c0,0,37.7-26,37.2-65.9C345.3,320.3,328.7,304.4,308.5,304.5z"/>
<path class="st3" d="M322.3,343.3h3.5v3.5h-3.5c-2.4,0-4.8-0.6-6.9-1.7c-4.3,2.2-9.5,2.2-13.8,0c-2.1,1.1-4.5,1.7-6.9,1.7h-3.5v-3.5
	h3.5c2.5,0,4.9-0.8,6.9-2.3c4.1,2.9,9.7,2.9,13.8,0C317.4,342.5,319.8,343.3,322.3,343.3 M322.3,333.1h3.5v3.5h-3.5
	c-2.4,0-4.8-0.6-6.9-1.7c-4.3,2.2-9.5,2.2-13.8,0c-2.1,1.1-4.5,1.7-6.9,1.7h-3.5v-3.5h3.5c2.5,0,4.9-0.8,6.9-2.2
	c4.1,2.9,9.7,2.9,13.8,0C317.4,332.3,319.8,333.1,322.3,333.1 M322.3,353.5h3.5v3.5h-3.5c-2.4,0-4.8-0.6-6.9-1.7
	c-4.3,2.2-9.5,2.2-13.8,0c-2.1,1.1-4.5,1.7-6.9,1.7h-3.5v-3.5h3.5c2.5,0,4.9-0.8,6.9-2.3c4.1,2.9,9.7,2.9,13.8,0
	C317.4,352.6,319.8,353.4,322.3,353.5L322.3,353.5z"/>
<path id="Path_107_1_" class="st1" d="M500.6,363.7c-20.5,0-37.2,16.4-37.2,36.6l0,0l0,0c0,39.4,37.2,65,37.2,65l0,0
	c0,0,37.7-26,37.1-65.9C537.3,379.5,520.8,363.6,500.6,363.7z"/>
<path id="Path_107-2_1_" class="st4" d="M511.3,353.1c-20.5,0-37.2,16.4-37.2,36.6l0,0c0,39.4,37.2,65,37.2,65l0,0
	c0,0,37.7-26,37.2-65.8C548,369,531.5,353,511.3,353.1z"/>
<path class="st3" d="M517.3,388.3c-0.3-4.9-2.4-9.5-5.9-13c-3.5,3.5-5.7,8.1-6.1,13c2.2,1.2,4.3,2.7,6,4.5
	C513,391,515,389.5,517.3,388.3 M511.3,398.2c-3.8-5.7-10.3-9.2-17.2-9.2c0,17,16.1,20.2,17.2,20.4c1.2-0.2,17.2-3.5,17.2-20.4
	C521.5,388.9,515,392.4,511.3,398.2z"/>
<path id="Path_107_2_" class="st1" d="M97.6,192.2c-20.5,0-37.2,16.4-37.2,36.6l0,0c0,39.4,37.1,65,37.2,65l0,0
	c0,0,37.8-26,37.2-65.9C134.3,208.1,117.8,192.2,97.6,192.2z"/>
<path id="Path_107-2_2_" class="st4" d="M108.3,181.7c-20.5,0-37.2,16.4-37.2,36.7l0,0c0,39.4,37.2,65,37.2,65l0,0
	c0,0,37.8-26,37.2-65.9C145,197.5,128.5,181.6,108.3,181.7z"/>
<path class="st3" d="M109.6,231.9l3.3-5.8v1.9h6.9l-4.3-7.4l6.9-3.9l3,5.2l0,0c0.9,1.2,0.9,2.9,0.1,4.1l-4.6,7.9
	c-0.7,1.2-2.1,2-3.5,2h-4.6v1.9L109.6,231.9z M99.1,235.8c-1.4,0-2.8-0.7-3.5-2L91,226c-0.8-1.3-0.7-2.9,0.2-4.2l0,0l2.2-3.7
	l-1.7-0.9h6.7l3.5,5.7l-1.6-0.9l-3.5,5.9h8.8v7.8h-6.3L99.1,235.8z M96.1,211.8l3-5.2l0,0c0.7-1.3,2-2.2,3.5-2.2h9.2
	c1.5,0,2.8,0.9,3.5,2.2l0,0l2.5,3.7l1.6-1l-3.5,5.7l-6.7,0.1l1.6-0.9l-3.5-5.9l-4.3,7.4L96.1,211.8z"/>
<g id="Group_64">
	<path id="Path_107_3_" class="st1" d="M358.8,134c-20.2,0-36.6,15.4-36.6,34.4l0,0l0,0c0,37,36.5,61,36.6,61l0,0
		c0,0,37.1-24.4,36.6-61.9C394.9,148.9,378.7,134,358.8,134z"/>
	<path id="Path_5952" class="st5" d="M364.6,125.9c-19.5,1.4-34.4,18.4-33.6,36.8c1.6,35.6,36.5,58.5,36.5,58.5l0,0
		c0,0,36.6-24,36.6-61c0-19-16.4-34.4-36.6-34.4C366.5,125.8,365.6,125.9,364.6,125.9z"/>
</g>
<path id="Path_5949_1_" class="st1" d="M322.2,254.8"/>
<path class="st3" d="M372,137.9c-0.2-0.3-0.3-0.6-0.3-0.6l0.1-0.1c0,0,0.2,0.1,0.5,0.2c0.2,0.1,0.3,0.2,0.6,0.2
	c0.2,0.1,0.4,0.2,0.7,0.3c0.1,0,0.2,0.1,0.4,0.1c0.1,0,0.1,0,0.2,0s0.1,0,0.2,0c0.3,0,0.5,0,0.8,0c0.1,0,0.3-0.1,0.4-0.1
	c0.1-0.1,0.3-0.1,0.4-0.2c0.1,0,0.1-0.1,0.2-0.1s0.1-0.1,0.2-0.2l0.5-0.4l0,0l0,0l0,0l0,0l0,0l0.1-0.1l0.1-0.1l0.2-0.2
	c0.1-0.2,0.3-0.3,0.5-0.4c0.1-0.2,0.3-0.3,0.5-0.4c0.2-0.1,0.4-0.2,0.5-0.4c0.4-0.2,0.8-0.4,1.2-0.3c0.1,0,0.2,0,0.3,0
	c0.1,0,0.2,0.1,0.3,0.1c0.2,0.1,0.3,0.2,0.5,0.3c0.3,0.2,0.5,0.4,0.7,0.6c0.2,0.2,0.3,0.4,0.4,0.6c0.1,0.2,0.2,0.3,0.2,0.4
	c0,0.1,0.1,0.2,0.1,0.2l-0.1,0.1c0,0-0.2-0.1-0.5-0.2c-0.2-0.1-0.3-0.2-0.6-0.3c-0.2-0.1-0.4-0.2-0.7-0.3c-0.1,0-0.2-0.1-0.4-0.1
	c-0.1,0-0.1,0-0.2-0.1c-0.1,0-0.1,0-0.2-0.1c-0.3-0.1-0.5-0.2-0.9-0.2c-0.2,0-0.3,0-0.5,0.1s-0.3,0.2-0.5,0.3
	c-0.1,0.1-0.3,0.3-0.4,0.5l-0.1,0.3l-0.1,0.1v0.1l0,0l0,0l0,0l0,0l0,0l-0.2,0.6c-0.1,0.2-0.3,0.4-0.4,0.6c-0.2,0.2-0.4,0.3-0.5,0.5
	c-0.2,0.2-0.4,0.2-0.6,0.3c-0.5,0.1-0.9,0.2-1.3,0.1c-0.2-0.1-0.4-0.1-0.6-0.2c-0.2-0.1-0.3-0.2-0.5-0.3c-0.3-0.2-0.5-0.4-0.7-0.6
	C372.2,138.3,372.1,138.1,372,137.9z"/>
<polyline class="st3" points="344.6,184.9 344.6,172.4 347.8,172.4 347.8,158.3 356.8,151.3 356.8,158.3 365.9,151.3 365.9,158.3 
	375,151.3 375,165.1 378.1,165.1 379.8,140.6 385,140.6 386.5,165.1 390,165.1 390,172.4 391.8,172.4 391.8,172.4 391.8,172.4 
	391.8,184.9 "/>
<rect x="352.2" y="167" class="st5" width="7.1" height="7.3"/>
<rect x="364.5" y="167" class="st5" width="7.1" height="7.3"/>
<rect x="377" y="167" class="st5" width="7.1" height="7.3"/>
</svg>
