<svg xmlns="http://www.w3.org/2000/svg" width="61.678" height="92.311" viewBox="0 0 61.678 92.311">
  <g id="british-columbia_1" data-name="british-columbia 1" transform="translate(-61.682 -46.468)">
    <path id="Vector" d="M15.688,71.9a10.027,10.027,0,0,0-3.224-4.1c-1.243-.952-2.078-2.369-.8-4.059a1.649,1.649,0,0,0,.194-1.437c-.68-1.457,1.9-1.709,1.107-2.952a2.92,2.92,0,0,1-.252-3.243,1.808,1.808,0,0,0-.486-2.1c-.233.5-.408.893-.563,1.282-.641,1.612-2.02-.466-2.777.563-.524-.738.252-1.3.291-1.806.117-2.214,2.622-1.981,3.263-3.535.214-.544.952-1.049.427-1.631-.6-.66-1.107.117-1.573.408-.7.447-1.049.155-1.243-.486A26.007,26.007,0,0,1,9.318,43.2a1.656,1.656,0,0,1,.816-1.4c2.33-1.67,3.049-4.292,3.865-6.8.388-1.185-.408-2.33-1.2-3.166a8.413,8.413,0,0,1-2.195-6.6A38.051,38.051,0,0,0,9.415,13.308a12.082,12.082,0,0,1-.6-5.282C9.007,6.9,8.308,6.375,7.2,6.472A18.871,18.871,0,0,0,3.492,7.4c-1.806.524-2.408.117-2.486-1.69C.928,4.239.307,2.9.171,1.462.132,1-.257.413.287.083c.427-.272.816.194,1.2.408,3.768,2.059,7.516,4.137,11.3,6.176A165.736,165.736,0,0,0,50.839,21.115c2,.5,2.059.621,1.534,2.641-2.758,10.681-5.457,21.382-8.312,32.024a6.83,6.83,0,0,0,1.107,6.137c4.156,5.865,7.38,12.313,11.652,18.1a16.939,16.939,0,0,1,2,4.583,2.33,2.33,0,0,1,0,1.806c-.99,1.845-.272,3.3.99,4.661.272.291.486.6.738.913v.33a207.6,207.6,0,0,1-34.53-7.632c-1.068-.35-2.33-.447-1.787-2.233.214-.719-.388-1.34-1.223-1.515-.854-.194-1.418-.621-1.282-1.631.019-.214,0-.563-.136-.621-1.787-.893-1.651-2.68-2.136-4.253-.524-1.67-2.369-1.845-3.748-2.544h.019Z" transform="translate(62.81 46.468)" fill="#9ac862"/>
    <path id="Vector-2" data-name="Vector" d="M8.234,5.333a5.768,5.768,0,0,1,2.195,4.8,4.431,4.431,0,0,0,1.942,4.02c2.195,1.5,1.728,3.787,1.534,5.923a.85.85,0,0,1-1.476.621c-1.476-1.223-3.224-2.253-3.981-4.156-.194-.486-.369-.932-.913-1.107A2.128,2.128,0,0,1,6.2,13.665a3.39,3.39,0,0,0-1.5-2.486.794.794,0,0,1-.408-.855c.854-2.369-1.185-3.282-2.369-4.486C.893,4.79.485,4.052,1.787,3A2.441,2.441,0,0,1,0,.75.742.742,0,0,1,.757.012,2.692,2.692,0,0,1,3.321,1.275a11.9,11.9,0,0,0,4.933,4.1H8.234Z" transform="translate(70.225 113.015)" fill="#9ac862"/>
    <path id="Vector-3" data-name="Vector" d="M2.756,2.723C3.164,2.373,3.571,2,4,1.655A.858.858,0,0,1,5.2,1.6c.486.447.058.835-.252,1.126A19.075,19.075,0,0,0,2.5,5.422C1.688,6.529.5,6.2.212,4.878A5.616,5.616,0,0,1,.328,1.441C.581.858.717.062,1.552,0A1.678,1.678,0,0,1,3.125.781c.447.738-.214,1.223-.369,1.961Z" transform="translate(61.682 87.544)" fill="#9ac862"/>
    <path id="Vector-4" data-name="Vector" d="M.017,1.206C-.041.663.017.158.7.08,1.3,0,1.959-.153,2.406.41c.427.524,0,.893-.35,1.262-.952.99-.039,1.981.019,2.971.058.8,1.088,2-.039,2.272C1.027,7.149.852,5.712.677,4.8.425,3.6.231,2.391.017,1.187Z" transform="translate(61.915 93.915)" fill="#9ac862"/>
  </g>
</svg>
