<svg xmlns="http://www.w3.org/2000/svg" width="81.193" height="77.799" viewBox="0 0 81.193 77.799">
  <g id="building_1" data-name="building 1" transform="translate(-37.403 -55.06)">
    <path id="Vector" d="M.573,0H15.164a.664.664,0,0,1,.573.727V4.448a.664.664,0,0,1-.573.727H.573A.664.664,0,0,1,0,4.448V.727A.664.664,0,0,1,.573,0Z" transform="translate(48.113 62.564)" fill="#53c4c8"/>
    <path id="Vector-2" data-name="Vector" d="M1.1,0h79a1.272,1.272,0,0,1,1.1,1.393V8.065a1.272,1.272,0,0,1-1.1,1.393H1.1A1.272,1.272,0,0,1,0,8.065V1.393A1.272,1.272,0,0,1,1.1,0Z" transform="translate(37.403 123.402)" fill="#53c4c8"/>
    <path id="Vector-3" data-name="Vector" d="M18.669.686V55.33a.632.632,0,0,1-.54.686H.54A.632.632,0,0,1,0,55.33V.686A.632.632,0,0,1,.54,0H18.128a.632.632,0,0,1,.54.686ZM8.352,39.18a.64.64,0,0,0-.557-.707H3.717a.64.64,0,0,0-.557.707v5.176a.64.64,0,0,0,.557.707H7.8a.64.64,0,0,0,.557-.707Zm0-8.418a.64.64,0,0,0-.557-.707H3.717a.64.64,0,0,0-.557.707v5.176a.64.64,0,0,0,.557.707H7.8a.64.64,0,0,0,.557-.707Zm0-8.418a.64.64,0,0,0-.557-.707H3.717a.64.64,0,0,0-.557.707V27.52a.64.64,0,0,0,.557.707H7.8a.64.64,0,0,0,.557-.707Zm0-8.418a.64.64,0,0,0-.557-.707H3.717a.64.64,0,0,0-.557.707V19.1a.64.64,0,0,0,.557.707H7.8a.64.64,0,0,0,.557-.707Zm0-8.647A.64.64,0,0,0,7.8,4.573H3.717a.64.64,0,0,0-.557.707v5.176a.64.64,0,0,0,.557.707H7.8a.64.64,0,0,0,.557-.707ZM15.508,39.2a.64.64,0,0,0-.557-.707H10.874a.64.64,0,0,0-.557.707v5.176a.64.64,0,0,0,.557.707h4.078a.64.64,0,0,0,.557-.707Zm0-8.418a.64.64,0,0,0-.557-.707H10.874a.64.64,0,0,0-.557.707v5.176a.64.64,0,0,0,.557.707h4.078a.64.64,0,0,0,.557-.707Zm0-8.418a.64.64,0,0,0-.557-.707H10.874a.64.64,0,0,0-.557.707V27.54a.64.64,0,0,0,.557.707h4.078a.64.64,0,0,0,.557-.707Zm0-8.418a.64.64,0,0,0-.557-.707H10.874a.64.64,0,0,0-.557.707v5.176a.64.64,0,0,0,.557.707h4.078a.64.64,0,0,0,.557-.707Zm0-8.647a.64.64,0,0,0-.557-.707H10.874a.64.64,0,0,0-.557.707v5.176a.64.64,0,0,0,.557.707h4.078a.64.64,0,0,0,.557-.707Z" transform="translate(46.59 72.811)" fill="#53c4c8"/>
    <path id="Vector-4" data-name="Vector" d="M.573,0H15.164a.664.664,0,0,1,.573.727V4.448a.664.664,0,0,1-.573.727H.573A.664.664,0,0,1,0,4.448V.727A.664.664,0,0,1,.573,0Z" transform="translate(93.459 62.564)" fill="#53c4c8"/>
    <path id="Vector-5" data-name="Vector" d="M18.669.686V55.33a.632.632,0,0,1-.54.686H.54A.632.632,0,0,1,0,55.33V.686A.632.632,0,0,1,.54,0H18.128a.632.632,0,0,1,.54.686ZM8.352,39.18a.64.64,0,0,0-.557-.707H3.717a.64.64,0,0,0-.557.707v5.176a.64.64,0,0,0,.557.707H7.8a.64.64,0,0,0,.557-.707Zm0-8.418a.64.64,0,0,0-.557-.707H3.717a.64.64,0,0,0-.557.707v5.176a.64.64,0,0,0,.557.707H7.8a.64.64,0,0,0,.557-.707Zm0-8.418a.64.64,0,0,0-.557-.707H3.717a.64.64,0,0,0-.557.707V27.52a.64.64,0,0,0,.557.707H7.8a.64.64,0,0,0,.557-.707Zm0-8.418a.64.64,0,0,0-.557-.707H3.717a.64.64,0,0,0-.557.707V19.1a.64.64,0,0,0,.557.707H7.8a.64.64,0,0,0,.557-.707Zm0-8.647A.64.64,0,0,0,7.8,4.573H3.717a.64.64,0,0,0-.557.707v5.176a.64.64,0,0,0,.557.707H7.8a.64.64,0,0,0,.557-.707ZM15.508,39.2a.64.64,0,0,0-.557-.707H10.874a.64.64,0,0,0-.557.707v5.176a.64.64,0,0,0,.557.707h4.078a.64.64,0,0,0,.557-.707Zm0-8.418a.64.64,0,0,0-.557-.707H10.874a.64.64,0,0,0-.557.707v5.176a.64.64,0,0,0,.557.707h4.078a.64.64,0,0,0,.557-.707Zm0-8.418a.64.64,0,0,0-.557-.707H10.874a.64.64,0,0,0-.557.707V27.54a.64.64,0,0,0,.557.707h4.078a.64.64,0,0,0,.557-.707Zm0-8.418a.64.64,0,0,0-.557-.707H10.874a.64.64,0,0,0-.557.707v5.176a.64.64,0,0,0,.557.707h4.078a.64.64,0,0,0,.557-.707Zm0-8.647a.64.64,0,0,0-.557-.707H10.874a.64.64,0,0,0-.557.707v5.176a.64.64,0,0,0,.557.707h4.078a.64.64,0,0,0,.557-.707Z" transform="translate(91.953 72.811)" fill="#53c4c8"/>
    <path id="Vector-6" data-name="Vector" d="M18.669.686V73.06a.632.632,0,0,1-.54.686H.54A.632.632,0,0,1,0,73.06V.686A.632.632,0,0,1,.54,0H18.128a.632.632,0,0,1,.54.686ZM8.352,39.97a.64.64,0,0,0-.557-.707H3.717a.64.64,0,0,0-.557.707v5.176a.64.64,0,0,0,.557.707H7.8a.64.64,0,0,0,.557-.707Zm0-8.418a.64.64,0,0,0-.557-.707H3.717a.64.64,0,0,0-.557.707v5.176a.64.64,0,0,0,.557.707H7.8a.64.64,0,0,0,.557-.707Zm0-8.418a.64.64,0,0,0-.557-.707H3.717a.64.64,0,0,0-.557.707v5.176a.64.64,0,0,0,.557.707H7.8a.64.64,0,0,0,.557-.707Zm0-8.418a.64.64,0,0,0-.557-.707H3.717a.64.64,0,0,0-.557.707v5.176a.64.64,0,0,0,.557.707H7.8a.64.64,0,0,0,.557-.707Zm0-8.647A.64.64,0,0,0,7.8,5.363H3.717a.64.64,0,0,0-.557.707v5.176a.64.64,0,0,0,.557.707H7.8a.64.64,0,0,0,.557-.707Zm7.156,33.921a.64.64,0,0,0-.557-.707H10.874a.64.64,0,0,0-.557.707v5.176a.64.64,0,0,0,.557.707h4.078a.64.64,0,0,0,.557-.707Zm0-8.418a.64.64,0,0,0-.557-.707H10.874a.64.64,0,0,0-.557.707v5.176a.64.64,0,0,0,.557.707h4.078a.64.64,0,0,0,.557-.707Zm0-8.418a.64.64,0,0,0-.557-.707H10.874a.64.64,0,0,0-.557.707V28.33a.64.64,0,0,0,.557.707h4.078a.64.64,0,0,0,.557-.707Zm0-8.418a.64.64,0,0,0-.557-.707H10.874a.64.64,0,0,0-.557.707v5.176a.64.64,0,0,0,.557.707h4.078a.64.64,0,0,0,.557-.707Zm0-8.647a.64.64,0,0,0-.557-.707H10.874a.64.64,0,0,0-.557.707v5.176a.64.64,0,0,0,.557.707h4.078a.64.64,0,0,0,.557-.707Z" transform="translate(69.271 55.06)" fill="#53c4c8"/>
  </g>
</svg>
