<svg xmlns="http://www.w3.org/2000/svg" width="96.118" height="75.538" viewBox="0 0 96.118 75.538">
  <g id="environmental_1" data-name="environmental 1" transform="translate(-24.818 -34.519)">
    <path id="Vector" d="M1.661,63.656A3.906,3.906,0,0,1,.7,58.224l9.367-13.379H7.617a3.906,3.906,0,0,1-3.287-6l9.938-15.617a3.531,3.531,0,0,1-.957-.417,3.9,3.9,0,0,1-1.343-5.355L21.907.881a2.119,2.119,0,0,1,.525-.525,2.031,2.031,0,0,1,2.824.525l9.922,16.573a3.913,3.913,0,0,1-2.3,5.756l9.938,15.617a3.9,3.9,0,0,1-3.287,6H37.076l9.367,13.379a3.856,3.856,0,0,1,.71,2.238,3.9,3.9,0,0,1-3.9,3.9H30.41a.968.968,0,0,0-.972.972V74.2H17.725V65.323a.968.968,0,0,0-.972-.972H3.9a3.891,3.891,0,0,1-2.238-.71Z" transform="translate(49.71 34.519)" fill="#efad46"/>
    <path id="Vector-2" data-name="Vector" d="M81.092,3.071H0v-1.5A1.571,1.571,0,0,1,1.574,0h77.96a1.571,1.571,0,0,1,1.574,1.574v1.5Z" transform="translate(32.514 106.986)" fill="#efad46"/>
    <path id="Vector-3" data-name="Vector" d="M29.922,33.954a2.123,2.123,0,0,1,.293,1.1,2.19,2.19,0,0,1-2.191,2.191H20.339a1.1,1.1,0,0,0-1.1,1.1V43.83H10.463V38.336a1.1,1.1,0,0,0-1.1-1.1H1.682a2.282,2.282,0,0,1-1.1-.293A2.325,2.325,0,0,1,0,36.438H2.284a5.446,5.446,0,0,0,5.447-5.447,5.416,5.416,0,0,0-.988-3.117L4.815,25.127l1.867-3.256H3.873a2.147,2.147,0,0,1-1.157-.324,2.2,2.2,0,0,1-.71-3.025L12.978.961a2.243,2.243,0,0,1,.54-.54A2.275,2.275,0,0,1,16.7.961L27.669,18.522a2.225,2.225,0,0,1,.324,1.157A2.19,2.19,0,0,1,25.8,21.871H22.993l6.9,12.083Z" transform="translate(90.721 63.959)" fill="#efad46"/>
    <path id="Vector-4" data-name="Vector" d="M25.689,35.466a5.428,5.428,0,0,0,3.133.988H30.21a2.157,2.157,0,0,1-1.667.787H20.859a1.1,1.1,0,0,0-1.1,1.1V43.83h-8.78V38.336a1.1,1.1,0,0,0-1.1-1.1H2.2a2.282,2.282,0,0,1-1.1-.293,2.2,2.2,0,0,1-.818-2.994L7.2,21.871H4.394a2.147,2.147,0,0,1-1.157-.324,2.2,2.2,0,0,1-.71-3.025L13.5.961a2.243,2.243,0,0,1,.54-.54,2.275,2.275,0,0,1,3.179.54L28.189,18.522a2.225,2.225,0,0,1,.324,1.157,2.19,2.19,0,0,1-2.191,2.191H23.513l2.253,3.95-1.435,2.052a5.445,5.445,0,0,0,1.327,7.592Z" transform="translate(24.818 63.959)" fill="#efad46"/>
  </g>
</svg>
