<?xml version="1.0" encoding="utf-8"?>
<!-- Generator: Adobe Illustrator 25.2.1, SVG Export Plug-In . SVG Version: 6.00 Build 0)  -->
<svg version="1.1" id="Layer_1" xmlns="http://www.w3.org/2000/svg" xmlns:xlink="http://www.w3.org/1999/xlink" x="0px" y="0px"
	 viewBox="0 0 254.5 123.2" style="enable-background:new 0 0 254.5 123.2;" xml:space="preserve">
<style type="text/css">
	.st0{fill:#221D53;}
	.st1{fill:none;stroke:#3E7CF4;stroke-width:2.83;stroke-miterlimit:10;}
	.st2{fill:none;stroke:#221D53;stroke-width:2.11;stroke-miterlimit:10;}
	.st3{fill:#073366;}
	.st4{fill:#F7BA44;}
	.st5{opacity:0.48;}
	.st6{fill:url(#SVGID_1_);}
	.st7{opacity:0.63;}
	.st8{fill:#FFFFFF;}
	.st9{opacity:0.49;}
	.st10{fill:url(#SVGID_2_);}
</style>
<g id="Layer_2_1_">
	<g id="Layer_1-2">
		<path class="st0" d="M224.6,102.3L224.6,102.3c-12.3,0-22.3-10-22.3-22.3c0-8.8,11.1-59.9,22.3-60s22.3,50.8,22.3,60
			C246.9,92.3,236.9,102.3,224.6,102.3L224.6,102.3z"/>
		<path class="st1" d="M300.9-20.9"/>
		<rect x="223.3" y="71.7" class="st0" width="2.6" height="51.6"/>
		<path class="st0" d="M30.5,101.4L30.5,101.4c-12.3,0-22.3-10-22.3-22.3c0-8.8,11.2-59.9,22.3-60s22.3,50.8,22.3,60
			C52.8,91.4,42.8,101.4,30.5,101.4z"/>
		<rect x="29.2" y="71.7" class="st0" width="2.7" height="51.6"/>
		<path class="st0" d="M62.8,105.8L62.8,105.8C53,105.8,45,97.8,45,88l0,0c0-7.1,8.9-47.8,17.8-47.8S80.6,80.7,80.6,88
			C80.6,97.8,72.7,105.8,62.8,105.8z"/>
		<line class="st2" x1="62.8" y1="82.2" x2="62.8" y2="123.2"/>
		<polygon class="st3" points="122.8,40.2 189.2,40.2 220.7,73.1 154.8,73.1 		"/>
		<polygon class="st0" points="122.7,40.1 122.8,40.2 154.8,73.1 149.2,78.7 120.1,51 92.5,78.7 87.7,74 		"/>
		<polygon class="st0" points="220.7,73.1 221.4,73.1 216.5,78.7 149.2,78.7 154.8,73.1 		"/>
		<polygon class="st4" points="120.4,50.7 149.2,78 149.6,78.7 149.6,123.2 93.1,123.2 93.1,78.4 93.1,78 		"/>
		<g class="st5">
			
				<linearGradient id="SVGID_1_" gradientUnits="userSpaceOnUse" x1="93.0879" y1="962.9016" x2="149.4979" y2="962.9016" gradientTransform="matrix(1 0 0 1 0 -876)">
				<stop  offset="0" style="stop-color:#FFFFFF;stop-opacity:0"/>
				<stop  offset="0.16" style="stop-color:#FFFFFF;stop-opacity:0.13"/>
				<stop  offset="0.44" style="stop-color:#FFFFFF;stop-opacity:0.33"/>
				<stop  offset="0.68" style="stop-color:#FFFFFF;stop-opacity:0.48"/>
				<stop  offset="0.88" style="stop-color:#FFFFFF;stop-opacity:0.57"/>
				<stop  offset="1" style="stop-color:#FFFFFF;stop-opacity:0.6"/>
			</linearGradient>
			<polygon class="st6" points="120.4,50.7 149.2,78 149.6,78.7 149.6,123.2 93.1,123.2 93.1,78.4 93.1,78 			"/>
		</g>
		<rect x="149.6" y="78.4" class="st4" width="66.6" height="44.9"/>
		<g class="st7">
			<rect x="149.6" y="78.4" class="st8" width="66.6" height="44.9"/>
		</g>
		<polygon class="st3" points="62.8,66 108.6,66 130.4,88.7 84.9,88.7 		"/>
		<polygon class="st0" points="62.7,65.9 62.8,66 84.9,88.7 81.1,92.6 61,73.4 41.9,92.6 38.6,89.3 		"/>
		<polygon class="st0" points="130.4,88.7 130.8,88.7 127.5,92.6 81.1,92.6 84.9,88.7 		"/>
		<polygon class="st4" points="61.2,73.2 81.1,92.1 81.3,92.5 81.3,123.2 42.4,123.2 42.4,92.3 42.4,92.1 		"/>
		<g class="st9">
			
				<linearGradient id="SVGID_2_" gradientUnits="userSpaceOnUse" x1="42.3879" y1="974.1516" x2="81.2879" y2="974.1516" gradientTransform="matrix(1 0 0 1 0 -876)">
				<stop  offset="0" style="stop-color:#FFFFFF;stop-opacity:0"/>
				<stop  offset="0.16" style="stop-color:#FFFFFF;stop-opacity:0.13"/>
				<stop  offset="0.44" style="stop-color:#FFFFFF;stop-opacity:0.33"/>
				<stop  offset="0.68" style="stop-color:#FFFFFF;stop-opacity:0.48"/>
				<stop  offset="0.88" style="stop-color:#FFFFFF;stop-opacity:0.57"/>
				<stop  offset="1" style="stop-color:#FFFFFF;stop-opacity:0.6"/>
			</linearGradient>
			<polygon class="st10" points="61.2,73.2 81.1,92.1 81.3,92.5 81.3,123.2 42.4,123.2 42.4,92.3 42.4,92.1 			"/>
		</g>
		<rect x="81.3" y="92.3" class="st4" width="45.9" height="30.9"/>
		<g class="st7">
			<rect x="81.3" y="92.3" class="st8" width="45.9" height="30.9"/>
		</g>
		<rect x="56.6" y="101.4" class="st0" width="10.3" height="21.8"/>
		<rect x="95.7" y="101.4" class="st0" width="7.4" height="10.9"/>
		<rect x="108.7" y="101.4" class="st0" width="7.4" height="10.9"/>
		<rect x="158" y="91.6" class="st0" width="10.8" height="15.8"/>
		<rect x="199" y="91.6" class="st0" width="10.8" height="15.8"/>
		<rect x="176.4" y="91.6" class="st0" width="15" height="31.7"/>
	</g>
</g>
</svg>
