<?xml version="1.0" encoding="utf-8"?>
<!-- Generator: Adobe Illustrator 25.2.1, SVG Export Plug-In . SVG Version: 6.00 Build 0)  -->
<svg version="1.1" id="Layer_1" xmlns="http://www.w3.org/2000/svg" xmlns:xlink="http://www.w3.org/1999/xlink" x="0px" y="0px"
	 viewBox="0 0 895.6 194.8" style="enable-background:new 0 0 895.6 194.8;" xml:space="preserve">
	 <!-- <svg version="1.1" id="Layer_1" xmlns="http://www.w3.org/2000/svg" xmlns:xlink="http://www.w3.org/1999/xlink" x="0px" y="0px" height="100%" width="100%"
	 viewBox="0 0 850 350" style="enable-background:new 0 0 1000 350;"  whiteSpace="none"> -->
<style type="text/css">
	.st0{fill:#2E53A3;}
	.st1{fill:#221D53;}
	.st2{fill:#5875B5;}
	.st3{fill:#F7BA44;}
	.st4{opacity:0.7;fill:#FFFFFF;enable-background:new    ;}
	.st5{opacity:0.5;fill:url(#SVGID_1_);enable-background:new    ;}
	.st6{opacity:0.5;fill:url(#SVGID_2_);enable-background:new    ;}
</style>
<g id="Layer_2_1_">
	<g id="Layer_1-2">
		<path class="st0" d="M661.6,142.6c-35.3,6.3-141.9,17.5-235.3-21.3c-79.5-33-97.6-21.2-232.2,19.2C149.1,153.9,0,194.8,0,194.8
			h505.7c96.6-4.9,186.4-13.2,196.3-15.3c4.2-0.9,8.3-2,12.4-3.4c3.5-1.2,7.1-2.3,9.7-5.2c0.7-0.7,1-1.6,1-2.5
			c-0.5-3-9.2-6.5-11.5-7.9c-1.9-1.1-3.7-2.1-5.5-3.4c-0.7-0.4-1.3-1.1-1.7-1.8c-1.7-4.8,19.8-4.6,21-8.9
			c1.1-3.7-29.6-10.1-33.3-10.8l-2.5-0.4C681.7,138.3,671.7,140.8,661.6,142.6z"/>
		<path class="st0" d="M895.6,0C889.8,40.6,750,117.1,691.6,135.2l2.2,0.3l0.4,0.1c9.7,1.4,41.1,6.2,40.7,11.3
			c-0.4,4.9-21.7,5.8-7.9,9c4.2,1,32.9,6.4,43.9,13.4c9.6,6,5.9,14-2.3,21.6l127-0.5V58.1L895.6,0z"/>
		<path class="st1" d="M895.6,194.8V68.3c0,0-83.9,71.3-147.9,72.1c-11.5,0.1-23-0.4-34.4-1.7c10.9,2.2,21.8,5.2,21.6,8.2
			c-0.4,4.9-21.7,5.8-7.9,9c4.3,1,32.9,6.4,43.9,13.4c11.5,7.3,3.9,16.7-7.8,25.5C842.7,194.5,895.6,194.8,895.6,194.8z"/>
		<path class="st1" d="M702,179.5c4.2-0.9,8.3-2,12.4-3.4c3.5-1.2,7.1-2.3,9.7-5.2c0.7-0.7,1-1.6,1-2.5c-0.5-3.1-9.2-6.5-11.5-7.9
			c-1.9-1.1-3.7-2.1-5.5-3.4c-0.7-0.4-1.3-1.1-1.7-1.8c-1.7-4.8,19.8-4.7,21-8.9c0.8-2.6-13.4-6.3-23.6-8.7
			c-61.9-8.1-107.4-31.9-134.3-32.5c-38.5-0.8-66,35.1-126.6,51.4c-46.2,12.5-61.4,5.8-94.8-7.6c-51.5-20.6-65.6-19.7-105.5-7.7
			c-47.6,14.3-151.4,43.1-214,53.4h478.7C675,189.1,689.9,182.1,702,179.5z"/>
		<rect x="758.9" y="128.9" class="st2" width="2.1" height="27.4"/>
		<rect x="679.2" y="142" class="st2" width="2.1" height="27.4"/>
		<rect x="746.5" y="125.9" class="st2" width="2.1" height="27.4"/>
		<rect x="563" y="142.1" class="st2" width="2.1" height="27.4"/>
		<path class="st2" d="M581.2,160.2L581.2,160.2c-5.2,0-9.4-4.2-9.4-9.4c0,0,0,0,0,0c0-3.8,4.7-25.4,9.4-25.4s9.4,21.5,9.4,25.4
			C590.7,156,586.4,160.2,581.2,160.2L581.2,160.2z"/>
		<path class="st2" d="M759.9,145.1L759.9,145.1c5.2,0,9.5-4.2,9.5-9.4l0,0c0-3.8-4.7-25.4-9.5-25.4s-9.5,21.5-9.5,25.4
			C750.5,140.9,754.7,145.1,759.9,145.1C759.9,145.1,759.9,145.1,759.9,145.1z"/>
		<rect x="844.5" y="142" class="st2" width="2.1" height="27.4"/>
		<path class="st2" d="M845.6,158.2L845.6,158.2c5.2,0,9.5-4.2,9.5-9.4c0-3.8-4.7-25.4-9.5-25.4s-9.5,21.5-9.5,25.4
			C836.1,154,840.4,158.2,845.6,158.2L845.6,158.2z"/>
		<path class="st2" d="M747.6,144L747.6,144c4.2,0,7.5-3.4,7.5-7.5c0-3-3.8-20.3-7.5-20.3s-7.5,17.1-7.5,20.3
			C740.1,140.6,743.4,144,747.6,144z"/>
		<polygon class="st0" points="801.8,140.6 829.2,140.6 840.8,152.1 813.4,152.1 		"/>
		<polygon class="st1" points="812,153.3 839.4,153.3 840.8,152.1 813.4,152.1 		"/>
		<polygon class="st1" points="801.8,140.6 790.3,152.1 791.6,153.3 801.8,143.2 812,153.3 813.4,152.1 		"/>
		<polygon class="st3" points="791.6,153.3 791.6,169.4 812,169.4 812,153.3 801.8,143.2 		"/>
		<rect x="812" y="153.3" class="st3" width="27.3" height="16.1"/>
		<rect x="812" y="153.3" class="st4" width="27.3" height="16.1"/>
		<rect x="795.1" y="159" class="st4" width="4.6" height="4.6"/>
		<rect x="803.9" y="159" class="st3" width="4.6" height="10.4"/>
		<rect x="803.2" y="159" class="st4" width="4.6" height="10.4"/>
		<rect x="804.2" y="159" class="st1" width="3.7" height="10.4"/>
		<rect x="796.1" y="159" class="st1" width="3.7" height="4.6"/>
		<rect x="818.6" y="159" class="st1" width="4.6" height="4.6"/>
		<rect x="818.6" y="159" class="st0" width="3.7" height="4.6"/>
		<rect x="828.7" y="159" class="st1" width="4.6" height="4.6"/>
		<rect x="828.7" y="159" class="st0" width="3.7" height="4.6"/>
		<path class="st2" d="M680.2,157.8L680.2,157.8c-6.5,0-11.8-5.3-11.8-11.8c0,0,0,0,0,0c0-4.7,5.9-31.8,11.8-31.9s11.9,27,11.9,31.9
			C692.1,152.5,686.8,157.8,680.2,157.8z"/>
		<path class="st2" d="M564,157.8L564,157.8c-6.5,0-11.8-5.3-11.8-11.8c0-4.7,5.9-31.8,11.8-31.9s11.9,27,11.9,31.9
			C575.9,152.5,570.6,157.8,564,157.8C564,157.8,564,157.8,564,157.8z"/>
		<polygon class="st0" points="619.1,128 658.3,128 675,144.6 635.8,144.6 		"/>
		<polygon class="st1" points="633.8,146.3 673,146.3 675,144.6 635.8,144.6 		"/>
		<polygon class="st1" points="619.1,128 602.5,144.6 604.5,146.3 619.1,131.8 633.8,146.3 635.8,144.6 		"/>
		<polygon class="st3" points="604.5,146.3 604.5,169.4 633.8,169.4 633.8,146.3 619.1,131.8 		"/>
		
			<linearGradient id="SVGID_1_" gradientUnits="userSpaceOnUse" x1="604.5" y1="103.5778" x2="633.76" y2="103.5778" gradientTransform="matrix(1 0 0 -1 0 254.1656)">
			<stop  offset="0" style="stop-color:#FFFFFF;stop-opacity:0"/>
			<stop  offset="0.16" style="stop-color:#FFFFFF;stop-opacity:0.13"/>
			<stop  offset="0.44" style="stop-color:#FFFFFF;stop-opacity:0.33"/>
			<stop  offset="0.68" style="stop-color:#FFFFFF;stop-opacity:0.48"/>
			<stop  offset="0.88" style="stop-color:#FFFFFF;stop-opacity:0.57"/>
			<stop  offset="1" style="stop-color:#FFFFFF;stop-opacity:0.6"/>
		</linearGradient>
		<polygon class="st5" points="604.5,146.3 604.5,169.4 633.8,169.4 633.8,146.3 619.1,131.8 		"/>
		<rect x="633.8" y="146.3" class="st3" width="39.2" height="23.1"/>
		<rect x="633.8" y="146.3" class="st4" width="39.2" height="23.1"/>
		<rect x="650.9" y="154.5" class="st1" width="6.7" height="14.9"/>
		<rect x="649.6" y="154.5" class="st0" width="6.5" height="14.9"/>
		<rect x="661.2" y="154.5" class="st1" width="6.7" height="6.7"/>
		<rect x="661.2" y="154.5" class="st0" width="5.3" height="6.7"/>
		<rect x="639.4" y="154.5" class="st1" width="6.7" height="6.7"/>
		<rect x="639.4" y="154.5" class="st0" width="5.3" height="6.7"/>
		<polygon class="st0" points="587.7,141.5 614.2,141.5 625.4,152.6 598.9,152.6 		"/>
		<polygon class="st1" points="597.5,153.8 624,153.8 625.4,152.6 598.9,152.6 		"/>
		<polygon class="st1" points="587.7,141.5 576.4,152.6 577.8,153.8 587.7,144 597.5,153.8 598.9,152.6 		"/>
		<polygon class="st3" points="577.8,153.8 577.8,169.4 597.5,169.4 597.5,153.8 587.7,144 		"/>
		
			<linearGradient id="SVGID_2_" gradientUnits="userSpaceOnUse" x1="577.77" y1="97.4728" x2="597.54" y2="97.4728" gradientTransform="matrix(1 0 0 -1 0 254.1656)">
			<stop  offset="0" style="stop-color:#FFFFFF;stop-opacity:0"/>
			<stop  offset="0.16" style="stop-color:#FFFFFF;stop-opacity:0.13"/>
			<stop  offset="0.44" style="stop-color:#FFFFFF;stop-opacity:0.33"/>
			<stop  offset="0.68" style="stop-color:#FFFFFF;stop-opacity:0.48"/>
			<stop  offset="0.88" style="stop-color:#FFFFFF;stop-opacity:0.57"/>
			<stop  offset="1" style="stop-color:#FFFFFF;stop-opacity:0.6"/>
		</linearGradient>
		<polygon class="st6" points="577.8,153.8 577.8,169.4 597.5,169.4 597.5,153.8 587.7,144 		"/>
		<rect x="597.5" y="153.8" class="st3" width="26.5" height="15.6"/>
		<rect x="597.5" y="153.8" class="st4" width="26.5" height="15.6"/>
		<rect x="585.1" y="159.3" class="st4" width="4.5" height="10.1"/>
		<rect x="586" y="159.3" class="st1" width="4.3" height="10.1"/>
		<rect x="603.9" y="159.4" class="st1" width="4.5" height="4.5"/>
		<rect x="614.2" y="159.4" class="st1" width="4.5" height="4.5"/>
		<rect x="614.2" y="159.4" class="st0" width="3.5" height="4.5"/>
		<rect x="603.9" y="159.4" class="st0" width="3.5" height="4.5"/>
		<path class="st2" d="M787.3,166.2c0,2.2-1.8,3.2-3.9,3.2s-3.9-1.1-3.9-3.2c0-2.2,3.1-4.6,3.9-4.6S787.3,164,787.3,166.2z"/>
	</g>
</g>
</svg>
