<?xml version="1.0" encoding="UTF-8" standalone="no"?>
<svg
   viewBox="0 0 512 512"
   version="1.1"
   id="svg12"
   sodipodi:docname="magnifying-glass2.svg"
   inkscape:version="1.2.2 (732a01da63, 2022-12-09)"
   xmlns:inkscape="http://www.inkscape.org/namespaces/inkscape"
   xmlns:sodipodi="http://sodipodi.sourceforge.net/DTD/sodipodi-0.dtd"
   xmlns="http://www.w3.org/2000/svg"
   xmlns:svg="http://www.w3.org/2000/svg">
  <defs
     id="defs16" />
  <sodipodi:namedview
     id="namedview14"
     pagecolor="#ffffff"
     bordercolor="#000000"
     borderopacity="0.25"
     inkscape:showpageshadow="2"
     inkscape:pageopacity="0.0"
     inkscape:pagecheckerboard="0"
     inkscape:deskcolor="#d1d1d1"
     showgrid="false"
     inkscape:zoom="1.6542969"
     inkscape:cx="159.28217"
     inkscape:cy="331.25856"
     inkscape:window-width="1920"
     inkscape:window-height="1027"
     inkscape:window-x="-8"
     inkscape:window-y="606"
     inkscape:window-maximized="1"
     inkscape:current-layer="svg12" />
  <!--! Font Awesome Free 6.4.0 by @fontawesome - https://fontawesome.com License - https://fontawesome.com/license/free (Icons: CC BY 4.0, Fonts: SIL OFL 1.1, Code: MIT License) Copyright 2023 Fonticons, Inc. -->
  <path
     d="m 416,208 c 0,45.9 -14.9,88.3 -40.00001,122.7 l 126.6,126.7 c 12.5,12.5 12.5,32.8 0,45.3 C 490.1,515.2 469.8,515.2 457.3,502.7 L 330.7,376 C 296.3,401.2 253.9,416 207.99999,416 93.1,416 0,322.9 0,208 0,93.1 93.1,0 207.99999,0 322.89999,0 416,93.1 416,208 Z M 207.99999,352 a 144,144 0 1 0 0,-288 144,144 0 1 0 0,288 z"
     id="path10"
     style="fill:#ffffff;fill-opacity:0.43523315;stroke-width:1" />
</svg>
