<svg xmlns="http://www.w3.org/2000/svg" width="153" height="72" viewBox="0 0 153 72">
  <g id="Group_3710" data-name="Group 3710" transform="translate(-767 -544)">
    <path id="Vector" d="M68.327,2.609H0V1.337A1.329,1.329,0,0,1,1.326,0H67.014A1.329,1.329,0,0,1,68.34,1.337V2.609Z" transform="translate(819.539 613.391)" fill="#efad46"/>
    <g id="Group_3706" data-name="Group 3706" transform="translate(6)">
      <path id="Vector-2" data-name="Vector" d="M1.411,53.671A3.277,3.277,0,0,1,.6,49.091l7.959-11.28H6.472a3.348,3.348,0,0,1-1.783-.52A3.269,3.269,0,0,1,3.68,32.75l8.444-13.167a3.012,3.012,0,0,1-.813-.351,3.273,3.273,0,0,1-1.141-4.515L18.614.743A1.793,1.793,0,0,1,19.059.3a1.734,1.734,0,0,1,2.4.442L29.89,14.716a3.287,3.287,0,0,1-1.954,4.853L36.38,32.737A3.282,3.282,0,0,1,33.587,37.8H31.5l7.959,11.28a3.234,3.234,0,0,1,.6,1.887,3.3,3.3,0,0,1-3.317,3.292H25.838a.819.819,0,0,0-.826.82v7.481H15.06V55.076a.819.819,0,0,0-.826-.82H3.312a3.324,3.324,0,0,1-1.9-.6Z" transform="translate(833.857 552.301)" fill="#efad46"/>
      <path id="Vector-3" data-name="Vector" d="M25.423,28.849a1.8,1.8,0,0,1,.249.931,1.861,1.861,0,0,1-1.862,1.862h-6.53a.935.935,0,0,0-.931.931v4.668H8.89V32.573a.935.935,0,0,0-.931-.931H1.429A1.939,1.939,0,0,1,.5,31.393,1.976,1.976,0,0,1,0,30.96H1.941a4.628,4.628,0,0,0,4.628-4.628,4.6,4.6,0,0,0-.839-2.649L4.091,21.35l1.587-2.767H3.291a1.824,1.824,0,0,1-.983-.275,1.871,1.871,0,0,1-.6-2.57L11.027.817a1.906,1.906,0,0,1,.459-.459,1.933,1.933,0,0,1,2.7.459l9.322,14.921a1.89,1.89,0,0,1,.275.983,1.861,1.861,0,0,1-1.862,1.862H19.536L25.4,28.849Z" transform="translate(868.421 576.83)" fill="#efad46"/>
      <path id="Vector-4" data-name="Vector" d="M21.827,30.134a4.612,4.612,0,0,0,2.662.839h1.18a1.833,1.833,0,0,1-1.416.669h-6.53a.935.935,0,0,0-.931.931v4.668H9.332V32.573a.935.935,0,0,0-.931-.931H1.871a1.939,1.939,0,0,1-.931-.249,1.867,1.867,0,0,1-.695-2.544L6.119,18.583H3.733a1.824,1.824,0,0,1-.983-.275,1.871,1.871,0,0,1-.6-2.57L11.469.817a1.906,1.906,0,0,1,.459-.459,1.933,1.933,0,0,1,2.7.459l9.322,14.921a1.89,1.89,0,0,1,.275.983,1.861,1.861,0,0,1-1.862,1.862H19.978l1.914,3.357-1.219,1.744A4.626,4.626,0,0,0,21.8,30.134Z" transform="translate(813 576.83)" fill="#efad46"/>
      <g id="Group_3695" data-name="Group 3695" transform="translate(887.784 545.954)">
        <g id="Add" transform="translate(0.216 0.046)">
          <g id="Component_60_3" data-name="Component 60 – 3" transform="translate(12) rotate(90)">
            <line id="Line_22" data-name="Line 22" x2="24" fill="none" stroke="#efad46" stroke-linecap="round" stroke-width="4"/>
          </g>
          <g id="Component_60_4" data-name="Component 60 – 4" transform="translate(0 12)">
            <line id="Line_22-2" data-name="Line 22" x2="24" fill="none" stroke="#efad46" stroke-linecap="round" stroke-width="4"/>
          </g>
        </g>
      </g>
      <g id="Layer_1" transform="translate(715.699 557.724)">
        <g id="Group_3705" data-name="Group 3705" transform="translate(45.301 3.499)">
          <path id="Path_2" data-name="Path 2" d="M88.032,20.289V10.21H84.315v6.362L75.529,7.786l0,0L71.247,3.5,45.3,29.445l4.285,4.285L71.245,12.071,93.016,33.842,97.3,29.558Z" transform="translate(-45.301 -3.499)" fill="#efad46"/>
          <path id="Path_3" data-name="Path 3" d="M95.5,41.2,78.01,24.024,60.944,41.2V65.333H59.095v3.241H97.1V65.333H95.5ZM73.349,58.151H64.822V45.121h8.527v13.03Zm.56-21.091h3.314v3.314H73.909Zm6.934,28.56H75.31V49.279h5.533ZM82.4,40.373H79.086V37.06H82.4Zm9.4,17.777H83.268V45.121H91.8Z" transform="translate(-52.222 -13.798)" fill="#efad46"/>
        </g>
      </g>
    </g>
  </g>
</svg>
