<?xml version="1.0" standalone="no"?>
<!DOCTYPE svg PUBLIC "-//W3C//DTD SVG 1.1//EN"
"http://www.w3.org/Graphics/SVG/1.1/DTD/svg11.dtd">

<svg height="78" transform="translate(0.5,0.5)" version="1.1" width="89" xmlns="http://www.w3.org/2000/svg" xmlns:nch="http://www.nchsoftware.com/drawpad/" xmlns:xlink="http://www.w3.org/1999/xlink"><rect fill="rgb(255,255,255)" fill-opacity="1.000" height="78" id="background" width="89" x="0" y="0"/><g class="Layer"><rect fill-opacity="0" height="97" stroke="rgb(0,0,0)" stroke-opacity="1.000" stroke-width="0" width="90" x="-1" y="-5"/><path d="M71,64 C71,65 71,65 71,66 C71,66 70,66 70,67 C70,67 69,67 69,67 C69,67 20,67 20,67 C20,67 19,67 19,66 C19,66 19,66 19,66 C18,66 18,65 18,65 C18,65 18,64 18,64 C21,57 27,52 33,49 C35,48 37,47 39,47 C35,45 33,42 31,39 C30,35 30,31 32,28 C33,24 36,22 39,20 C43,19 47,19 50,21 C54,22 57,25 58,28 C59,32 59,36 58,39 C56,43 54,45 50,47 C58,48 64,53 68,59 C69,61 70,63 71,64 C71,64 71,64 71,64" fill="rgb(67,175,225)" fill-opacity="1.000" fill-rule="evenodd" nch:path="70.9,64.4,71.0,64.8,71.0,65.3 70.9,65.7,70.7,66.1,70.3,66.4 69.9,66.6,69.7,66.7,69.5,66.7 69.3,66.7,69.3,66.7,20.0,66.7 20.0,66.7,19.6,66.7,19.1,66.6 18.8,66.2,18.7,66.2,18.7,66.1 18.6,66.0,18.4,65.6,18.3,65.1 18.4,64.6,18.4,64.5,18.4,64.5 18.4,64.4,21.1,57.3,26.5,51.6 33.4,48.6,35.2,47.8,37.0,47.2 38.9,46.8,35.5,45.2,32.7,42.4 31.3,38.9,30.0,35.3,30.0,31.4 31.6,27.9,33.1,24.4,35.9,21.7 39.5,20.3,43.0,18.9,46.9,19.0 50.4,20.5,53.9,22.1,56.6,24.9 58.0,28.4,59.4,32.0,59.3,35.9 57.8,39.4,56.3,42.7,53.7,45.3 50.4,46.8,57.8,48.4,64.2,52.8 68.3,59.1,69.3,60.8,70.2,62.5 70.9,64.4,70.9,64.4,70.9,64.4 70.9,64.4," nch:penfill="rgba(67,175,225,255)"/><path d="M38,18 C38,18 38,18 38,18 C38,18 38,18 38,18 C38,18 38,18 38,18 C38,18 38,18 37,18 C33,20 30,23 28,27 C26,31 26,35 28,39 C29,42 30,44 32,46 C32,46 32,46 32,46 C32,46 32,46 32,46 C32,46 32,46 32,46 C25,49 19,55 16,62 C16,62 16,62 15,62 C15,62 15,62 15,62 C15,62 3,62 3,62 C3,62 2,62 2,62 C1,61 1,61 1,60 C1,60 1,60 1,59 C4,52 10,46 17,43 C18,43 19,42 21,42 C17,40 15,37 14,33 C13,29 13,25 15,22 C17,18 20,16 24,15 C27,14 31,14 35,16 C36,16 37,17 38,18 C38,18 38,18 38,18" fill="rgb(67,175,225)" fill-opacity="1.000" fill-rule="evenodd" nch:path="37.6,17.7,37.7,17.8,37.8,17.9 37.8,18.0,37.8,18.1,37.8,18.1 37.8,18.1,37.8,18.2,37.7,18.3 37.6,18.4,37.6,18.4,37.5,18.4 37.5,18.5,33.5,19.9,30.2,22.9 28.3,26.8,26.5,30.6,26.3,35.1 27.7,39.1,28.6,41.6,30.1,43.9 32.1,45.7,32.2,45.8,32.3,45.9 32.3,46.0,32.3,46.1,32.2,46.2 32.2,46.3,32.1,46.4,32.1,46.4 32.0,46.4,24.7,49.3,18.9,54.9 15.7,62.1,15.6,62.2,15.5,62.3 15.4,62.3,15.4,62.3,15.3,62.3 15.3,62.3,15.3,62.3,3.3,62.3 3.3,62.3,2.7,62.3,2.2,62.1 1.8,61.7,1.4,61.3,1.2,60.7 1.2,60.1,1.2,59.9,1.2,59.6 1.3,59.4,4.1,52.2,9.5,46.4 16.5,43.3,18.0,42.7,19.4,42.2 20.9,41.8,17.5,39.9,14.9,36.8 13.8,33.0,12.7,29.3,13.1,25.3 14.9,21.8,16.8,18.4,19.9,15.8 23.7,14.7,27.4,13.6,31.5,14.0 34.9,15.8,35.9,16.4,36.8,17.0 37.6,17.7,37.6,17.7,37.6,17.7 37.6,17.7," nch:penfill="rgba(67,175,225,255)"/><path d="M51,18 C54,15 58,14 62,14 C66,14 70,16 72,19 C75,22 76,26 76,30 C76,34 74,37 71,40 C70,41 69,41 68,42 C75,44 82,49 86,55 C86,56 87,58 88,59 C88,60 88,60 88,61 C87,62 87,62 86,62 C86,62 86,62 86,62 C86,62 74,62 74,62 C74,62 73,62 73,62 C73,62 73,62 73,62 C70,55 64,49 57,46 C57,46 57,46 57,46 C57,46 57,46 57,46 C57,46 57,46 57,46 C60,43 62,39 62,34 C62,34 62,34 62,34 C62,29 60,25 57,22 C56,21 54,19 52,18 C51,18 51,18 51,18 C51,18 51,18 51,18 C51,18 51,18 51,18 C51,18 51,18 51,18 C51,18 51,18 51,18" fill="rgb(67,175,225)" fill-opacity="1.000" fill-rule="evenodd" nch:path="51.4,17.7,54.3,15.1,58.2,13.8 62.1,14.1,66.0,14.4,69.6,16.2 72.2,19.1,74.7,22.1,76.0,25.9 75.8,29.8,75.5,33.7,73.7,37.3 70.8,39.9,69.9,40.6,69.0,41.3 68.1,41.8,75.5,43.7,81.8,48.5 85.7,55.2,86.5,56.5,87.1,57.9 87.7,59.4,87.9,59.9,87.9,60.5 87.7,61.0,87.4,61.5,87.0,62.0 86.5,62.2,86.2,62.3,86.0,62.3 85.7,62.3,85.7,62.3,73.7,62.3 73.7,62.3,73.6,62.3,73.5,62.3 73.4,62.2,73.4,62.2,73.3,62.1 73.3,62.1,70.1,54.9,64.3,49.3 57.0,46.4,56.9,46.4,56.8,46.3 56.8,46.2,56.7,46.1,56.7,46.0 56.8,45.9,56.8,45.8,56.8,45.7 56.9,45.7,60.1,42.8,62.0,38.8 62.2,34.5,62.2,34.2,62.2,33.9 62.2,33.7,62.2,29.4,60.5,25.2 57.4,22.2,55.7,20.5,53.7,19.3 51.5,18.5,51.4,18.4,51.3,18.3 51.3,18.2,51.2,18.2,51.2,18.2 51.2,18.1,51.2,18.0,51.2,17.9 51.3,17.8,51.3,17.8,51.3,17.7 51.4,17.7,51.4,17.7,51.4,17.7 51.4,17.7," nch:penfill="rgba(67,175,225,255)"/></g></svg>